SplineFontDB: 3.2
FontName: Entity-Oblique
FullName: Entity Oblique
FamilyName: Entity
Weight: Regular
Copyright: Based on Geist Copyright 2024 The Geist Project Authors https:github.comvercelgeist-font.git
Version: 0.1
ItalicAngle: -10
UnderlinePosition: -125
UnderlineWidth: 50
Ascent: 800
Descent: 200
InvalidEm: 0
sfntRevision: 0x0000199a
LayerCount: 2
Layer: 0 0 "Back" 1
Layer: 1 0 "Fore" 0
XUID: [1021 1008 -1557834819 13823364]
StyleMap: 0x0040
FSType: 0
OS2Version: 4
OS2_WeightWidthSlopeOnly: 0
OS2_UseTypoMetrics: 1
CreationTime: 1728311655
ModificationTime: 1746815570
PfmFamily: 81
TTFWeight: 400
TTFWidth: 5
LineGap: 0
VLineGap: 0
Panose: 0 0 0 0 0 0 0 0 0 0
OS2TypoAscent: 1005
OS2TypoAOffset: 0
OS2TypoDescent: -295
OS2TypoDOffset: 0
OS2TypoLinegap: 0
OS2WinAscent: 1012
OS2WinAOffset: 0
OS2WinDescent: 262
OS2WinDOffset: 0
HheadAscent: 1005
HheadAOffset: 0
HheadDescent: -295
HheadDOffset: 0
OS2SubXSize: 650
OS2SubYSize: 600
OS2SubXOff: 0
OS2SubYOff: 75
OS2SupXSize: 650
OS2SupYSize: 600
OS2SupXOff: 0
OS2SupYOff: 350
OS2StrikeYSize: 50
OS2StrikeYPos: 318
OS2CapHeight: 710
OS2XHeight: 530
OS2Vendor: 'VRCL'
OS2CodePages: 20000097.00000000
OS2UnicodeRanges: a10002ff.5001e5fb.00000000.00000000
Lookup: 1 0 0 "'aalt' Access All Alternates in Latin lookup 0" { "'aalt' Access All Alternates in Latin lookup 0 subtable"  } ['aalt' ('DFLT' <'dflt' > 'latn' <'AZE ' 'CAT ' 'CRT ' 'KAZ ' 'MAH ' 'MOL ' 'NLD ' 'ROM ' 'TAT ' 'TRK ' 'dflt' > ) ]
Lookup: 3 0 0 "'aalt' Access All Alternates in Latin lookup 1" { "'aalt' Access All Alternates in Latin lookup 1 subtable"  } ['aalt' ('DFLT' <'dflt' > 'latn' <'AZE ' 'CAT ' 'CRT ' 'KAZ ' 'MAH ' 'MOL ' 'NLD ' 'ROM ' 'TAT ' 'TRK ' 'dflt' > ) ]

StartChar: .notdef
Encoding: 65536 -1 0
Width: 600
GlyphClass: 1
Flags: HMW
HStem: 0 36<95 510 95 565> 674 36<95 95 95 510>
VStem: 40 33<64 646 64 710> 532 33<64 646 646 646>
LayerCount: 2
Fore
SplineSet
-22.595703125 0 m 1
 102.595703125 710 l 1
 627.595703125 710 l 1
 502.404296875 0 l 1
 -22.595703125 0 l 1
151.248046875 674 m 1
 308.11328125 384 l 1
 566.248046875 674 l 1
 151.248046875 674 l 1
124.311523438 646 m 1
 21.6884765625 64 l 1
 282 355 l 1
 124.311523438 646 l 1
323 355 m 1
 480.688476562 64 l 1
 583.311523438 646 l 1
 323 355 l 1
38.751953125 36 m 1
 453.751953125 36 l 1
 297.88671875 326 l 1
 38.751953125 36 l 1
EndSplineSet
Validated: 1
EndChar

StartChar: A
Encoding: 65 65 1
Width: 668
GlyphClass: 2
Flags: HMW
HStem: 0 21G<20 20 20 114 554 554 554 648> 202 84<214 454 214 483 185 454> 635 75<334 334> 690 20G<276 392 392 392>
VStem: 20 628<0 0>
AnchorPoint: "Anchor-3" 396.596 710 basechar 0
AnchorPoint: "Anchor-2" 585.404 0 basechar 0
AnchorPoint: "Anchor-0" 271.404 0 basechar 0
LayerCount: 2
Fore
SplineSet
-42.595703125 0 m 1xd8
 338.595703125 710 l 1
 454.595703125 710 l 1
 585.404296875 0 l 1
 491.404296875 0 l 1
 456.021484375 202 l 1
 158.021484375 202 l 1
 51.404296875 0 l 1
 -42.595703125 0 l 1xd8
201.833007812 286 m 1
 441.833007812 286 l 1
 383.37109375 635 l 1xe8
 201.833007812 286 l 1
EndSplineSet
Validated: 1
Substitution2: "Single Substitution lookup 27 subtable" ordfeminine
Substitution2: "'aalt' Access All Alternates in Latin lookup 0 subtable" ordfeminine
EndChar

StartChar: Aacute
Encoding: 193 193 2
Width: 668
GlyphClass: 2
Flags: HMW
HStem: 0 21G<20 20 20 114 554 554 554 648> 202 84<214 454 214 483 185 454> 635 75<334 334> 690 20G<276 392 392 392> 778 128<297 457 363 367>
VStem: 20 628<0 0>
AnchorPoint: "Anchor-3" 379.316 710 basechar 0
AnchorPoint: "Anchor-2" 568.124 0 basechar 0
AnchorPoint: "Anchor-0" 254.124 0 basechar 0
LayerCount: 2
Fore
SplineSet
354.306640625 778 m 1xdc
 442.875976562 906 l 1
 536.875976562 906 l 1
 424.306640625 778 l 1
 354.306640625 778 l 1xdc
-59.8759765625 0 m 1
 321.31640625 710 l 1
 437.31640625 710 l 1
 568.124023438 0 l 1
 474.124023438 0 l 1
 438.7421875 202 l 1
 140.7421875 202 l 1
 34.1240234375 0 l 1
 -59.8759765625 0 l 1
184.553710938 286 m 1
 424.553710938 286 l 1
 366.091796875 635 l 1xec
 184.553710938 286 l 1
EndSplineSet
Validated: 1
EndChar

StartChar: Abreve
Encoding: 258 258 3
Width: 668
GlyphClass: 2
Flags: HMW
HStem: 0 21G<20 20 20 114 554 554 554 648> 202 84<214 454 214 483 185 454> 635 75<334 334> 690 20G<276 392 392 392> 783 62<311 357 311 375>
VStem: 20 628<0 0>
AnchorPoint: "Anchor-3" 378.875 710 basechar 0
AnchorPoint: "Anchor-2" 567.683 0 basechar 0
AnchorPoint: "Anchor-0" 253.683 0 basechar 0
LayerCount: 2
Fore
SplineSet
391.747070312 783 m 0xdc
 317.136251742 783 273.005597093 824.39481148 273.005597093 890.611991288 c 0
 273.005597093 897.169897563 273.438439118 903.971266445 274.317382812 911 c 1
 332.317382812 911 l 1
 332.238948187 909.291126465 332.199963088 907.618135003 332.199963088 905.980718 c 0
 332.199963088 863.541624608 358.388561035 845 402.6796875 845 c 0
 448.6796875 845 481.206054688 865 495.317382812 911 c 1
 553.317382812 911 l 1
 535.563476562 833 473.747070312 783 391.747070312 783 c 0xdc
-60.3173828125 0 m 1
 320.875 710 l 1
 436.875 710 l 1
 567.682617188 0 l 1
 473.682617188 0 l 1
 438.30078125 202 l 1
 140.30078125 202 l 1
 33.6826171875 0 l 1
 -60.3173828125 0 l 1
184.112304688 286 m 1
 424.112304688 286 l 1
 365.650390625 635 l 1xec
 184.112304688 286 l 1
EndSplineSet
Validated: 1
EndChar

StartChar: uni01CD
Encoding: 461 461 4
Width: 668
GlyphClass: 2
Flags: HMW
HStem: 0 21G<20 20 20 114 554 554 554 648> 202 84<214 454 214 483 185 454> 635 75<334 334> 690 20G<276 392 392 392> 778 133<197 381 197 287>
VStem: 20 628<0 0>
AnchorPoint: "Anchor-3" 378.875 710 basechar 0
AnchorPoint: "Anchor-2" 567.683 0 basechar 0
AnchorPoint: "Anchor-0" 253.683 0 basechar 0
LayerCount: 2
Fore
SplineSet
277.317382812 911 m 1xdc
 347.317382812 911 l 1
 398.624023438 822 l 1
 481.317382812 911 l 1
 551.317382812 911 l 1
 437.865234375 778 l 1
 343.865234375 778 l 1
 277.317382812 911 l 1xdc
-60.3173828125 0 m 1
 320.875 710 l 1
 436.875 710 l 1
 567.682617188 0 l 1
 473.682617188 0 l 1
 438.30078125 202 l 1
 140.30078125 202 l 1
 33.6826171875 0 l 1
 -60.3173828125 0 l 1
184.112304688 286 m 1
 424.112304688 286 l 1
 365.650390625 635 l 1xec
 184.112304688 286 l 1
EndSplineSet
Validated: 1
EndChar

StartChar: Acircumflex
Encoding: 194 194 5
Width: 668
GlyphClass: 2
Flags: HMW
HStem: 0 21G<20 20 20 114 554 554 554 648> 202 84<214 454 214 483 185 454> 635 75<334 334> 690 20G<276 392 392 392> 778 133<197 381 197 381 287 401 287 471>
VStem: 20 628<0 0>
AnchorPoint: "Anchor-3" 378.875 710 basechar 0
AnchorPoint: "Anchor-2" 567.683 0 basechar 0
AnchorPoint: "Anchor-0" 253.683 0 basechar 0
LayerCount: 2
Fore
SplineSet
253.865234375 778 m 1xdc
 367.317382812 911 l 1
 461.317382812 911 l 1
 527.865234375 778 l 1
 457.865234375 778 l 1
 406.55859375 867 l 1
 323.865234375 778 l 1
 253.865234375 778 l 1xdc
-60.3173828125 0 m 1
 320.875 710 l 1
 436.875 710 l 1
 567.682617188 0 l 1
 473.682617188 0 l 1
 438.30078125 202 l 1
 140.30078125 202 l 1
 33.6826171875 0 l 1
 -60.3173828125 0 l 1
184.112304688 286 m 1
 424.112304688 286 l 1
 365.650390625 635 l 1xec
 184.112304688 286 l 1
EndSplineSet
Validated: 1
EndChar

StartChar: Adieresis
Encoding: 196 196 6
Width: 668
GlyphClass: 2
Flags: HMW
HStem: 0 21G<20 20 20 114 554 554 554 648> 202 84<214 454 214 483 185 454> 635 75<334 334> 690 20G<276 392 392 392> 793 98<203 291 203 291 377 465 203 377>
VStem: 203 88<793 891 793 891> 377 88<793 891 793 891>
AnchorPoint: "Anchor-3" 380.639 710 basechar 0
AnchorPoint: "Anchor-2" 569.446 0 basechar 0
AnchorPoint: "Anchor-0" 255.446 0 basechar 0
LayerCount: 2
Fore
SplineSet
264.2734375 793 m 1xde
 281.553710938 891 l 1
 369.553710938 891 l 1
 352.2734375 793 l 1
 264.2734375 793 l 1xde
438.2734375 793 m 1
 455.553710938 891 l 1
 543.553710938 891 l 1
 526.2734375 793 l 1
 438.2734375 793 l 1
-58.5537109375 0 m 1
 322.638671875 710 l 1
 438.638671875 710 l 1
 569.446289062 0 l 1
 475.446289062 0 l 1
 440.064453125 202 l 1
 142.064453125 202 l 1
 35.4462890625 0 l 1
 -58.5537109375 0 l 1
185.875976562 286 m 1
 425.875976562 286 l 1
 367.4140625 635 l 1xee
 185.875976562 286 l 1
EndSplineSet
Validated: 1
Substitution2: "'ss08' Style Set 8 in Latin lookup 41 subtable" Adieresis.ss08
Substitution2: "'aalt' Access All Alternates in Latin lookup 0 subtable" Adieresis.ss08
EndChar

StartChar: Agrave
Encoding: 192 192 7
Width: 668
GlyphClass: 2
Flags: HMW
HStem: 0 21G<20 20 20 114 554 554 554 648> 202 84<214 454 214 483 185 454> 635 75<334 334> 690 20G<276 392 392 392> 783 128<303 303 303 307 213 373>
VStem: 20 628<0 0>
AnchorPoint: "Anchor-3" 378.875 710 basechar 0
AnchorPoint: "Anchor-2" 567.683 0 basechar 0
AnchorPoint: "Anchor-0" 253.683 0 basechar 0
LayerCount: 2
Fore
SplineSet
360.747070312 783 m 1xdc
 293.317382812 911 l 1
 387.317382812 911 l 1
 430.747070312 783 l 1
 360.747070312 783 l 1xdc
-60.3173828125 0 m 1
 320.875 710 l 1
 436.875 710 l 1
 567.682617188 0 l 1
 473.682617188 0 l 1
 438.30078125 202 l 1
 140.30078125 202 l 1
 33.6826171875 0 l 1
 -60.3173828125 0 l 1
184.112304688 286 m 1
 424.112304688 286 l 1
 365.650390625 635 l 1xec
 184.112304688 286 l 1
EndSplineSet
Validated: 1
EndChar

StartChar: Amacron
Encoding: 256 256 8
Width: 668
GlyphClass: 2
Flags: HMW
HStem: 0 21G<20 20 20 114 554 554 554 648> 202 84<214 454 214 483 185 454> 635 75<334 334> 690 20G<276 392 392 392> 805 72<200 468 200 468>
VStem: 20 628<0 0> 200 268<805 877 805 877>
AnchorPoint: "Anchor-3" 381.873 710 basechar 0
AnchorPoint: "Anchor-2" 570.681 0 basechar 0
AnchorPoint: "Anchor-0" 256.681 0 basechar 0
LayerCount: 2
Fore
SplineSet
264.624023438 805 m 1xda
 277.319335938 877 l 1
 545.319335938 877 l 1
 532.624023438 805 l 1
 264.624023438 805 l 1xda
-57.3193359375 0 m 1
 323.873046875 710 l 1
 439.873046875 710 l 1
 570.680664062 0 l 1
 476.680664062 0 l 1
 441.298828125 202 l 1
 143.298828125 202 l 1
 36.6806640625 0 l 1xdc
 -57.3193359375 0 l 1
187.110351562 286 m 1
 427.110351562 286 l 1
 368.6484375 635 l 1xec
 187.110351562 286 l 1
EndSplineSet
Validated: 1
EndChar

StartChar: Aogonek
Encoding: 260 260 9
Width: 668
GlyphClass: 2
Flags: HMW
HStem: -210 68<602.5 614.5> 0 21G<20 20 20 114 554 554 554 578 648 648> 202 84<214 454 214 483 185 454> 635 75<334 334> 690 20G<276 392 392 392>
VStem: 504 78<-124 -121>
AnchorPoint: "Anchor-3" 415.11 710 basechar 0
AnchorPoint: "Anchor-2" 603.918 0 basechar 0
AnchorPoint: "Anchor-0" 289.918 0 basechar 0
LayerCount: 2
Fore
SplineSet
-24.08203125 0 m 1xec
 357.110351562 710 l 1
 473.110351562 710 l 1
 603.91796875 0 l 1
 560.454101562 -48 l 2
 529.283203125 -83 520.28515625 -100 517.463867188 -116 c 0
 517.150895347 -117.775529996 516.998709241 -119.477173115 516.998709241 -121.099463175 c 0
 516.998709241 -134.0962677 526.766383434 -142 541.879882812 -142 c 0
 560.879882812 -142 577.76171875 -137 592.348632812 -128 c 1
 606.473632812 -184 l 1
 588.829101562 -199 550.889648438 -210 515.889648438 -210 c 0
 464.798888102 -210 433.979219971 -190.718258233 433.979219971 -153.595006934 c 0
 433.979219971 -149.30127187 434.391513421 -144.76886008 435.232421875 -140 c 0
 441.932617188 -102 479.514648438 -59 513.0390625 -22 c 2
 533.91796875 0 l 1
 509.91796875 0 l 1
 474.536132812 202 l 1
 176.536132812 202 l 1
 69.91796875 0 l 1
 -24.08203125 0 l 1xec
220.34765625 286 m 1
 460.34765625 286 l 1
 401.885742188 635 l 1xf4
 220.34765625 286 l 1
EndSplineSet
Validated: 1
EndChar

StartChar: Aring
Encoding: 197 197 10
Width: 669
GlyphClass: 2
Flags: HMW
HStem: 0 21G<19 19 19 113 553 553 553 647> 202 84<213 453 213 482 184 453> 635 75<333 333> 690 20G<275 391 391 391> 756 50<318 342 318 356> 890 50<318 342>
VStem: 238 50<836 860 836 874> 372 50<836 860>
AnchorPoint: "Anchor-3" 375.318 710 basechar 0
AnchorPoint: "Anchor-2" 564.126 0 basechar 0
AnchorPoint: "Anchor-0" 250.126 0 basechar 0
LayerCount: 2
Fore
SplineSet
380.4296875 756 m 0xdf
 334.269619375 756 303.123105157 787.519998363 303.123105157 830.973924123 c 0
 303.123105157 836.471488933 303.621636111 842.160068125 304.651367188 848 c 0
 313.8203125 900 360.874023438 940 412.874023438 940 c 0
 459.033963479 940 490.179663404 908.480176559 490.179663404 865.026437603 c 0
 490.179663404 859.528760597 489.681120849 853.840059959 488.651367188 848 c 0
 479.482421875 796 432.4296875 756 380.4296875 756 c 0xdf
389.24609375 806 m 0
 413.24609375 806 434.419921875 824 438.651367188 848 c 0
 439.135695671 850.746390587 439.370453812 853.414211786 439.370453812 855.985481744 c 0
 439.370453812 875.883877716 425.311226601 890 404.057617188 890 c 0
 380.057617188 890 358.883789062 872 354.651367188 848 c 0
 354.167240841 845.254122067 353.93257889 842.586784192 353.93257889 840.015958161 c 0
 353.93257889 820.116803276 367.991971683 806 389.24609375 806 c 0
-63.8740234375 0 m 1
 317.318359375 710 l 1
 433.318359375 710 l 1
 564.125976562 0 l 1
 470.125976562 0 l 1
 434.744140625 202 l 1
 136.744140625 202 l 1
 30.1259765625 0 l 1
 -63.8740234375 0 l 1
180.555664062 286 m 1
 420.555664062 286 l 1
 362.09375 635 l 1xef
 180.555664062 286 l 1
EndSplineSet
Validated: 1
EndChar

StartChar: Atilde
Encoding: 195 195 11
Width: 669
GlyphClass: 2
Flags: HMW
HStem: 0 21G<19 19 19 113 553 553 553 647> 202 84<213 453 213 482 184 453> 635 75<333 333> 690 20G<275 391 391 391> 790 56<376 396.5 376 408.5> 844 56<246 268>
VStem: 163 52<783 783> 426 52<910 910>
AnchorPoint: "Anchor-3" 377.964 710 basechar 0
AnchorPoint: "Anchor-2" 566.771 0 basechar 0
AnchorPoint: "Anchor-0" 252.771 0 basechar 0
LayerCount: 2
Fore
SplineSet
439.069335938 790 m 0xdb
 413.069335938 790 392.833007812 800 374.006835938 818 c 0
 354.356445312 837 346.590820312 844 326.590820312 844 c 0
 302.590820312 844 283.298828125 831 272.834960938 783 c 1
 220.834960938 783 l 1
 236.412109375 860 282.465820312 900 336.465820312 900 c 0xd7
 368.465820312 900 387.526367188 889 407.17578125 870 c 0
 425.177734375 853 436.944335938 846 452.944335938 846 c 0
 477.944335938 846 493.412109375 860 506.228515625 910 c 1
 558.228515625 910 l 1
 540.828125 834 496.069335938 790 439.069335938 790 c 0xdb
-61.228515625 0 m 1
 319.963867188 710 l 1
 435.963867188 710 l 1
 566.771484375 0 l 1
 472.771484375 0 l 1
 437.389648438 202 l 1
 139.389648438 202 l 1
 32.771484375 0 l 1
 -61.228515625 0 l 1
183.201171875 286 m 1
 423.201171875 286 l 1
 364.739257812 635 l 1xe7
 183.201171875 286 l 1
EndSplineSet
Validated: 1
EndChar

StartChar: AE
Encoding: 198 198 12
Width: 972
GlyphClass: 2
Flags: HMW
HStem: 0 84<579 915 579 915> 202 84<265 493 265 493 221 493> 315 82<579 895 579 895> 626 84<579 907 579 579> 629 81<442 493 442 442>
VStem: 493 86<84 202 202 202 286 315 397 626>
AnchorPoint: "Anchor-3" 571.596 710 basechar 0
AnchorPoint: "Anchor-0" 446.404 0 basechar 0
LayerCount: 2
Fore
SplineSet
-42.595703125 0 m 1xd4
 462.595703125 710 l 1
 969.595703125 710 l 1
 954.784179688 626 l 1
 626.784179688 626 l 1
 586.405273438 397 l 1
 902.405273438 397 l 1
 887.947265625 315 l 1
 571.947265625 315 l 1xb4
 531.215820312 84 l 1
 867.215820312 84 l 1
 852.404296875 0 l 1
 430.404296875 0 l 1
 466.021484375 202 l 1
 194.021484375 202 l 1
 54.404296875 0 l 1
 -42.595703125 0 l 1xd4
541.313476562 629 m 1xcc
 490.313476562 629 l 1
 252.833007812 286 l 1
 480.833007812 286 l 1
 541.313476562 629 l 1xcc
EndSplineSet
Validated: 1
EndChar

StartChar: B
Encoding: 66 66 13
Width: 680
GlyphClass: 2
Flags: HMW
HStem: 0 84<178 376 178 376> 319 84<178 336 336 376 178 336> 626 84<178 336 178 178>
VStem: 92 86<84 84 84 319 403 626> 498 90<479.5 552.5> 528 90<162.5 237.5>
AnchorPoint: "Anchor-3" 402.596 710 basechar 0
AnchorPoint: "Anchor-0" 277.404 0 basechar 0
LayerCount: 2
Fore
SplineSet
29.404296875 0 m 1xf4
 154.595703125 710 l 1
 398.595703125 710 l 2
 546.382743532 710 621.116219666 664.343128209 621.116219666 563.499025932 c 0
 621.116219666 549.706492034 619.718235363 534.881611109 616.91796875 519 c 0xf8
 602.811523438 439 545.584960938 381 464.116210938 367 c 1
 546.383581831 354.81627036 592.926909933 303.249632901 592.926909933 229.436898383 c 0
 592.926909933 218.433380915 591.892582795 206.935490939 589.788085938 195 c 0
 567.041015625 66 468.404296875 0 313.404296875 0 c 2
 29.404296875 0 l 1xf4
186.463867188 403 m 1
 344.463867188 403 l 2
 448.463867188 403 513.693359375 444 526.211914062 515 c 0
 527.649017462 523.150165491 528.367229548 530.839782946 528.367229548 538.072702152 c 0
 528.367229548 597.399037607 480.04794138 626 383.784179688 626 c 2
 225.784179688 626 l 1
 186.463867188 403 l 1
130.215820312 84 m 1
 328.215820312 84 l 2
 425.215820312 84 487.444335938 125 500.668945312 200 c 0xf4
 502.129416806 208.282691677 502.85244198 216.187304702 502.85244198 223.69632956 c 0
 502.85244198 284.181730469 455.940062514 319 369.65234375 319 c 2
 171.65234375 319 l 1
 130.215820312 84 l 1
EndSplineSet
Validated: 1
EndChar

StartChar: C
Encoding: 67 67 14
Width: 703
GlyphClass: 2
Flags: HMW
HStem: -16 84<296 426 296 449> 642 84<296 423>
VStem: 45 90<264 444 264 469>
AnchorPoint: "Anchor-3" 424.596 710 basechar 0
AnchorPoint: "Anchor-0" 303.404 0 basechar 0
LayerCount: 2
Fore
SplineSet
298.583007812 -16 m 0
 135.984540453 -16 36.1388958796 86.5306543561 36.1388958796 260.254881761 c 0
 36.1388958796 289.531357518 38.9745022229 320.829723645 44.8232421875 354 c 0
 85.37890625 584 239.416992188 726 429.416992188 726 c 0
 601.416992188 726 676.018554688 633 679.74609375 484 c 1
 587.688476562 478 l 1
 585.497070312 579 532.60546875 642 414.60546875 642 c 0
 278.60546875 642 166.5625 534 134.823242188 354 c 0
 129.915147302 326.164306176 127.543120836 300.098276332 127.543120836 275.920252389 c 0
 127.543120836 143.750662465 198.425944361 68 313.39453125 68 c 0
 437.39453125 68 515.560546875 137 553.1328125 248 c 1
 643.075195312 242 l 1
 589.920898438 88 468.583007812 -16 298.583007812 -16 c 0
EndSplineSet
Validated: 1
EndChar

StartChar: Cacute
Encoding: 262 262 15
Width: 703
GlyphClass: 2
Flags: HMW
HStem: -16 84<296 426 296 449> 642 84<296 423> 778 128<325 485 391 395>
VStem: 45 90<264 444 264 469>
AnchorPoint: "Anchor-3" 408.727 710 basechar 0
AnchorPoint: "Anchor-0" 287.534 0 basechar 0
LayerCount: 2
Fore
SplineSet
383.716796875 778 m 1
 472.287109375 906 l 1
 566.287109375 906 l 1
 453.716796875 778 l 1
 383.716796875 778 l 1
282.712890625 -16 m 0
 120.114591238 -16 20.2697001783 86.5304425182 20.2697001783 260.254343365 c 0
 20.2697001783 289.530973799 23.105325745 320.829520311 28.9541015625 354 c 0
 69.509765625 584 223.547851562 726 413.547851562 726 c 0
 585.547851562 726 660.149414062 633 663.876953125 484 c 1
 571.818359375 478 l 1
 569.627929688 579 516.736328125 642 398.736328125 642 c 0
 262.736328125 642 150.693359375 534 118.954101562 354 c 0
 114.045965827 326.164074498 111.673917372 300.097842434 111.673917372 275.919648684 c 0
 111.673917372 143.750431796 182.55600222 68 297.524414062 68 c 0
 421.524414062 68 499.69140625 137 537.263671875 248 c 1
 627.206054688 242 l 1
 574.05078125 88 452.712890625 -16 282.712890625 -16 c 0
EndSplineSet
Validated: 1
EndChar

StartChar: Ccaron
Encoding: 268 268 16
Width: 703
GlyphClass: 2
Flags: HMW
HStem: -16 84<296 426 296 449> 642 84<296 423> 778 133<225 409 225 315>
VStem: 45 90<264 444 264 469>
AnchorPoint: "Anchor-3" 408.286 710 basechar 0
AnchorPoint: "Anchor-0" 287.094 0 basechar 0
LayerCount: 2
Fore
SplineSet
306.727539062 911 m 1
 376.727539062 911 l 1
 428.034179688 822 l 1
 510.727539062 911 l 1
 580.727539062 911 l 1
 467.276367188 778 l 1
 373.276367188 778 l 1
 306.727539062 911 l 1
282.272460938 -16 m 0
 119.674491939 -16 19.8289610542 86.5300258491 19.8289610542 260.253284381 c 0
 19.8289610542 289.530219052 22.6646846965 320.829120367 28.513671875 354 c 0
 69.068359375 584 223.107421875 726 413.107421875 726 c 0
 585.107421875 726 659.708984375 633 663.435546875 484 c 1
 571.377929688 478 l 1
 569.186523438 579 516.295898438 642 398.295898438 642 c 0
 262.295898438 642 150.251953125 534 118.513671875 354 c 0
 113.605314315 326.163672949 111.233163915 300.097090394 111.233163915 275.918602334 c 0
 111.233163915 143.750031998 182.115875925 68 297.083984375 68 c 0
 421.083984375 68 499.25 137 536.823242188 248 c 1
 626.764648438 242 l 1
 573.610351562 88 452.272460938 -16 282.272460938 -16 c 0
EndSplineSet
Validated: 1
EndChar

StartChar: Ccedilla
Encoding: 199 199 17
Width: 703
GlyphClass: 2
Flags: HMW
HStem: -220 56<337.5 371 337.5 388.5> -80 44<332 372> -80 148<332 364> -14 21G<327 327> -14 82<327 327> 642 84<296 423>
VStem: 45 90<264 444 264 469> 408 60<-136.5 -111.5>
AnchorPoint: "Anchor-3" 442.581 710 basechar 0
AnchorPoint: "Anchor-0" 321.39 0 basechar 0
LayerCount: 2
Fore
SplineSet
272.59765625 -220 m 0xc7
 208.59765625 -220 175.592773438 -186 169.350585938 -142 c 1
 223.876953125 -122 l 1
 230.587890625 -152 247.471679688 -164 280.471679688 -164 c 0
 314.471679688 -164 337.116210938 -149 341.524414062 -124 c 0
 342.132614675 -120.55074531 342.492253455 -117.215705255 342.492253455 -114.029022636 c 0
 342.492253455 -94.1188125514 328.453111118 -80 273.283203125 -80 c 1xa7
 250.573242188 -50 l 1
 279.920898438 -14 l 1x97
 138.803308648 0.365011625344 54.081931208 99.6991357786 54.081931208 259.868268866 c 0
 54.081931208 289.248252306 56.9325454559 320.675147026 62.80859375 354 c 0
 103.364257812 584 257.40234375 726 447.40234375 726 c 0
 619.40234375 726 694.00390625 633 697.731445312 484 c 1
 605.673828125 478 l 1
 603.482421875 579 550.590820312 642 432.590820312 642 c 0
 296.590820312 642 184.547851562 534 152.80859375 354 c 0
 147.900498865 326.164306176 145.528472399 300.098276332 145.528472399 275.920252389 c 0
 145.528472399 143.750662465 216.411295924 68 331.379882812 68 c 0x8f
 455.379882812 68 533.545898438 137 571.118164062 248 c 1
 661.060546875 242 l 1
 610.140625 95 497.331054688 -6 339.744140625 -15 c 1
 321.041015625 -36 l 1
 376.913987156 -38.5998844051 403.012891937 -65.2331871924 403.012891937 -106.136766229 c 0
 403.012891937 -112.431722968 402.394754336 -119.064663022 401.171875 -126 c 0
 391.297851562 -182 337.59765625 -220 272.59765625 -220 c 0xc7
EndSplineSet
Validated: 1
EndChar

StartChar: Ccircumflex
Encoding: 264 264 18
Width: 703
GlyphClass: 2
Flags: HMW
HStem: -16 84<296 426 296 449> 642 84<296 423> 778 133<225 409 225 409 315 429 315 499>
VStem: 45 90<264 444 264 469>
AnchorPoint: "Anchor-3" 408.286 710 basechar 0
AnchorPoint: "Anchor-0" 287.094 0 basechar 0
LayerCount: 2
Fore
SplineSet
283.276367188 778 m 1
 396.727539062 911 l 1
 490.727539062 911 l 1
 557.276367188 778 l 1
 487.276367188 778 l 1
 435.96875 867 l 1
 353.276367188 778 l 1
 283.276367188 778 l 1
282.272460938 -16 m 0
 119.674491939 -16 19.8289610542 86.5300258491 19.8289610542 260.253284381 c 0
 19.8289610542 289.530219052 22.6646846965 320.829120367 28.513671875 354 c 0
 69.068359375 584 223.107421875 726 413.107421875 726 c 0
 585.107421875 726 659.708984375 633 663.435546875 484 c 1
 571.377929688 478 l 1
 569.186523438 579 516.295898438 642 398.295898438 642 c 0
 262.295898438 642 150.251953125 534 118.513671875 354 c 0
 113.605314315 326.163672949 111.233163915 300.097090394 111.233163915 275.918602334 c 0
 111.233163915 143.750031998 182.115875925 68 297.083984375 68 c 0
 421.083984375 68 499.25 137 536.823242188 248 c 1
 626.764648438 242 l 1
 573.610351562 88 452.272460938 -16 282.272460938 -16 c 0
EndSplineSet
Validated: 1
EndChar

StartChar: Cdotaccent
Encoding: 266 266 19
Width: 703
GlyphClass: 2
Flags: HMW
HStem: -16 84<296 426 296 449> 642 84<296 423> 793 98<318 406 318 406>
VStem: 45 90<264 444 264 469> 318 88<793 891 793 891>
AnchorPoint: "Anchor-3" 410.049 710 basechar 0
AnchorPoint: "Anchor-0" 288.857 0 basechar 0
LayerCount: 2
Fore
SplineSet
380.684570312 793 m 1
 397.963867188 891 l 1
 485.963867188 891 l 1
 468.684570312 793 l 1
 380.684570312 793 l 1
284.036132812 -16 m 0
 121.437665453 -16 21.5920208796 86.5306543561 21.5920208796 260.254881761 c 0
 21.5920208796 289.531357518 24.4276272229 320.829723645 30.2763671875 354 c 0
 70.83203125 584 224.870117188 726 414.870117188 726 c 0
 586.870117188 726 661.471679688 633 665.19921875 484 c 1
 573.141601562 478 l 1
 570.950195312 579 518.05859375 642 400.05859375 642 c 0
 264.05859375 642 152.015625 534 120.276367188 354 c 0
 115.368272302 326.164306176 112.996245836 300.098276332 112.996245836 275.920252389 c 0
 112.996245836 143.750662465 183.879069361 68 298.84765625 68 c 0
 422.84765625 68 501.013671875 137 538.5859375 248 c 1
 628.528320312 242 l 1
 575.374023438 88 454.036132812 -16 284.036132812 -16 c 0
EndSplineSet
Validated: 1
Substitution2: "'ss08' Style Set 8 in Latin lookup 41 subtable" Cdotaccent.ss08
Substitution2: "'aalt' Access All Alternates in Latin lookup 0 subtable" Cdotaccent.ss08
EndChar

StartChar: D
Encoding: 68 68 20
Width: 698
GlyphClass: 2
Flags: HMW
HStem: 0 84<178 312 312 318> 626 84<178 312 178 178>
VStem: 92 86<84 84 84 626> 563 90<264 445>
AnchorPoint: "Anchor-3" 385.596 710 basechar 0
AnchorPoint: "Anchor-1" 200 355 basechar 0
AnchorPoint: "Anchor-0" 260.404 0 basechar 0
LayerCount: 2
Fore
SplineSet
29.404296875 0 m 1
 154.595703125 710 l 1
 374.595703125 710 l 2
 561.061715945 710 661.511490263 616.352464777 661.511490263 446.579552806 c 0
 661.511490263 417.868600346 658.63867718 386.980500353 652.823242188 354 c 0
 612.797851562 127 470.404296875 0 255.404296875 0 c 2
 29.404296875 0 l 1
130.215820312 84 m 1
 264.215820312 84 l 2
 431.215820312 84 531.084960938 174 562.823242188 354 c 0
 567.966785999 383.170226189 570.535771536 409.977120872 570.535771536 434.42891851 c 0
 570.535771536 562.537719518 500.018093019 626 359.784179688 626 c 2
 225.784179688 626 l 1
 130.215820312 84 l 1
EndSplineSet
Validated: 1
EndChar

StartChar: Dcaron
Encoding: 270 270 21
Width: 698
GlyphClass: 2
Flags: HMW
HStem: 0 84<178 312 312 318> 626 84<178 312 178 178> 778 133<186 370 186 276>
VStem: 92 86<84 84 84 626> 563 90<264 445>
AnchorPoint: "Anchor-3" 367.875 710 basechar 0
AnchorPoint: "Anchor-1" 182.279 355 basechar 0
AnchorPoint: "Anchor-0" 242.683 0 basechar 0
LayerCount: 2
Fore
SplineSet
266.317382812 911 m 1
 336.317382812 911 l 1
 387.624023438 822 l 1
 470.317382812 911 l 1
 540.317382812 911 l 1
 426.865234375 778 l 1
 332.865234375 778 l 1
 266.317382812 911 l 1
11.6826171875 0 m 1
 136.875 710 l 1
 356.875 710 l 2
 543.34101282 710 643.790787138 616.352464777 643.790787138 446.579552806 c 0
 643.790787138 417.868600346 640.917974055 386.980500353 635.102539062 354 c 0
 595.076171875 127 452.682617188 0 237.682617188 0 c 2
 11.6826171875 0 l 1
112.494140625 84 m 1
 246.494140625 84 l 2
 413.494140625 84 513.364257812 174 545.102539062 354 c 0
 550.246082874 383.170226189 552.815068411 409.977120872 552.815068411 434.42891851 c 0
 552.815068411 562.537719518 482.297389894 626 342.063476562 626 c 2
 208.063476562 626 l 1
 112.494140625 84 l 1
EndSplineSet
Validated: 1
EndChar

StartChar: Dcroat
Encoding: 272 272 22
Width: 698
GlyphClass: 2
Flags: HMW
HStem: 0 84<178 312 312 318> 316 78<20 92 20 92 178 380> 626 84<178 312 178 178>
VStem: 92 86<84 84 84 316 394 626> 563 90<264 445>
AnchorPoint: "Anchor-3" 385.596 710 basechar 0
AnchorPoint: "Anchor-1" 200 355 basechar 0
AnchorPoint: "Anchor-0" 260.404 0 basechar 0
LayerCount: 2
Fore
SplineSet
29.404296875 0 m 1
 85.123046875 316 l 1
 13.123046875 316 l 1
 26.876953125 394 l 1
 98.876953125 394 l 1
 154.595703125 710 l 1
 374.595703125 710 l 2
 561.061715945 710 661.511490263 616.352464777 661.511490263 446.579552806 c 0
 661.511490263 417.868600346 658.63867718 386.980500353 652.823242188 354 c 0
 612.797851562 127 470.404296875 0 255.404296875 0 c 2
 29.404296875 0 l 1
130.215820312 84 m 1
 264.215820312 84 l 2
 431.215820312 84 531.084960938 174 562.823242188 354 c 0
 567.966785999 383.170226189 570.535771536 409.977120872 570.535771536 434.42891851 c 0
 570.535771536 562.537719518 500.018093019 626 359.784179688 626 c 2
 225.784179688 626 l 1
 184.876953125 394 l 1
 386.876953125 394 l 1
 373.123046875 316 l 1
 171.123046875 316 l 1
 130.215820312 84 l 1
EndSplineSet
Validated: 1
EndChar

StartChar: Eth
Encoding: 208 208 23
Width: 698
GlyphClass: 2
Flags: HMW
HStem: 0 84<178 312 312 318> 316 78<20 92 20 92 178 380> 626 84<178 312 178 178>
VStem: 92 86<84 84 84 316 394 626> 563 90<264 445>
AnchorPoint: "Anchor-3" 385.596 710 basechar 0
AnchorPoint: "Anchor-1" 200 355 basechar 0
AnchorPoint: "Anchor-0" 260.404 0 basechar 0
LayerCount: 2
Fore
SplineSet
29.404296875 0 m 1
 85.123046875 316 l 1
 13.123046875 316 l 1
 26.876953125 394 l 1
 98.876953125 394 l 1
 154.595703125 710 l 1
 374.595703125 710 l 2
 561.061715945 710 661.511490263 616.352464777 661.511490263 446.579552806 c 0
 661.511490263 417.868600346 658.63867718 386.980500353 652.823242188 354 c 0
 612.797851562 127 470.404296875 0 255.404296875 0 c 2
 29.404296875 0 l 1
130.215820312 84 m 1
 264.215820312 84 l 2
 431.215820312 84 531.084960938 174 562.823242188 354 c 0
 567.966785999 383.170226189 570.535771536 409.977120872 570.535771536 434.42891851 c 0
 570.535771536 562.537719518 500.018093019 626 359.784179688 626 c 2
 225.784179688 626 l 1
 184.876953125 394 l 1
 386.876953125 394 l 1
 373.123046875 316 l 1
 171.123046875 316 l 1
 130.215820312 84 l 1
EndSplineSet
Validated: 1
EndChar

StartChar: E
Encoding: 69 69 24
Width: 603
GlyphClass: 2
Flags: HMW
HStem: 0 84<178 546 178 546> 315 82<178 526 178 526> 626 84<178 538 178 178>
VStem: 92 86<84 315 397 626>
AnchorPoint: "Anchor-3" 379.596 710 basechar 0
AnchorPoint: "Anchor-2" 483.404 0 basechar 0
AnchorPoint: "Anchor-0" 256.404 0 basechar 0
LayerCount: 2
Fore
SplineSet
29.404296875 0 m 1
 154.595703125 710 l 1
 600.595703125 710 l 1
 585.784179688 626 l 1
 225.784179688 626 l 1
 185.405273438 397 l 1
 533.405273438 397 l 1
 518.947265625 315 l 1
 170.947265625 315 l 1
 130.215820312 84 l 1
 498.215820312 84 l 1
 483.404296875 0 l 1
 29.404296875 0 l 1
EndSplineSet
Validated: 1
EndChar

StartChar: Eacute
Encoding: 201 201 25
Width: 603
GlyphClass: 2
Flags: HMW
HStem: 0 84<178 546 178 546> 315 82<178 526 178 526> 626 84<178 538 178 178> 778 128<280 440 346 350>
VStem: 92 86<84 315 397 626>
AnchorPoint: "Anchor-3" 362.316 710 basechar 0
AnchorPoint: "Anchor-2" 466.124 0 basechar 0
AnchorPoint: "Anchor-0" 239.124 0 basechar 0
LayerCount: 2
Fore
SplineSet
337.306640625 778 m 1
 425.875976562 906 l 1
 519.875976562 906 l 1
 407.306640625 778 l 1
 337.306640625 778 l 1
12.1240234375 0 m 1
 137.31640625 710 l 1
 583.31640625 710 l 1
 568.504882812 626 l 1
 208.504882812 626 l 1
 168.125976562 397 l 1
 516.125976562 397 l 1
 501.666992188 315 l 1
 153.666992188 315 l 1
 112.935546875 84 l 1
 480.935546875 84 l 1
 466.124023438 0 l 1
 12.1240234375 0 l 1
EndSplineSet
Validated: 1
EndChar

StartChar: Ecaron
Encoding: 282 282 26
Width: 603
GlyphClass: 2
Flags: HMW
HStem: 0 84<178 546 178 546> 315 82<178 526 178 526> 626 84<178 538 178 178> 778 133<180 364 180 270>
VStem: 92 86<84 315 397 626>
AnchorPoint: "Anchor-3" 361.875 710 basechar 0
AnchorPoint: "Anchor-2" 465.683 0 basechar 0
AnchorPoint: "Anchor-0" 238.683 0 basechar 0
LayerCount: 2
Fore
SplineSet
260.317382812 911 m 1
 330.317382812 911 l 1
 381.624023438 822 l 1
 464.317382812 911 l 1
 534.317382812 911 l 1
 420.865234375 778 l 1
 326.865234375 778 l 1
 260.317382812 911 l 1
11.6826171875 0 m 1
 136.875 710 l 1
 582.875 710 l 1
 568.063476562 626 l 1
 208.063476562 626 l 1
 167.684570312 397 l 1
 515.684570312 397 l 1
 501.225585938 315 l 1
 153.225585938 315 l 1
 112.494140625 84 l 1
 480.494140625 84 l 1
 465.682617188 0 l 1
 11.6826171875 0 l 1
EndSplineSet
Validated: 1
EndChar

StartChar: Ecircumflex
Encoding: 202 202 27
Width: 603
GlyphClass: 2
Flags: HMW
HStem: 0 84<178 546 178 546> 315 82<178 526 178 526> 626 84<178 538 178 178> 778 133<180 364 180 364 270 384 270 454>
VStem: 92 86<84 315 397 626>
AnchorPoint: "Anchor-3" 361.875 710 basechar 0
AnchorPoint: "Anchor-2" 465.683 0 basechar 0
AnchorPoint: "Anchor-0" 238.683 0 basechar 0
LayerCount: 2
Fore
SplineSet
236.865234375 778 m 1
 350.317382812 911 l 1
 444.317382812 911 l 1
 510.865234375 778 l 1
 440.865234375 778 l 1
 389.55859375 867 l 1
 306.865234375 778 l 1
 236.865234375 778 l 1
11.6826171875 0 m 1
 136.875 710 l 1
 582.875 710 l 1
 568.063476562 626 l 1
 208.063476562 626 l 1
 167.684570312 397 l 1
 515.684570312 397 l 1
 501.225585938 315 l 1
 153.225585938 315 l 1
 112.494140625 84 l 1
 480.494140625 84 l 1
 465.682617188 0 l 1
 11.6826171875 0 l 1
EndSplineSet
Validated: 1
EndChar

StartChar: Edieresis
Encoding: 203 203 28
Width: 603
GlyphClass: 2
Flags: HMW
HStem: 0 84<178 546 178 546> 315 82<178 526 178 526> 626 84<178 538 178 178> 793 98<186 274 186 274 360 448 186 360>
VStem: 92 86<84 315 397 626> 186 88<793 891 793 891> 360 88<793 891 793 891>
AnchorPoint: "Anchor-3" 363.639 710 basechar 0
AnchorPoint: "Anchor-2" 467.446 0 basechar 0
AnchorPoint: "Anchor-0" 240.446 0 basechar 0
LayerCount: 2
Fore
SplineSet
247.2734375 793 m 1
 264.553710938 891 l 1
 352.553710938 891 l 1
 335.2734375 793 l 1
 247.2734375 793 l 1
421.2734375 793 m 1
 438.553710938 891 l 1
 526.553710938 891 l 1
 509.2734375 793 l 1
 421.2734375 793 l 1
13.4462890625 0 m 1xfa
 138.638671875 710 l 1
 584.638671875 710 l 1
 569.827148438 626 l 1
 209.827148438 626 l 1
 169.448242188 397 l 1
 517.448242188 397 l 1
 502.989257812 315 l 1
 154.989257812 315 l 1
 114.2578125 84 l 1
 482.2578125 84 l 1
 467.446289062 0 l 1
 13.4462890625 0 l 1xfa
EndSplineSet
Validated: 1
Substitution2: "'ss08' Style Set 8 in Latin lookup 41 subtable" Edieresis.ss08
Substitution2: "'aalt' Access All Alternates in Latin lookup 0 subtable" Edieresis.ss08
EndChar

StartChar: Edotaccent
Encoding: 278 278 29
Width: 603
GlyphClass: 2
Flags: HMW
HStem: 0 84<178 546 178 546> 315 82<178 526 178 526> 626 84<178 538 178 178> 793 98<273 361 273 361>
VStem: 92 86<84 315 397 626> 273 88<793 891 793 891>
AnchorPoint: "Anchor-3" 363.639 710 basechar 0
AnchorPoint: "Anchor-2" 467.446 0 basechar 0
AnchorPoint: "Anchor-0" 240.446 0 basechar 0
LayerCount: 2
Fore
SplineSet
334.2734375 793 m 1
 351.553710938 891 l 1
 439.553710938 891 l 1
 422.2734375 793 l 1
 334.2734375 793 l 1
13.4462890625 0 m 1
 138.638671875 710 l 1
 584.638671875 710 l 1
 569.827148438 626 l 1
 209.827148438 626 l 1
 169.448242188 397 l 1
 517.448242188 397 l 1
 502.989257812 315 l 1
 154.989257812 315 l 1
 114.2578125 84 l 1
 482.2578125 84 l 1
 467.446289062 0 l 1
 13.4462890625 0 l 1
EndSplineSet
Validated: 1
Substitution2: "'ss08' Style Set 8 in Latin lookup 41 subtable" Edotaccent.ss08
Substitution2: "'aalt' Access All Alternates in Latin lookup 0 subtable" Edotaccent.ss08
EndChar

StartChar: Egrave
Encoding: 200 200 30
Width: 603
GlyphClass: 2
Flags: HMW
HStem: 0 84<178 546 178 546> 315 82<178 526 178 526> 626 84<178 538 178 178> 783 128<286 286 286 290 196 356>
VStem: 92 86<84 315 397 626>
AnchorPoint: "Anchor-3" 361.875 710 basechar 0
AnchorPoint: "Anchor-2" 465.683 0 basechar 0
AnchorPoint: "Anchor-0" 238.683 0 basechar 0
LayerCount: 2
Fore
SplineSet
343.747070312 783 m 1
 276.317382812 911 l 1
 370.317382812 911 l 1
 413.747070312 783 l 1
 343.747070312 783 l 1
11.6826171875 0 m 1
 136.875 710 l 1
 582.875 710 l 1
 568.063476562 626 l 1
 208.063476562 626 l 1
 167.684570312 397 l 1
 515.684570312 397 l 1
 501.225585938 315 l 1
 153.225585938 315 l 1
 112.494140625 84 l 1
 480.494140625 84 l 1
 465.682617188 0 l 1
 11.6826171875 0 l 1
EndSplineSet
Validated: 1
EndChar

StartChar: Emacron
Encoding: 274 274 31
Width: 603
GlyphClass: 2
Flags: HMW
HStem: 0 84<178 546 178 546> 315 82<178 526 178 526> 626 84<178 538 178 178> 805 72<183 451 183 451>
VStem: 92 86<84 315 397 626> 183 268<805 877 805 877>
AnchorPoint: "Anchor-3" 364.873 710 basechar 0
AnchorPoint: "Anchor-2" 468.681 0 basechar 0
AnchorPoint: "Anchor-0" 241.681 0 basechar 0
LayerCount: 2
Fore
SplineSet
247.624023438 805 m 1
 260.319335938 877 l 1
 528.319335938 877 l 1
 515.624023438 805 l 1
 247.624023438 805 l 1
14.6806640625 0 m 1xf8
 139.873046875 710 l 1
 585.873046875 710 l 1
 571.061523438 626 l 1
 211.061523438 626 l 1
 170.682617188 397 l 1
 518.682617188 397 l 1
 504.223632812 315 l 1
 156.223632812 315 l 1
 115.4921875 84 l 1
 483.4921875 84 l 1
 468.680664062 0 l 1
 14.6806640625 0 l 1xf8
EndSplineSet
Validated: 1
EndChar

StartChar: Eogonek
Encoding: 280 280 32
Width: 603
GlyphClass: 2
Flags: HMW
HStem: -210 68<500.5 512.5> 0 84<178 476 178 546> 315 82<178 526 178 526> 626 84<178 538 178 178>
VStem: 92 86<84 315 397 626> 402 78<-124 -121>
AnchorPoint: "Anchor-3" 398.11 710 basechar 0
AnchorPoint: "Anchor-2" 501.918 0 basechar 0
AnchorPoint: "Anchor-0" 274.918 0 basechar 0
LayerCount: 2
Fore
SplineSet
47.91796875 0 m 1
 173.110351562 710 l 1
 619.110351562 710 l 1
 604.298828125 626 l 1
 244.298828125 626 l 1
 203.919921875 397 l 1
 551.919921875 397 l 1
 537.4609375 315 l 1
 189.4609375 315 l 1
 148.729492188 84 l 1
 516.729492188 84 l 1
 501.91796875 0 l 1
 458.454101562 -48 l 2
 427.283203125 -83 418.28515625 -100 415.463867188 -116 c 0
 415.150895347 -117.775529996 414.998709241 -119.477173115 414.998709241 -121.099463175 c 0
 414.998709241 -134.0962677 424.766383434 -142 439.879882812 -142 c 0
 458.879882812 -142 475.76171875 -137 490.348632812 -128 c 1
 504.473632812 -184 l 1
 486.829101562 -199 448.889648438 -210 413.889648438 -210 c 0
 362.798888102 -210 331.979219971 -190.718258233 331.979219971 -153.595006934 c 0
 331.979219971 -149.30127187 332.391513421 -144.76886008 333.232421875 -140 c 0
 339.932617188 -102 377.514648438 -59 411.0390625 -22 c 2
 431.91796875 0 l 1
 47.91796875 0 l 1
EndSplineSet
Validated: 1
EndChar

StartChar: uni1EBC
Encoding: 7868 7868 33
Width: 603
GlyphClass: 2
Flags: HMW
HStem: 0 84<178 546 178 546> 315 82<178 526 178 526> 626 84<178 538 178 178> 790 56<372 392.5 372 404.5> 844 56<242 264>
VStem: 92 86<84 315 397 626> 159 52<783 783> 422 52<910 910>
AnchorPoint: "Anchor-3" 361.964 710 basechar 0
AnchorPoint: "Anchor-2" 465.771 0 basechar 0
AnchorPoint: "Anchor-0" 238.771 0 basechar 0
LayerCount: 2
Fore
SplineSet
435.069335938 790 m 0xf5
 409.069335938 790 388.833007812 800 370.006835938 818 c 0
 350.356445312 837 342.590820312 844 322.590820312 844 c 0
 298.590820312 844 279.298828125 831 268.834960938 783 c 1
 216.834960938 783 l 1
 232.412109375 860 278.465820312 900 332.465820312 900 c 0xea
 364.465820312 900 383.526367188 889 403.17578125 870 c 0
 421.177734375 853 432.944335938 846 448.944335938 846 c 0
 473.944335938 846 489.412109375 860 502.228515625 910 c 1
 554.228515625 910 l 1
 536.828125 834 492.069335938 790 435.069335938 790 c 0xf5
11.771484375 0 m 1xe4
 136.963867188 710 l 1
 582.963867188 710 l 1
 568.15234375 626 l 1
 208.15234375 626 l 1
 167.7734375 397 l 1
 515.7734375 397 l 1
 501.314453125 315 l 1
 153.314453125 315 l 1
 112.583007812 84 l 1
 480.583007812 84 l 1
 465.771484375 0 l 1
 11.771484375 0 l 1xe4
EndSplineSet
Validated: 1
EndChar

StartChar: uni018F
Encoding: 399 399 34
Width: 713
GlyphClass: 1
Flags: HMW
HStem: -16 84<290 408 290 442> 306 84<137 577 137 137> 642 84<306 408>
VStem: 45 92<306 390 306 390> 577 91<306 306 390 390>
LayerCount: 2
Fore
SplineSet
668 355 m 0
 626.739257812 121 470.583007812 -16 282.583007812 -16 c 0
 147.069334471 -16 34.3137905926 74.5520496173 34.3137905926 253.034131572 c 0
 34.3137905926 280.016222334 36.8907041793 309.007864798 42.35546875 340 c 2
 51.171875 390 l 1
 583.171875 390 l 1
 585.21311788 406.118759759 586.198466895 421.535887283 586.198466895 436.230309081 c 0
 586.198466895 568.30908478 506.591486321 642 398.60546875 642 c 0
 314.60546875 642 237.318359375 595 183.744140625 501 c 1
 94.3310546875 510 l 1
 158.782226562 643 279.416992188 726 413.416992188 726 c 0
 580.549846518 726 676.738618887 620.566282421 676.738618887 449.381185136 c 0
 676.738618887 419.814137056 673.869104483 388.285586333 668 355 c 0
297.39453125 68 m 0
 417.39453125 68 528.852539062 150 568.360351562 306 c 1
 128.360351562 306 l 1
 127.768333932 296.040664366 127.474696009 286.374092504 127.474696009 277.004071081 c 0
 127.474696009 141.486586744 188.896368481 68 297.39453125 68 c 0
EndSplineSet
Validated: 1
EndChar

StartChar: F
Encoding: 70 70 35
Width: 590
GlyphClass: 1
Flags: HMW
HStem: 0 21G<92 92 92 178> 306 82<178 520 178 520> 626 84<178 538 178 178>
VStem: 92 86<0 306 388 626>
LayerCount: 2
Fore
SplineSet
29.404296875 0 m 1
 154.595703125 710 l 1
 600.595703125 710 l 1
 585.784179688 626 l 1
 225.784179688 626 l 1
 183.818359375 388 l 1
 525.818359375 388 l 1
 511.360351562 306 l 1
 169.360351562 306 l 1
 115.404296875 0 l 1
 29.404296875 0 l 1
EndSplineSet
Validated: 1
EndChar

StartChar: G
Encoding: 71 71 36
Width: 700
GlyphClass: 2
Flags: HMW
HStem: -16 84<284.5 410.5> 0 21G<586 650 586 586> 277 82<366 570 366 650> 642 84<283 424.5>
VStem: 45 90<273 431 273 460.5> 570 80<277 277> 584 66
AnchorPoint: "Anchor-3" 426.596 710 basechar 0
AnchorPoint: "Anchor-0" 303.404 0 basechar 0
LayerCount: 2
Fore
SplineSet
296.583007812 -16 m 0xba
 126.536202005 -16 36.3745562894 96.7720730444 36.3745562894 262.082244167 c 0
 36.3745562894 291.201095499 39.1720631327 321.950082214 44.8232421875 354 c 0
 82.380859375 567 229.416992188 726 429.416992188 726 c 0
 599.416992188 726 669.431640625 624 672.157226562 492 c 1
 581.098632812 486 l 1
 579.321289062 578 535.60546875 642 414.60546875 642 c 0
 252.60546875 642 161.978515625 508 134.823242188 354 c 0
 129.708285217 324.991111731 127.052725091 297.20069598 127.052725091 271.122547718 c 0
 127.052725091 151.567399754 182.866217884 68 313.39453125 68 c 0
 439.39453125 68 534.321289062 164 556.24609375 277 c 1xbc
 352.24609375 277 l 1
 366.705078125 359 l 1
 650.705078125 359 l 1
 587.404296875 0 l 1
 523.404296875 0 l 1x7a
 540.38671875 119 l 1
 491.280273438 39 393.583007812 -16 296.583007812 -16 c 0xba
EndSplineSet
Validated: 1
Substitution2: "'ss06' Style Set 6 in Latin lookup 39 subtable" G.ss06
Substitution2: "'aalt' Access All Alternates in Latin lookup 0 subtable" G.ss06
EndChar

StartChar: Gbreve
Encoding: 286 286 37
Width: 700
GlyphClass: 2
Flags: HMW
HStem: -16 84<284.5 410.5> 0 21G<586 650 586 586> 277 82<366 570 366 650> 642 84<283 424.5> 783 62<341 387 341 405>
VStem: 45 90<273 431 273 460.5> 570 80<277 277> 584 66
AnchorPoint: "Anchor-3" 410.286 710 basechar 0
AnchorPoint: "Anchor-0" 287.094 0 basechar 0
LayerCount: 2
Fore
SplineSet
423.157226562 783 m 0xbd
 348.546407992 783 304.415753343 824.39481148 304.415753343 890.611991288 c 0
 304.415753343 897.169897563 304.848595368 903.971266445 305.727539062 911 c 1
 363.727539062 911 l 1
 363.649104437 909.291126465 363.610119338 907.618135003 363.610119338 905.980718 c 0
 363.610119338 863.541624608 389.798717285 845 434.08984375 845 c 0
 480.08984375 845 512.616210938 865 526.727539062 911 c 1
 584.727539062 911 l 1
 566.973632812 833 505.157226562 783 423.157226562 783 c 0xbd
280.272460938 -16 m 0
 110.226221147 -16 20.0646096384 96.7713223007 20.0646096384 262.080593418 c 0
 20.0646096384 291.19993339 22.862239773 321.949476576 28.513671875 354 c 0
 66.0712890625 567 213.107421875 726 413.107421875 726 c 0
 583.107421875 726 653.122070312 624 655.846679688 492 c 1
 564.7890625 486 l 1
 563.010742188 578 519.295898438 642 398.295898438 642 c 0
 236.295898438 642 145.66796875 508 118.513671875 354 c 0
 113.398426534 324.990468049 110.742718497 297.199462689 110.742718497 271.120811765 c 0
 110.742718497 151.566590816 166.556302772 68 297.083984375 68 c 0
 423.083984375 68 518.01171875 164 539.936523438 277 c 1xbe
 335.936523438 277 l 1
 350.395507812 359 l 1
 634.395507812 359 l 1
 571.09375 0 l 1
 507.09375 0 l 1x7d
 524.076171875 119 l 1
 474.970703125 39 377.272460938 -16 280.272460938 -16 c 0
EndSplineSet
Validated: 1
Substitution2: "'ss06' Style Set 6 in Latin lookup 39 subtable" Gbreve.ss06
Substitution2: "'aalt' Access All Alternates in Latin lookup 0 subtable" Gbreve.ss06
EndChar

StartChar: Gcaron
Encoding: 486 486 38
Width: 700
GlyphClass: 2
Flags: HMW
HStem: -16 84<284.5 410.5> 0 21G<586 650 586 586> 277 82<366 570 366 650> 642 84<283 424.5> 778 133<227 411 227 317>
VStem: 45 90<273 431 273 460.5> 570 80<277 277> 584 66
AnchorPoint: "Anchor-3" 410.286 710 basechar 0
AnchorPoint: "Anchor-0" 287.094 0 basechar 0
LayerCount: 2
Fore
SplineSet
308.727539062 911 m 1xbd
 378.727539062 911 l 1
 430.034179688 822 l 1
 512.727539062 911 l 1
 582.727539062 911 l 1
 469.276367188 778 l 1
 375.276367188 778 l 1
 308.727539062 911 l 1xbd
280.272460938 -16 m 0
 110.226221147 -16 20.0646096384 96.7713223007 20.0646096384 262.080593418 c 0
 20.0646096384 291.19993339 22.862239773 321.949476576 28.513671875 354 c 0
 66.0712890625 567 213.107421875 726 413.107421875 726 c 0
 583.107421875 726 653.122070312 624 655.846679688 492 c 1
 564.7890625 486 l 1
 563.010742188 578 519.295898438 642 398.295898438 642 c 0
 236.295898438 642 145.66796875 508 118.513671875 354 c 0
 113.398426534 324.990468049 110.742718497 297.199462689 110.742718497 271.120811765 c 0
 110.742718497 151.566590816 166.556302772 68 297.083984375 68 c 0
 423.083984375 68 518.01171875 164 539.936523438 277 c 1xbe
 335.936523438 277 l 1
 350.395507812 359 l 1
 634.395507812 359 l 1
 571.09375 0 l 1
 507.09375 0 l 1x7d
 524.076171875 119 l 1
 474.970703125 39 377.272460938 -16 280.272460938 -16 c 0
EndSplineSet
Validated: 1
EndChar

StartChar: Gcircumflex
Encoding: 284 284 39
Width: 700
GlyphClass: 2
Flags: HMW
HStem: -16 84<284.5 410.5> 0 21G<586 650 586 586> 277 82<366 570 366 650> 642 84<283 424.5> 778 133<227 411 227 411 317 431 317 501>
VStem: 45 90<273 431 273 460.5> 570 80<277 277> 584 66
AnchorPoint: "Anchor-3" 410.286 710 basechar 0
AnchorPoint: "Anchor-0" 287.094 0 basechar 0
LayerCount: 2
Fore
SplineSet
285.276367188 778 m 1xbd
 398.727539062 911 l 1
 492.727539062 911 l 1
 559.276367188 778 l 1
 489.276367188 778 l 1
 437.96875 867 l 1
 355.276367188 778 l 1
 285.276367188 778 l 1xbd
280.272460938 -16 m 0
 110.226221147 -16 20.0646096384 96.7713223007 20.0646096384 262.080593418 c 0
 20.0646096384 291.19993339 22.862239773 321.949476576 28.513671875 354 c 0
 66.0712890625 567 213.107421875 726 413.107421875 726 c 0
 583.107421875 726 653.122070312 624 655.846679688 492 c 1
 564.7890625 486 l 1
 563.010742188 578 519.295898438 642 398.295898438 642 c 0
 236.295898438 642 145.66796875 508 118.513671875 354 c 0
 113.398426534 324.990468049 110.742718497 297.199462689 110.742718497 271.120811765 c 0
 110.742718497 151.566590816 166.556302772 68 297.083984375 68 c 0
 423.083984375 68 518.01171875 164 539.936523438 277 c 1xbe
 335.936523438 277 l 1
 350.395507812 359 l 1
 634.395507812 359 l 1
 571.09375 0 l 1
 507.09375 0 l 1x7d
 524.076171875 119 l 1
 474.970703125 39 377.272460938 -16 280.272460938 -16 c 0
EndSplineSet
Validated: 1
Substitution2: "'ss06' Style Set 6 in Latin lookup 39 subtable" Gcircumflex.ss06
Substitution2: "'aalt' Access All Alternates in Latin lookup 0 subtable" Gcircumflex.ss06
EndChar

StartChar: uni0122
Encoding: 290 290 40
Width: 700
GlyphClass: 2
Flags: HMW
HStem: -143 90<316 352 316 416> -16 84<284.5 410.5> 0 21G<586 650 586 586> 277 82<366 570 366 650> 642 84<283 424.5>
VStem: 45 90<273 431 273 460.5> 316 100<-135 -53 -135 -53 -135 -53> 570 80<277 277> 584 66
AnchorPoint: "Anchor-3" 446.345 710 basechar 0
AnchorPoint: "Anchor-0" 280.834 -240 basechar 0
LayerCount: 2
Fore
SplineSet
316.331054688 -16 m 0xde80
 146.284814897 -16 56.1232033884 96.7713223007 56.1232033884 262.080593418 c 0
 56.1232033884 291.19993339 58.920833523 321.949476576 64.572265625 354 c 0
 102.129882812 567 249.166015625 726 449.166015625 726 c 0
 619.166015625 726 689.180664062 624 691.905273438 492 c 1
 600.84765625 486 l 1
 599.069335938 578 555.354492188 642 434.354492188 642 c 0
 272.354492188 642 181.7265625 508 154.572265625 354 c 0
 149.457020284 324.990468049 146.801312247 297.199462689 146.801312247 271.120811765 c 0
 146.801312247 151.566590816 202.614896522 68 333.142578125 68 c 0
 459.142578125 68 554.0703125 164 575.995117188 277 c 1xdf
 371.995117188 277 l 1
 386.454101562 359 l 1
 670.454101562 359 l 1
 607.15234375 0 l 1
 543.15234375 0 l 1xbe80
 560.135742188 119 l 1
 511.029296875 39 413.331054688 -16 316.331054688 -16 c 0xde80
211.833984375 -240 m 1
 283.9375 -143 l 1
 247.9375 -143 l 1
 263.807617188 -53 l 1
 363.807617188 -53 l 1
 349.348632812 -135 l 1
 269.833984375 -240 l 1
 211.833984375 -240 l 1
EndSplineSet
Validated: 1
Substitution2: "'ss06' Style Set 6 in Latin lookup 39 subtable" uni0122.ss06
Substitution2: "'aalt' Access All Alternates in Latin lookup 0 subtable" uni0122.ss06
EndChar

StartChar: Gdotaccent
Encoding: 288 288 41
Width: 700
GlyphClass: 2
Flags: HMW
HStem: -16 84<284.5 410.5> 0 21G<586 650 586 586> 277 82<366 570 366 650> 642 84<283 424.5> 793 98<320 408 320 408>
VStem: 45 90<273 431 273 460.5> 320 88<793 891 793 891> 570 80<277 277> 584 66
AnchorPoint: "Anchor-3" 412.049 710 basechar 0
AnchorPoint: "Anchor-0" 288.857 0 basechar 0
LayerCount: 2
Fore
SplineSet
382.684570312 793 m 1xbe80
 399.963867188 891 l 1
 487.963867188 891 l 1
 470.684570312 793 l 1
 382.684570312 793 l 1xbe80
282.036132812 -16 m 0
 111.989327005 -16 21.8276812894 96.7720730444 21.8276812894 262.082244167 c 0
 21.8276812894 291.201095499 24.6251881327 321.950082214 30.2763671875 354 c 0
 67.833984375 567 214.870117188 726 414.870117188 726 c 0
 584.870117188 726 654.884765625 624 657.609375 492 c 1
 566.551757812 486 l 1
 564.774414062 578 521.05859375 642 400.05859375 642 c 0
 238.05859375 642 147.430664062 508 120.276367188 354 c 0
 115.161410217 324.991111731 112.505850091 297.20069598 112.505850091 271.122547718 c 0
 112.505850091 151.567399754 168.319342884 68 298.84765625 68 c 0
 424.84765625 68 519.774414062 164 541.69921875 277 c 1xbf
 337.69921875 277 l 1
 352.158203125 359 l 1
 636.158203125 359 l 1
 572.857421875 0 l 1
 508.857421875 0 l 1x7e80
 525.83984375 119 l 1
 476.733398438 39 379.036132812 -16 282.036132812 -16 c 0
EndSplineSet
Validated: 1
Substitution2: "'ss08' Style Set 8 in Latin lookup 41 subtable" Gdotaccent.ss08
Substitution2: "'ss06' Style Set 6 in Latin lookup 39 subtable" Gdotaccent.ss06
AlternateSubs2: "'aalt' Access All Alternates in Latin lookup 1 subtable" Gdotaccent.ss06 Gdotaccent.ss08
EndChar

StartChar: uni1E20
Encoding: 7712 7712 42
Width: 700
GlyphClass: 2
Flags: HMW
HStem: -16 84<284.5 410.5> 0 21G<586 650 586 586> 277 82<366 570 366 650> 642 84<283 424.5> 805 72<230 498 230 498>
VStem: 45 90<273 431 273 460.5> 230 268<805 877 805 877> 570 80<277 277> 584 66
AnchorPoint: "Anchor-3" 413.283 710 basechar 0
AnchorPoint: "Anchor-0" 290.091 0 basechar 0
LayerCount: 2
Fore
SplineSet
296.034179688 805 m 1xbe80
 308.73046875 877 l 1
 576.73046875 877 l 1
 564.034179688 805 l 1
 296.034179688 805 l 1xbe80
283.26953125 -16 m 0
 113.222924849 -16 23.0619971376 96.7718085588 23.0619971376 262.081662612 c 0
 23.0619971376 291.20068609 25.8595255113 321.949868849 31.5107421875 354 c 0
 69.068359375 567 216.104492188 726 416.104492188 726 c 0
 586.104492188 726 656.119140625 624 658.84375 492 c 1
 567.786132812 486 l 1
 566.0078125 578 522.29296875 642 401.29296875 642 c 0
 239.29296875 642 148.665039062 508 121.510742188 354 c 0
 116.395735703 324.990830918 113.740142364 297.200157943 113.740142364 271.121790389 c 0
 113.740142364 151.567046846 169.553016935 68 300.081054688 68 c 0
 426.081054688 68 521.008789062 164 542.93359375 277 c 1xbd
 338.93359375 277 l 1
 353.392578125 359 l 1
 637.392578125 359 l 1
 574.090820312 0 l 1
 510.090820312 0 l 1x7c80
 527.07421875 119 l 1
 477.967773438 39 380.26953125 -16 283.26953125 -16 c 0
EndSplineSet
Validated: 1
Substitution2: "'ss06' Style Set 6 in Latin lookup 39 subtable" uni1E20.ss06
Substitution2: "'aalt' Access All Alternates in Latin lookup 0 subtable" uni1E20.ss06
EndChar

StartChar: uni01E4
Encoding: 484 484 43
Width: 744
GlyphClass: 2
Flags: HMW
HStem: -16 84<283.5 401 283.5 426.5> 149 70<366 531 366 562 366 622 642 704> 277 82<366 570 366 650> 642 84<283.5 426.5>
VStem: 45 90<272.5 431 272.5 457.5> 570 80<277 315>
AnchorPoint: "Anchor-3" 427.596 710 basechar 0
AnchorPoint: "Anchor-0" 304.404 0 basechar 0
LayerCount: 2
Fore
SplineSet
296.583007812 -16 m 0
 122.068124157 -16 36.4859177737 101.699427779 36.4859177737 262.92361967 c 0
 36.4859177737 292.010894823 39.2715843899 322.514883655 44.8232421875 354 c 0
 81.3232421875 561 226.416992188 726 431.416992188 726 c 0
 592.416992188 726 668.842773438 632 672.157226562 492 c 1
 581.098632812 486 l 1
 579.615234375 574 537.60546875 642 416.60546875 642 c 0
 251.60546875 642 161.978515625 508 134.823242188 354 c 0
 129.653829058 324.682712641 126.977092422 296.659419544 126.977092422 270.413053427 c 0
 126.977092422 150.733310327 182.632654657 68 311.39453125 68 c 0
 389.39453125 68 451.860351562 99 494.676757812 149 c 1
 329.676757812 149 l 1
 342.01953125 219 l 1
 538.01953125 219 l 1
 546.193359375 237 551.719726562 257 556.24609375 277 c 1
 352.24609375 277 l 1
 366.705078125 359 l 1
 650.705078125 359 l 1
 642.947265625 315 l 2
 636.952148438 281 628.309570312 249 618.01953125 219 c 1
 680.01953125 219 l 1
 667.676757812 149 l 1
 585.676757812 149 l 1
 524.986328125 43 425.583007812 -16 296.583007812 -16 c 0
EndSplineSet
Validated: 1
EndChar

StartChar: H
Encoding: 72 72 44
Width: 713
GlyphClass: 2
Flags: HMW
HStem: 0 21G<92 92 92 178 535 535 535 621> 315 84<178 535 178 535> 690 20G<92 178 178 178 535 621 621 621>
VStem: 92 86<0 315 399 710> 535 86<0 315 315 315 399 710 0 710>
AnchorPoint: "Anchor-3" 419.596 710 basechar 0
AnchorPoint: "Anchor-1" 394.558 568 basechar 0
AnchorPoint: "Anchor-0" 294.404 0 basechar 0
LayerCount: 2
Fore
SplineSet
29.404296875 0 m 1
 154.595703125 710 l 1
 240.595703125 710 l 1
 185.758789062 399 l 1
 542.758789062 399 l 1
 597.595703125 710 l 1
 683.595703125 710 l 1
 558.404296875 0 l 1
 472.404296875 0 l 1
 527.947265625 315 l 1
 170.947265625 315 l 1
 115.404296875 0 l 1
 29.404296875 0 l 1
EndSplineSet
Validated: 1
EndChar

StartChar: Hbar
Encoding: 294 294 45
Width: 713
GlyphClass: 2
Flags: HMW
HStem: 0 21G<92 92 92 178 535 535 535 621> 315 84<178 535 178 535> 528 80<17 92 17 92 178 535 621 697> 528 182<17 178 17 178 92 178 92 535>
VStem: 92 86<0 315 399 528 608 710> 535 86<0 315 315 315 399 528 0 528 608 710>
AnchorPoint: "Anchor-3" 419.596 710 basechar 0
AnchorPoint: "Anchor-1" 394.558 568 basechar 0
AnchorPoint: "Anchor-0" 294.404 0 basechar 0
LayerCount: 2
Fore
SplineSet
29.404296875 0 m 1xdc
 122.504882812 528 l 1
 47.5048828125 528 l 1xdc
 61.6103515625 608 l 1
 136.610351562 608 l 1xec
 154.595703125 710 l 1
 240.595703125 710 l 1xdc
 222.610351562 608 l 1
 579.610351562 608 l 1xec
 597.595703125 710 l 1
 683.595703125 710 l 1xdc
 665.610351562 608 l 1
 741.610351562 608 l 1xec
 727.504882812 528 l 1
 651.504882812 528 l 1
 558.404296875 0 l 1
 472.404296875 0 l 1
 527.947265625 315 l 1
 170.947265625 315 l 1
 115.404296875 0 l 1
 29.404296875 0 l 1xdc
185.758789062 399 m 1
 542.758789062 399 l 1
 565.504882812 528 l 1
 208.504882812 528 l 1
 185.758789062 399 l 1
EndSplineSet
Validated: 1
EndChar

StartChar: Hcircumflex
Encoding: 292 292 46
Width: 713
GlyphClass: 2
Flags: HMW
HStem: 0 21G<92 92 92 178 535 535 535 621> 315 84<178 535 178 535> 690 20G<92 178 178 178 535 621 621 621> 778 133<220 404 220 404 310 424 310 494>
VStem: 92 86<0 315 399 710> 535 86<0 315 315 315 399 710 0 710>
AnchorPoint: "Anchor-3" 401.875 710 basechar 0
AnchorPoint: "Anchor-1" 376.837 568 basechar 0
AnchorPoint: "Anchor-0" 276.683 0 basechar 0
LayerCount: 2
Fore
SplineSet
276.865234375 778 m 1
 390.317382812 911 l 1
 484.317382812 911 l 1
 550.865234375 778 l 1
 480.865234375 778 l 1
 429.55859375 867 l 1
 346.865234375 778 l 1
 276.865234375 778 l 1
11.6826171875 0 m 1
 136.875 710 l 1
 222.875 710 l 1
 168.037109375 399 l 1
 525.037109375 399 l 1
 579.875 710 l 1
 665.875 710 l 1
 540.682617188 0 l 1
 454.682617188 0 l 1
 510.225585938 315 l 1
 153.225585938 315 l 1
 97.6826171875 0 l 1
 11.6826171875 0 l 1
EndSplineSet
Validated: 1
EndChar

StartChar: I
Encoding: 73 73 47
Width: 270
GlyphClass: 2
Flags: HMW
HStem: 0 21G<92 92 92 178> 690 20G<92 178 178 178>
VStem: 92 86<0 710 0 710>
AnchorPoint: "Anchor-3" 197.596 710 basechar 0
AnchorPoint: "Anchor-2" 115.404 0 basechar 0
AnchorPoint: "Anchor-0" 72.4043 0 basechar 0
LayerCount: 2
Fore
SplineSet
29.404296875 0 m 1
 154.595703125 710 l 1
 240.595703125 710 l 1
 115.404296875 0 l 1
 29.404296875 0 l 1
EndSplineSet
Validated: 1
Substitution2: "'ss05' Style Set 5 in Latin lookup 38 subtable" I.ss05
Substitution2: "'aalt' Access All Alternates in Latin lookup 0 subtable" I.ss05
EndChar

StartChar: IJ
Encoding: 306 306 48
Width: 847
GlyphClass: 2
Flags: HMW
HStem: -16 84<499.5 588 499.5 612.5> 0 21G<92 92 92 178> 690 20G<92 178 178 178 684 770 770 770>
VStem: 92 86<0 710 0 710> 317 88<232 238> 684 86<248 710>
AnchorPoint: "Anchor-3" 792.007 710 basechar 0
AnchorPoint: "Anchor-2" 116.814 0 basechar 0
AnchorPoint: "Anchor-0" 73.8145 0 basechar 0
LayerCount: 2
Fore
SplineSet
30.814453125 0 m 1x7c
 156.006835938 710 l 1
 242.006835938 710 l 1
 116.814453125 0 l 1
 30.814453125 0 l 1x7c
478.993164062 -16 m 0
 363.823853496 -16 292.034478596 61.6472078641 292.034478596 178.418942886 c 0
 292.034478596 195.483808492 293.567649082 213.384237445 296.72265625 232 c 1
 385.780273438 238 l 1
 382.852111775 220.48219477 381.408180231 204.204178111 381.408180231 189.219913873 c 0
 381.408180231 110.968479889 420.786788922 68 493.8046875 68 c 0
 583.8046875 68 646.265625 133 666.543945312 248 c 2
 748.006835938 710 l 1
 834.006835938 710 l 1
 752.543945312 248 l 2xbc
 723.978515625 86 617.993164062 -16 478.993164062 -16 c 0
EndSplineSet
Validated: 1
EndChar

StartChar: Iacute
Encoding: 205 205 49
Width: 270
GlyphClass: 2
Flags: HMW
HStem: 0 21G<92 92 92 178> 690 20G<92 178 178 178> 778 128<98 258 164 168>
VStem: 92 86<0 710 0 710>
AnchorPoint: "Anchor-3" 180.316 710 basechar 0
AnchorPoint: "Anchor-2" 98.124 0 basechar 0
AnchorPoint: "Anchor-0" 55.124 0 basechar 0
LayerCount: 2
Fore
SplineSet
155.306640625 778 m 1
 243.875976562 906 l 1
 337.875976562 906 l 1
 225.306640625 778 l 1
 155.306640625 778 l 1
12.1240234375 0 m 1
 137.31640625 710 l 1
 223.31640625 710 l 1
 98.1240234375 0 l 1
 12.1240234375 0 l 1
EndSplineSet
Validated: 1
Substitution2: "'ss05' Style Set 5 in Latin lookup 38 subtable" Iacute.ss05
Substitution2: "'aalt' Access All Alternates in Latin lookup 0 subtable" Iacute.ss05
EndChar

StartChar: Icircumflex
Encoding: 206 206 50
Width: 270
GlyphClass: 2
Flags: HMW
HStem: 0 21G<92 92 92 178> 690 20G<92 178 178 178> 778 133<-2 182 -2 182 88 202 88 272>
VStem: 92 86<0 710 0 710>
AnchorPoint: "Anchor-3" 179.875 710 basechar 0
AnchorPoint: "Anchor-2" 97.6826 0 basechar 0
AnchorPoint: "Anchor-0" 54.6826 0 basechar 0
LayerCount: 2
Fore
SplineSet
54.865234375 778 m 1
 168.317382812 911 l 1
 262.317382812 911 l 1
 328.865234375 778 l 1
 258.865234375 778 l 1
 207.55859375 867 l 1
 124.865234375 778 l 1
 54.865234375 778 l 1
11.6826171875 0 m 1
 136.875 710 l 1
 222.875 710 l 1
 97.6826171875 0 l 1
 11.6826171875 0 l 1
EndSplineSet
Validated: 1
Substitution2: "'ss05' Style Set 5 in Latin lookup 38 subtable" Icircumflex.ss05
Substitution2: "'aalt' Access All Alternates in Latin lookup 0 subtable" Icircumflex.ss05
EndChar

StartChar: Idieresis
Encoding: 207 207 51
Width: 270
GlyphClass: 2
Flags: HMW
HStem: 0 21G<92 92 92 178> 690 20G<92 178 178 178> 793 98<4 92 4 92 178 266 4 178>
VStem: 4 88<793 891> 92 86<0 710 0 710 793 891 0 793> 178 88<0 891 793 891 793 891>
AnchorPoint: "Anchor-3" 181.639 710 basechar 0
AnchorPoint: "Anchor-2" 99.4463 0 basechar 0
AnchorPoint: "Anchor-0" 56.4463 0 basechar 0
LayerCount: 2
Fore
SplineSet
65.2734375 793 m 1xf4
 82.5537109375 891 l 1
 170.553710938 891 l 1
 153.2734375 793 l 1
 65.2734375 793 l 1xf4
239.2734375 793 m 1
 256.553710938 891 l 1
 344.553710938 891 l 1
 327.2734375 793 l 1
 239.2734375 793 l 1
13.4462890625 0 m 1xe8
 138.638671875 710 l 1
 224.638671875 710 l 1
 99.4462890625 0 l 1
 13.4462890625 0 l 1xe8
EndSplineSet
Validated: 1
Substitution2: "'ss08' Style Set 8 in Latin lookup 41 subtable" Idieresis.ss08
Substitution2: "'ss05' Style Set 5 in Latin lookup 38 subtable" Idieresis.ss05
AlternateSubs2: "'aalt' Access All Alternates in Latin lookup 1 subtable" Idieresis.ss05 Idieresis.ss08
EndChar

StartChar: Idotaccent
Encoding: 304 304 52
Width: 270
GlyphClass: 2
Flags: HMW
HStem: 0 21G<92 92 92 178> 690 20G<92 178 178 178> 793 98<91 179 91 179>
VStem: 91 88<793 891 793 891> 92 86<0 710 0 710>
AnchorPoint: "Anchor-3" 181.639 710 basechar 0
AnchorPoint: "Anchor-2" 99.4463 0 basechar 0
AnchorPoint: "Anchor-0" 56.4463 0 basechar 0
LayerCount: 2
Fore
SplineSet
152.2734375 793 m 1xf0
 169.553710938 891 l 1
 257.553710938 891 l 1
 240.2734375 793 l 1
 152.2734375 793 l 1xf0
13.4462890625 0 m 1xe8
 138.638671875 710 l 1
 224.638671875 710 l 1
 99.4462890625 0 l 1
 13.4462890625 0 l 1xe8
EndSplineSet
Validated: 1
Substitution2: "'ss08' Style Set 8 in Latin lookup 41 subtable" Idotaccent.ss08
Substitution2: "'ss05' Style Set 5 in Latin lookup 38 subtable" Idotaccent.ss05
AlternateSubs2: "'aalt' Access All Alternates in Latin lookup 1 subtable" Idotaccent.ss05 Idotaccent.ss08
EndChar

StartChar: Igrave
Encoding: 204 204 53
Width: 270
GlyphClass: 2
Flags: HMW
HStem: 0 21G<92 92 92 178> 690 20G<92 178 178 178> 783 128<104 104 104 108 14 174>
VStem: 92 86<0 710 0 710>
AnchorPoint: "Anchor-3" 179.875 710 basechar 0
AnchorPoint: "Anchor-2" 97.6826 0 basechar 0
AnchorPoint: "Anchor-0" 54.6826 0 basechar 0
LayerCount: 2
Fore
SplineSet
161.747070312 783 m 1
 94.3173828125 911 l 1
 188.317382812 911 l 1
 231.747070312 783 l 1
 161.747070312 783 l 1
11.6826171875 0 m 1
 136.875 710 l 1
 222.875 710 l 1
 97.6826171875 0 l 1
 11.6826171875 0 l 1
EndSplineSet
Validated: 1
Substitution2: "'ss05' Style Set 5 in Latin lookup 38 subtable" Igrave.ss05
Substitution2: "'aalt' Access All Alternates in Latin lookup 0 subtable" Igrave.ss05
EndChar

StartChar: Imacron
Encoding: 298 298 54
Width: 270
GlyphClass: 2
Flags: HMW
HStem: 0 21G<92 92 92 178> 690 20G<92 178 178 178> 805 72<1 269 1 269>
VStem: 92 86<0 710 0 710>
AnchorPoint: "Anchor-3" 182.873 710 basechar 0
AnchorPoint: "Anchor-2" 100.681 0 basechar 0
AnchorPoint: "Anchor-0" 57.6807 0 basechar 0
LayerCount: 2
Fore
SplineSet
65.6240234375 805 m 1
 78.3193359375 877 l 1
 346.319335938 877 l 1
 333.624023438 805 l 1
 65.6240234375 805 l 1
14.6806640625 0 m 1
 139.873046875 710 l 1
 225.873046875 710 l 1
 100.680664062 0 l 1
 14.6806640625 0 l 1
EndSplineSet
Validated: 1
Substitution2: "'ss05' Style Set 5 in Latin lookup 38 subtable" Imacron.ss05
Substitution2: "'aalt' Access All Alternates in Latin lookup 0 subtable" Imacron.ss05
EndChar

StartChar: Iogonek
Encoding: 302 302 55
Width: 270
GlyphClass: 2
Flags: HMW
HStem: -210 68<132.5 144.5> 0 21G<92 92 92 108 178 178> 690 20G<92 178 178 178>
VStem: 34 78<-124 -121> 92 86<0 710 0 710>
AnchorPoint: "Anchor-3" 216.11 710 basechar 0
AnchorPoint: "Anchor-2" 133.918 0 basechar 0
AnchorPoint: "Anchor-0" 90.918 0 basechar 0
LayerCount: 2
Fore
SplineSet
47.91796875 0 m 1xe8
 173.110351562 710 l 1
 259.110351562 710 l 1
 133.91796875 0 l 1xe8
 90.4541015625 -48 l 2
 59.283203125 -83 50.28515625 -100 47.4638671875 -116 c 0
 47.1508953473 -117.775529996 46.9987092413 -119.477173115 46.9987092413 -121.099463175 c 0
 46.9987092413 -134.0962677 56.7663834336 -142 71.8798828125 -142 c 0
 90.8798828125 -142 107.76171875 -137 122.348632812 -128 c 1
 136.473632812 -184 l 1
 118.829101562 -199 80.8896484375 -210 45.8896484375 -210 c 0
 -5.20111189783 -210 -36.0207800285 -190.718258233 -36.0207800285 -153.595006934 c 0
 -36.0207800285 -149.30127187 -35.6084865792 -144.76886008 -34.767578125 -140 c 0xf0
 -28.0673828125 -102 9.5146484375 -59 43.0390625 -22 c 2
 63.91796875 0 l 1
 47.91796875 0 l 1xe8
EndSplineSet
Validated: 1
Substitution2: "'ss05' Style Set 5 in Latin lookup 38 subtable" Iogonek.ss05
Substitution2: "'aalt' Access All Alternates in Latin lookup 0 subtable" Iogonek.ss05
EndChar

StartChar: Itilde
Encoding: 296 296 56
Width: 270
GlyphClass: 2
Flags: HMW
HStem: 0 21G<92 92 92 178> 690 20G<92 178 178 178> 790 56<190 210.5 190 222.5> 844 56<60 82>
VStem: -23 52<783 783> 92 86<0 710 0 710> 240 52<910 910>
AnchorPoint: "Anchor-3" 179.964 710 basechar 0
AnchorPoint: "Anchor-2" 97.7715 0 basechar 0
AnchorPoint: "Anchor-0" 54.7715 0 basechar 0
LayerCount: 2
Fore
SplineSet
253.069335938 790 m 0xe6
 227.069335938 790 206.833007812 800 188.006835938 818 c 0
 168.356445312 837 160.590820312 844 140.590820312 844 c 0
 116.590820312 844 97.298828125 831 86.8349609375 783 c 1
 34.8349609375 783 l 1
 50.412109375 860 96.4658203125 900 150.465820312 900 c 0xdc
 182.465820312 900 201.526367188 889 221.17578125 870 c 0
 239.177734375 853 250.944335938 846 266.944335938 846 c 0
 291.944335938 846 307.412109375 860 320.228515625 910 c 1
 372.228515625 910 l 1
 354.828125 834 310.069335938 790 253.069335938 790 c 0xe6
11.771484375 0 m 1
 136.963867188 710 l 1
 222.963867188 710 l 1
 97.771484375 0 l 1
 11.771484375 0 l 1
EndSplineSet
Validated: 1
Substitution2: "'ss05' Style Set 5 in Latin lookup 38 subtable" Itilde.ss05
Substitution2: "'aalt' Access All Alternates in Latin lookup 0 subtable" Itilde.ss05
EndChar

StartChar: J
Encoding: 74 74 57
Width: 597
GlyphClass: 2
Flags: HMW
HStem: -16 84<249.5 338 249.5 362.5> 690 20G<434 520 520 520>
VStem: 67 88<232 238> 434 86<248 710>
AnchorPoint: "Anchor-3" 542.007 710 basechar 0
LayerCount: 2
Fore
SplineSet
228.993164062 -16 m 0
 113.823853496 -16 42.0344785964 61.6472078641 42.0344785964 178.418942886 c 0
 42.0344785964 195.483808492 43.5676490821 213.384237445 46.72265625 232 c 1
 135.780273438 238 l 1
 132.852111775 220.48219477 131.408180231 204.204178111 131.408180231 189.219913873 c 0
 131.408180231 110.968479889 170.786788922 68 243.8046875 68 c 0
 333.8046875 68 396.265625 133 416.543945312 248 c 2
 498.006835938 710 l 1
 584.006835938 710 l 1
 502.543945312 248 l 2
 473.978515625 86 367.993164062 -16 228.993164062 -16 c 0
EndSplineSet
Validated: 1
Substitution2: "Single Substitution lookup 16 subtable" uni004A0301
Substitution2: "'aalt' Access All Alternates in Latin lookup 0 subtable" uni004A0301
EndChar

StartChar: uni004A0301
Encoding: 65537 -1 58
Width: 597
GlyphClass: 2
Flags: HMW
HStem: -16 84<249.5 338 249.5 362.5> 690 20G<434 520 520 520> 778 128<441 601 507 511>
VStem: 67 88<232 238> 434 86<248 710>
AnchorPoint: "Anchor-3" 524.727 710 basechar 0
LayerCount: 2
Fore
SplineSet
499.716796875 778 m 1
 588.287109375 906 l 1
 682.287109375 906 l 1
 569.716796875 778 l 1
 499.716796875 778 l 1
211.712890625 -16 m 0
 96.5435800587 -16 24.7542051589 61.6472078641 24.7542051589 178.418942886 c 0
 24.7542051589 195.483808492 26.2873756446 213.384237445 29.4423828125 232 c 1
 118.5 238 l 1
 115.571838337 220.48219477 114.127906794 204.204178111 114.127906794 189.219913873 c 0
 114.127906794 110.968479889 153.506515484 68 226.524414062 68 c 0
 316.524414062 68 378.986328125 133 399.263671875 248 c 2
 480.7265625 710 l 1
 566.7265625 710 l 1
 485.263671875 248 l 2
 456.698242188 86 350.712890625 -16 211.712890625 -16 c 0
EndSplineSet
Validated: 1
EndChar

StartChar: Jcircumflex
Encoding: 308 308 59
Width: 597
GlyphClass: 2
Flags: HMW
HStem: -16 84<249.5 338 249.5 362.5> 690 20G<434 520 520 520> 778 133<341 525 341 525 431 545 431 615>
VStem: 67 88<232 238> 434 86<248 710>
AnchorPoint: "Anchor-3" 524.286 710 basechar 0
LayerCount: 2
Fore
SplineSet
399.276367188 778 m 1
 512.727539062 911 l 1
 606.727539062 911 l 1
 673.276367188 778 l 1
 603.276367188 778 l 1
 551.96875 867 l 1
 469.276367188 778 l 1
 399.276367188 778 l 1
211.272460938 -16 m 0
 96.1031503712 -16 24.3137754714 61.6472078641 24.3137754714 178.418942886 c 0
 24.3137754714 195.483808492 25.8469459571 213.384237445 29.001953125 232 c 1
 118.059570312 238 l 1
 115.13140865 220.48219477 113.687477106 204.204178111 113.687477106 189.219913873 c 0
 113.687477106 110.968479889 153.066085797 68 226.083984375 68 c 0
 316.083984375 68 378.544921875 133 398.823242188 248 c 2
 480.286132812 710 l 1
 566.286132812 710 l 1
 484.823242188 248 l 2
 456.2578125 86 350.272460938 -16 211.272460938 -16 c 0
EndSplineSet
Validated: 1
EndChar

StartChar: K
Encoding: 75 75 60
Width: 640
GlyphClass: 2
Flags: HMW
HStem: 0 21G<92 92 92 178 520 520 520 625> 690 20G<92 178 178 178 497 606 606 606>
VStem: 92 86<0 237 357 710>
AnchorPoint: "Anchor-3" 390.596 710 basechar 0
AnchorPoint: "Anchor-0" 284.404 0 basechar 0
LayerCount: 2
Fore
SplineSet
29.404296875 0 m 1
 154.595703125 710 l 1
 240.595703125 710 l 1
 178.352539062 357 l 1
 559.595703125 710 l 1
 668.595703125 710 l 1
 336.287109375 402 l 1
 562.404296875 0 l 1
 457.404296875 0 l 1
 267.001953125 338 l 1
 157.193359375 237 l 1
 115.404296875 0 l 1
 29.404296875 0 l 1
EndSplineSet
Validated: 1
EndChar

StartChar: uni01E8
Encoding: 488 488 61
Width: 640
GlyphClass: 2
Flags: HMW
HStem: 0 21G<92 92 92 178 520 520 520 625> 690 20G<92 178 178 178 497 606 606 606> 778 133<191 375 191 281>
VStem: 92 86<0 237 357 710>
AnchorPoint: "Anchor-3" 372.875 710 basechar 0
AnchorPoint: "Anchor-0" 266.683 0 basechar 0
LayerCount: 2
Fore
SplineSet
271.317382812 911 m 1
 341.317382812 911 l 1
 392.624023438 822 l 1
 475.317382812 911 l 1
 545.317382812 911 l 1
 431.865234375 778 l 1
 337.865234375 778 l 1
 271.317382812 911 l 1
11.6826171875 0 m 1
 136.875 710 l 1
 222.875 710 l 1
 160.631835938 357 l 1
 541.875 710 l 1
 650.875 710 l 1
 318.56640625 402 l 1
 544.682617188 0 l 1
 439.682617188 0 l 1
 249.28125 338 l 1
 139.47265625 237 l 1
 97.6826171875 0 l 1
 11.6826171875 0 l 1
EndSplineSet
Validated: 1
EndChar

StartChar: uni0136
Encoding: 310 310 62
Width: 640
GlyphClass: 2
Flags: HMW
HStem: -143 90<297 333 297 397> 0 21G<92 92 92 178 520 520 520 625> 690 20G<92 178 178 178 497 606 606 606>
VStem: 92 86<0 237 357 710> 297 100<-135 -53 -135 -53 -135 -53>
AnchorPoint: "Anchor-3" 411.755 710 basechar 0
AnchorPoint: "Anchor-0" 263.245 -240 basechar 0
LayerCount: 2
Fore
SplineSet
50.5634765625 0 m 1
 175.754882812 710 l 1
 261.754882812 710 l 1
 199.51171875 357 l 1
 580.754882812 710 l 1
 689.754882812 710 l 1
 357.446289062 402 l 1
 583.563476562 0 l 1
 478.563476562 0 l 1
 288.162109375 338 l 1
 178.352539062 237 l 1
 136.563476562 0 l 1
 50.5634765625 0 l 1
194.245117188 -240 m 1
 266.348632812 -143 l 1
 230.348632812 -143 l 1
 246.217773438 -53 l 1
 346.217773438 -53 l 1
 331.758789062 -135 l 1
 252.245117188 -240 l 1
 194.245117188 -240 l 1
EndSplineSet
Validated: 1
EndChar

StartChar: L
Encoding: 76 76 63
Width: 580
GlyphClass: 2
Flags: HMW
HStem: 0 84<178 533 178 533> 690 20G<92 178 178 178>
VStem: 92 86<84 710 84 710 84 710>
AnchorPoint: "Anchor-4" 410.857 530 basechar 0
AnchorPoint: "Anchor-3" 197.596 710 basechar 0
AnchorPoint: "Anchor-1" 178.408 380 basechar 0
AnchorPoint: "Anchor-0" 250.404 0 basechar 0
LayerCount: 2
Fore
SplineSet
29.404296875 0 m 1
 154.595703125 710 l 1
 240.595703125 710 l 1
 130.215820312 84 l 1
 485.215820312 84 l 1
 470.404296875 0 l 1
 29.404296875 0 l 1
EndSplineSet
Validated: 1
EndChar

StartChar: Lacute
Encoding: 313 313 64
Width: 580
GlyphClass: 2
Flags: HMW
HStem: 0 84<178 533 178 533> 690 20G<92 178 178 178> 778 128<98 258 164 168>
VStem: 92 86<84 710 84 710 84 710>
AnchorPoint: "Anchor-4" 393.577 530 basechar 0
AnchorPoint: "Anchor-3" 180.316 710 basechar 0
AnchorPoint: "Anchor-1" 161.128 380 basechar 0
AnchorPoint: "Anchor-0" 233.124 0 basechar 0
LayerCount: 2
Fore
SplineSet
155.306640625 778 m 1
 243.875976562 906 l 1
 337.875976562 906 l 1
 225.306640625 778 l 1
 155.306640625 778 l 1
12.1240234375 0 m 1
 137.31640625 710 l 1
 223.31640625 710 l 1
 112.935546875 84 l 1
 467.935546875 84 l 1
 453.124023438 0 l 1
 12.1240234375 0 l 1
EndSplineSet
Validated: 1
EndChar

StartChar: Lcaron
Encoding: 317 317 65
Width: 580
GlyphClass: 2
Flags: HMW
HStem: 0 84<178 533 178 533> 690 20G<92 178 178 178 430 514 514 514>
VStem: 92 86<84 710 84 710 84 710>
AnchorPoint: "Anchor-4" 410.857 530 basechar 0
AnchorPoint: "Anchor-3" 197.596 710 basechar 0
AnchorPoint: "Anchor-1" 178.408 380 basechar 0
AnchorPoint: "Anchor-0" 250.404 0 basechar 0
LayerCount: 2
Fore
SplineSet
29.404296875 0 m 1
 154.595703125 710 l 1
 240.595703125 710 l 1
 130.215820312 84 l 1
 485.215820312 84 l 1
 470.404296875 0 l 1
 29.404296875 0 l 1
417.6328125 455 m 1
 492.595703125 710 l 1
 576.595703125 710 l 1
 479.6328125 455 l 1
 417.6328125 455 l 1
EndSplineSet
Validated: 1
EndChar

StartChar: uni013B
Encoding: 315 315 66
Width: 580
GlyphClass: 2
Flags: HMW
HStem: -143 90<263 299 263 363> 0 84<178 533 178 533> 690 20G<92 178 178 178>
VStem: 92 86<84 710 84 710 84 710> 263 100<-135 -53 -135 -53 -135 -53>
AnchorPoint: "Anchor-4" 432.017 530 basechar 0
AnchorPoint: "Anchor-3" 218.755 710 basechar 0
AnchorPoint: "Anchor-1" 199.567 380 basechar 0
AnchorPoint: "Anchor-0" 229.245 -240 basechar 0
LayerCount: 2
Fore
SplineSet
50.5634765625 0 m 1
 175.754882812 710 l 1
 261.754882812 710 l 1
 151.375 84 l 1
 506.375 84 l 1
 491.563476562 0 l 1
 50.5634765625 0 l 1
160.245117188 -240 m 1
 232.348632812 -143 l 1
 196.348632812 -143 l 1
 212.217773438 -53 l 1
 312.217773438 -53 l 1
 297.758789062 -135 l 1
 218.245117188 -240 l 1
 160.245117188 -240 l 1
EndSplineSet
Validated: 1
Substitution2: "'locl' Localized Forms in Latin lookup 11 subtable" uni013B.loclMAH
Substitution2: "'aalt' Access All Alternates in Latin lookup 0 subtable" uni013B.loclMAH
EndChar

StartChar: Lslash
Encoding: 321 321 67
Width: 580
GlyphClass: 2
Flags: HMW
HStem: 0 84<178 533 178 533> 690 20G<92 178 178 178>
VStem: 92 86<84 299 299 299 420 710>
AnchorPoint: "Anchor-4" 410.857 530 basechar 0
AnchorPoint: "Anchor-3" 197.596 710 basechar 0
AnchorPoint: "Anchor-1" 178.408 380 basechar 0
AnchorPoint: "Anchor-0" 250.404 0 basechar 0
LayerCount: 2
Fore
SplineSet
29.404296875 0 m 1
 82.1259765625 299 l 1
 3.6015625 262 l 1
 17.001953125 338 l 1
 95.5263671875 375 l 1
 154.595703125 710 l 1
 240.595703125 710 l 1
 189.4609375 420 l 1
 353.21484375 498 l 1
 339.813476562 422 l 1
 176.060546875 344 l 1
 130.215820312 84 l 1
 485.215820312 84 l 1
 470.404296875 0 l 1
 29.404296875 0 l 1
EndSplineSet
Validated: 1
EndChar

StartChar: M
Encoding: 77 77 68
Width: 877
GlyphClass: 2
Flags: HMW
HStem: 0 21G<92 92 92 178 381 381 381 496 699 699 699 785> 0 94<381 439 439 439 439 496> 550 160<178 178 699 699> 690 20G<92 212 212 212 665 785 785 785>
VStem: 92 86<0 550 0 710> 699 86<0 550 550 550>
AnchorPoint: "Anchor-3" 501.596 710 basechar 0
AnchorPoint: "Anchor-0" 376.404 0 basechar 0
LayerCount: 2
Fore
SplineSet
29.404296875 0 m 1xac
 154.595703125 710 l 1
 274.595703125 710 l 1
 392.978515625 94 l 1x5c
 727.595703125 710 l 1
 847.595703125 710 l 1
 722.404296875 0 l 1
 636.404296875 0 l 1
 733.383789062 550 l 1
 433.404296875 0 l 1
 318.404296875 0 l 1
 212.383789062 550 l 1
 115.404296875 0 l 1
 29.404296875 0 l 1xac
EndSplineSet
Validated: 1
EndChar

StartChar: N
Encoding: 78 78 69
Width: 743
GlyphClass: 2
Flags: HMW
HStem: 0 21G<92 92 92 178 523 523 523 651> 0 86<523 565 565 565 565 651> 612 98<178 178> 690 20G<92 214 214 214 565 651 651 651>
VStem: 92 86<0 612 0 710> 565 86<86 710 0 710>
AnchorPoint: "Anchor-3" 448.596 710 basechar 0
AnchorPoint: "Anchor-0" 310.404 0 basechar 0
LayerCount: 2
Fore
SplineSet
29.404296875 0 m 1xac
 154.595703125 710 l 1
 276.595703125 710 l 1
 517.568359375 86 l 1x5c
 627.595703125 710 l 1
 713.595703125 710 l 1
 588.404296875 0 l 1
 460.404296875 0 l 1
 223.31640625 612 l 1
 115.404296875 0 l 1
 29.404296875 0 l 1xac
EndSplineSet
Validated: 1
EndChar

StartChar: Nacute
Encoding: 323 323 70
Width: 743
GlyphClass: 2
Flags: HMW
HStem: 0 21G<92 92 92 178 523 523 523 651> 0 86<523 565 565 565 565 651> 612 98<178 178> 690 20G<92 214 214 214 565 651 651 651> 778 128<349 509 415 419>
VStem: 92 86<0 612 0 710> 565 86<86 710 0 710>
AnchorPoint: "Anchor-3" 431.316 710 basechar 0
AnchorPoint: "Anchor-0" 293.124 0 basechar 0
LayerCount: 2
Fore
SplineSet
406.306640625 778 m 1xae
 494.875976562 906 l 1
 588.875976562 906 l 1
 476.306640625 778 l 1
 406.306640625 778 l 1xae
12.1240234375 0 m 1
 137.31640625 710 l 1
 259.31640625 710 l 1
 500.288085938 86 l 1x5e
 610.31640625 710 l 1
 696.31640625 710 l 1
 571.124023438 0 l 1
 443.124023438 0 l 1
 206.036132812 612 l 1
 98.1240234375 0 l 1
 12.1240234375 0 l 1
EndSplineSet
Validated: 1
EndChar

StartChar: Ncaron
Encoding: 327 327 71
Width: 743
GlyphClass: 2
Flags: HMW
HStem: 0 21G<92 92 92 178 523 523 523 651> 0 86<523 565 565 565 565 651> 612 98<178 178> 690 20G<92 214 214 214 565 651 651 651> 778 133<249 433 249 339>
VStem: 92 86<0 612 0 710> 565 86<86 710 0 710>
AnchorPoint: "Anchor-3" 430.875 710 basechar 0
AnchorPoint: "Anchor-0" 292.683 0 basechar 0
LayerCount: 2
Fore
SplineSet
329.317382812 911 m 1xae
 399.317382812 911 l 1
 450.624023438 822 l 1
 533.317382812 911 l 1
 603.317382812 911 l 1
 489.865234375 778 l 1
 395.865234375 778 l 1
 329.317382812 911 l 1xae
11.6826171875 0 m 1
 136.875 710 l 1
 258.875 710 l 1
 499.84765625 86 l 1x5e
 609.875 710 l 1
 695.875 710 l 1
 570.682617188 0 l 1
 442.682617188 0 l 1
 205.594726562 612 l 1
 97.6826171875 0 l 1
 11.6826171875 0 l 1
EndSplineSet
Validated: 1
EndChar

StartChar: uni0145
Encoding: 325 325 72
Width: 743
GlyphClass: 2
Flags: HMW
HStem: -143 90<323 359 323 423> 0 21G<92 92 92 178 523 523 523 651> 0 86<523 565 565 565 565 651> 612 98<178 178> 690 20G<92 214 214 214 565 651 651 651>
VStem: 92 86<0 612 0 710> 323 100<-135 -53 -135 -53 -135 -53> 565 86<86 710 0 710>
AnchorPoint: "Anchor-3" 469.755 710 basechar 0
AnchorPoint: "Anchor-0" 289.245 -240 basechar 0
LayerCount: 2
Fore
SplineSet
50.5634765625 0 m 1xd7
 175.754882812 710 l 1
 297.754882812 710 l 1
 538.727539062 86 l 1xaf
 648.754882812 710 l 1
 734.754882812 710 l 1
 609.563476562 0 l 1
 481.563476562 0 l 1
 244.475585938 612 l 1
 136.563476562 0 l 1
 50.5634765625 0 l 1xd7
220.245117188 -240 m 1
 292.348632812 -143 l 1
 256.348632812 -143 l 1
 272.217773438 -53 l 1
 372.217773438 -53 l 1
 357.758789062 -135 l 1
 278.245117188 -240 l 1
 220.245117188 -240 l 1
EndSplineSet
Validated: 1
Substitution2: "'locl' Localized Forms in Latin lookup 11 subtable" uni0145.loclMAH
Substitution2: "'aalt' Access All Alternates in Latin lookup 0 subtable" uni0145.loclMAH
EndChar

StartChar: Ntilde
Encoding: 209 209 73
Width: 743
GlyphClass: 2
Flags: HMW
HStem: 0 21G<92 92 92 178 523 523 523 651> 0 86<523 565 565 565 565 651> 612 98<178 178> 690 20G<92 214 214 214 565 651 651 651> 790 56<441 461.5 441 473.5> 844 56<311 333>
VStem: 92 86<0 612 0 710> 228 52<783 783> 491 52<910 910> 565 86<86 710 0 710>
AnchorPoint: "Anchor-3" 430.964 710 basechar 0
AnchorPoint: "Anchor-0" 292.771 0 basechar 0
LayerCount: 2
Fore
SplineSet
504.069335938 790 m 0x9a80
 478.069335938 790 457.833007812 800 439.006835938 818 c 0
 419.356445312 837 411.590820312 844 391.590820312 844 c 0
 367.590820312 844 348.298828125 831 337.834960938 783 c 1
 285.834960938 783 l 1
 301.412109375 860 347.465820312 900 401.465820312 900 c 0xa740
 433.465820312 900 452.526367188 889 472.17578125 870 c 0
 490.177734375 853 501.944335938 846 517.944335938 846 c 0
 542.944335938 846 558.412109375 860 571.228515625 910 c 1
 623.228515625 910 l 1
 605.828125 834 561.069335938 790 504.069335938 790 c 0x9a80
11.771484375 0 m 1
 136.963867188 710 l 1
 258.963867188 710 l 1
 499.935546875 86 l 1x5640
 609.963867188 710 l 1
 695.963867188 710 l 1
 570.771484375 0 l 1
 442.771484375 0 l 1
 205.68359375 612 l 1
 97.771484375 0 l 1
 11.771484375 0 l 1
EndSplineSet
Validated: 1
EndChar

StartChar: Eng
Encoding: 330 330 74
Width: 743
GlyphClass: 2
Flags: HMW
HStem: -150 80<398 501 398 502> 0 21G<92 92 92 178 523 523 523 565> 611 99<178 178>
VStem: 92 86<0 611 0 710> 565 86<-8 -7 -7 0 0 0 87 710>
AnchorPoint: "Anchor-3" 447.82 710 basechar 0
AnchorPoint: "Anchor-0" 296.18 -150 basechar 0
LayerCount: 2
Fore
SplineSet
42.62890625 0 m 1
 167.8203125 710 l 1
 289.8203125 710 l 1
 530.96875 87 l 1
 640.8203125 710 l 1
 726.8203125 710 l 1
 600.39453125 -7 l 2
 585.053710938 -94 517.1796875 -150 425.1796875 -150 c 2
 322.1796875 -150 l 1
 336.28515625 -70 l 1
 440.28515625 -70 l 2
 482.28515625 -70 507.517578125 -46 514.217773438 -8 c 2
 515.62890625 0 l 1
 473.62890625 0 l 1
 236.364257812 611 l 1
 128.62890625 0 l 1
 42.62890625 0 l 1
EndSplineSet
Validated: 1
EndChar

StartChar: O
Encoding: 79 79 75
Width: 739
GlyphClass: 2
Flags: HMW
HStem: -16 84<296 442.5 296 470.5> 642 84<296 442.5>
VStem: 45 90<264 444 264 469> 604 90<264 444>
AnchorPoint: "Anchor-3" 431.596 710 basechar 0
AnchorPoint: "Anchor-1" 370 355 basechar 0
AnchorPoint: "Anchor-0" 306.404 0 basechar 0
LayerCount: 2
Fore
SplineSet
303.583007812 -16 m 0
 131.837845898 -16 35.7677852472 85.2032175702 35.7677852472 256.879166523 c 0
 35.7677852472 287.121811968 38.7491060294 319.551421982 44.8232421875 354 c 0
 85.37890625 584 232.416992188 726 434.416992188 726 c 0
 606.96035837 726 702.897098204 623.412888536 702.897098204 451.397590852 c 0
 702.897098204 421.034169479 699.907917112 388.507516148 693.823242188 354 c 0
 653.268554688 124 506.583007812 -16 303.583007812 -16 c 0
318.39453125 68 m 0
 465.39453125 68 572.084960938 174 603.823242188 354 c 0
 608.917279304 382.889354831 611.417470696 409.924054501 611.417470696 434.955266257 c 0
 611.417470696 565.885243056 543.012495638 642 419.60546875 642 c 0
 273.60546875 642 166.5625 534 134.823242188 354 c 0
 129.74078539 325.175432712 127.249568758 298.248498766 127.249568758 273.350605873 c 0
 127.249568758 142.769296738 195.77445805 68 318.39453125 68 c 0
EndSplineSet
Validated: 1
Substitution2: "Single Substitution lookup 27 subtable" ordmasculine
Substitution2: "'aalt' Access All Alternates in Latin lookup 0 subtable" ordmasculine
EndChar

StartChar: Oacute
Encoding: 211 211 76
Width: 739
GlyphClass: 2
Flags: HMW
HStem: -16 84<296 442.5 296 470.5> 642 84<296 442.5> 778 128<332 492 398 402>
VStem: 45 90<264 444 264 469> 604 90<264 444>
AnchorPoint: "Anchor-3" 415.727 710 basechar 0
AnchorPoint: "Anchor-1" 354.131 355 basechar 0
AnchorPoint: "Anchor-0" 290.534 0 basechar 0
LayerCount: 2
Fore
SplineSet
390.716796875 778 m 1
 479.287109375 906 l 1
 573.287109375 906 l 1
 460.716796875 778 l 1
 390.716796875 778 l 1
287.712890625 -16 m 0
 115.967917731 -16 19.8985854626 85.2029948046 19.8985854626 256.87859969 c 0
 19.8985854626 287.121406753 22.8799274556 319.55120676 28.9541015625 354 c 0
 69.509765625 584 216.547851562 726 418.547851562 726 c 0
 591.091217745 726 687.027957579 623.412888536 687.027957579 451.397590852 c 0
 687.027957579 421.034169479 684.038776487 388.507516148 677.954101562 354 c 0
 637.399414062 124 490.712890625 -16 287.712890625 -16 c 0
302.524414062 68 m 0
 449.524414062 68 556.215820312 174 587.954101562 354 c 0
 593.048138679 382.889354831 595.548330071 409.924054501 595.548330071 434.955266257 c 0
 595.548330071 565.885243056 527.143355013 642 403.736328125 642 c 0
 257.736328125 642 150.693359375 534 118.954101562 354 c 0
 113.871601856 325.175189355 111.380361025 298.248044094 111.380361025 273.349975258 c 0
 111.380361025 142.769056016 179.904538252 68 302.524414062 68 c 0
EndSplineSet
Validated: 1
EndChar

StartChar: Ocircumflex
Encoding: 212 212 77
Width: 739
GlyphClass: 2
Flags: HMW
HStem: -16 84<296 442.5 296 470.5> 642 84<296 442.5> 778 133<232 416 232 416 322 436 322 506>
VStem: 45 90<264 444 264 469> 604 90<264 444>
AnchorPoint: "Anchor-3" 415.286 710 basechar 0
AnchorPoint: "Anchor-1" 353.689 355 basechar 0
AnchorPoint: "Anchor-0" 290.094 0 basechar 0
LayerCount: 2
Fore
SplineSet
290.276367188 778 m 1
 403.727539062 911 l 1
 497.727539062 911 l 1
 564.276367188 778 l 1
 494.276367188 778 l 1
 442.96875 867 l 1
 360.276367188 778 l 1
 290.276367188 778 l 1
287.272460938 -16 m 0
 115.527835515 -16 19.4578385742 85.2025853003 19.4578385742 256.877557697 c 0
 19.4578385742 287.120661857 22.439281739 319.550811124 28.513671875 354 c 0
 69.068359375 584 216.107421875 726 418.107421875 726 c 0
 590.651136939 726 686.587210343 623.412473674 686.587210343 451.39654741 c 0
 686.587210343 421.033424291 683.598130584 388.507120863 677.513671875 354 c 0
 636.958007812 124 490.272460938 -16 287.272460938 -16 c 0
302.083984375 68 m 0
 449.083984375 68 555.774414062 174 587.513671875 354 c 0
 592.607482755 382.888960658 595.107569 409.923316766 595.107569 434.954241661 c 0
 595.107569 565.884845964 526.703247233 642 403.295898438 642 c 0
 257.295898438 642 150.251953125 534 118.513671875 354 c 0
 113.430946169 325.174794558 110.93960041 298.247306483 110.93960041 273.348952214 c 0
 110.93960041 142.768665494 179.464428789 68 302.083984375 68 c 0
EndSplineSet
Validated: 1
EndChar

StartChar: Odieresis
Encoding: 214 214 78
Width: 739
GlyphClass: 2
Flags: HMW
HStem: -16 84<296 442.5 296 470.5> 642 84<296 442.5> 793 98<238 326 238 326 412 500 238 412>
VStem: 45 90<264 444 264 469> 238 88<793 891 793 891> 412 88<793 891 793 891> 604 90<264 444>
AnchorPoint: "Anchor-3" 417.049 710 basechar 0
AnchorPoint: "Anchor-1" 355.453 355 basechar 0
AnchorPoint: "Anchor-0" 291.857 0 basechar 0
LayerCount: 2
Fore
SplineSet
300.684570312 793 m 1
 317.963867188 891 l 1
 405.963867188 891 l 1
 388.684570312 793 l 1
 300.684570312 793 l 1
474.684570312 793 m 1
 491.963867188 891 l 1
 579.963867188 891 l 1
 562.684570312 793 l 1
 474.684570312 793 l 1
289.036132812 -16 m 0
 117.290970898 -16 21.2209102472 85.2032175702 21.2209102472 256.879166523 c 0
 21.2209102472 287.121811968 24.2022310294 319.551421982 30.2763671875 354 c 0
 70.83203125 584 217.870117188 726 419.870117188 726 c 0
 592.41348337 726 688.350223204 623.412888536 688.350223204 451.397590852 c 0
 688.350223204 421.034169479 685.361042112 388.507516148 679.276367188 354 c 0
 638.721679688 124 492.036132812 -16 289.036132812 -16 c 0
303.84765625 68 m 0
 450.84765625 68 557.538085938 174 589.276367188 354 c 0
 594.370404304 382.889354831 596.870595696 409.924054501 596.870595696 434.955266257 c 0
 596.870595696 565.885243056 528.465620638 642 405.05859375 642 c 0
 259.05859375 642 152.015625 534 120.276367188 354 c 0
 115.19391039 325.175432712 112.702693758 298.248498766 112.702693758 273.350605873 c 0
 112.702693758 142.769296738 181.22758305 68 303.84765625 68 c 0
EndSplineSet
Validated: 1
Substitution2: "'ss08' Style Set 8 in Latin lookup 41 subtable" Odieresis.ss08
Substitution2: "'aalt' Access All Alternates in Latin lookup 0 subtable" Odieresis.ss08
EndChar

StartChar: Ograve
Encoding: 210 210 79
Width: 739
GlyphClass: 2
Flags: HMW
HStem: -16 84<296 442.5 296 470.5> 642 84<296 442.5> 783 128<338 338 338 342 248 408>
VStem: 45 90<264 444 264 469> 604 90<264 444>
AnchorPoint: "Anchor-3" 415.286 710 basechar 0
AnchorPoint: "Anchor-1" 353.689 355 basechar 0
AnchorPoint: "Anchor-0" 290.094 0 basechar 0
LayerCount: 2
Fore
SplineSet
397.157226562 783 m 1
 329.727539062 911 l 1
 423.727539062 911 l 1
 467.157226562 783 l 1
 397.157226562 783 l 1
287.272460938 -16 m 0
 115.527835515 -16 19.4578385742 85.2025853003 19.4578385742 256.877557697 c 0
 19.4578385742 287.120661857 22.439281739 319.550811124 28.513671875 354 c 0
 69.068359375 584 216.107421875 726 418.107421875 726 c 0
 590.651136939 726 686.587210343 623.412473674 686.587210343 451.39654741 c 0
 686.587210343 421.033424291 683.598130584 388.507120863 677.513671875 354 c 0
 636.958007812 124 490.272460938 -16 287.272460938 -16 c 0
302.083984375 68 m 0
 449.083984375 68 555.774414062 174 587.513671875 354 c 0
 592.607482755 382.888960658 595.107569 409.923316766 595.107569 434.954241661 c 0
 595.107569 565.884845964 526.703247233 642 403.295898438 642 c 0
 257.295898438 642 150.251953125 534 118.513671875 354 c 0
 113.430946169 325.174794558 110.93960041 298.247306483 110.93960041 273.348952214 c 0
 110.93960041 142.768665494 179.464428789 68 302.083984375 68 c 0
EndSplineSet
Validated: 1
EndChar

StartChar: Ohungarumlaut
Encoding: 336 336 80
Width: 739
GlyphClass: 2
Flags: HMW
HStem: -16 84<296 442.5 296 470.5> 642 84<296 442.5> 778 128<265 425 331 335 396 425 462 466 396 396>
VStem: 45 90<264 444 264 469> 604 90<264 444>
AnchorPoint: "Anchor-3" 415.727 710 basechar 0
AnchorPoint: "Anchor-1" 354.131 355 basechar 0
AnchorPoint: "Anchor-0" 290.534 0 basechar 0
LayerCount: 2
Fore
SplineSet
323.716796875 778 m 1
 412.287109375 906 l 1
 506.287109375 906 l 1
 393.716796875 778 l 1
 323.716796875 778 l 1
454.716796875 778 m 1
 543.287109375 906 l 1
 637.287109375 906 l 1
 524.716796875 778 l 1
 454.716796875 778 l 1
287.712890625 -16 m 0
 115.967917731 -16 19.8985854626 85.2029948046 19.8985854626 256.87859969 c 0
 19.8985854626 287.121406753 22.8799274556 319.55120676 28.9541015625 354 c 0
 69.509765625 584 216.547851562 726 418.547851562 726 c 0
 591.091217745 726 687.027957579 623.412888536 687.027957579 451.397590852 c 0
 687.027957579 421.034169479 684.038776487 388.507516148 677.954101562 354 c 0
 637.399414062 124 490.712890625 -16 287.712890625 -16 c 0
302.524414062 68 m 0
 449.524414062 68 556.215820312 174 587.954101562 354 c 0
 593.048138679 382.889354831 595.548330071 409.924054501 595.548330071 434.955266257 c 0
 595.548330071 565.885243056 527.143355013 642 403.736328125 642 c 0
 257.736328125 642 150.693359375 534 118.954101562 354 c 0
 113.871601856 325.175189355 111.380361025 298.248044094 111.380361025 273.349975258 c 0
 111.380361025 142.769056016 179.904538252 68 302.524414062 68 c 0
EndSplineSet
Validated: 1
EndChar

StartChar: Omacron
Encoding: 332 332 81
Width: 739
GlyphClass: 2
Flags: HMW
HStem: -16 84<296 442.5 296 470.5> 642 84<296 442.5> 805 72<235 503 235 503>
VStem: 45 90<264 444 264 469> 235 268<805 877 805 877> 604 90<264 444>
AnchorPoint: "Anchor-3" 418.283 710 basechar 0
AnchorPoint: "Anchor-1" 356.688 355 basechar 0
AnchorPoint: "Anchor-0" 293.091 0 basechar 0
LayerCount: 2
Fore
SplineSet
301.034179688 805 m 1
 313.73046875 877 l 1
 581.73046875 877 l 1
 569.034179688 805 l 1
 301.034179688 805 l 1
290.26953125 -16 m 0
 118.524558356 -16 22.4552260876 85.2029948046 22.4552260876 256.87859969 c 0
 22.4552260876 287.121406753 25.4365680806 319.55120676 31.5107421875 354 c 0
 72.06640625 584 219.104492188 726 421.104492188 726 c 0
 593.64785837 726 689.584598204 623.412888536 689.584598204 451.397590852 c 0
 689.584598204 421.034169479 686.595417112 388.507516148 680.510742188 354 c 0
 639.956054688 124 493.26953125 -16 290.26953125 -16 c 0
305.081054688 68 m 0
 452.081054688 68 558.772460938 174 590.510742188 354 c 0
 595.604779304 382.889354831 598.104970696 409.924054501 598.104970696 434.955266257 c 0
 598.104970696 565.885243056 529.699995638 642 406.29296875 642 c 0
 260.29296875 642 153.25 534 121.510742188 354 c 0
 116.428242481 325.175189355 113.93700165 298.248044094 113.93700165 273.349975258 c 0
 113.93700165 142.769056016 182.461178877 68 305.081054688 68 c 0
EndSplineSet
Validated: 1
EndChar

StartChar: Oslash
Encoding: 216 216 82
Width: 739
GlyphClass: 2
Flags: HMW
HStem: -16 84<344 442.5 344 470.5> 642 84<296 394>
VStem: 45 90<312 444 312 469> 604 90<264 396.5>
AnchorPoint: "Anchor-3" 431.596 710 basechar 0
AnchorPoint: "Anchor-1" 370 355 basechar 0
AnchorPoint: "Anchor-0" 306.404 0 basechar 0
LayerCount: 2
Fore
SplineSet
9.5830078125 -16 m 1
 88.8046875 76 l 1
 54.0737966697 121.628330957 35.8448684436 183.013566739 35.8448684436 257.619049645 c 0
 35.8448684436 287.658001586 38.8000842123 319.840177873 44.8232421875 354 c 0
 85.37890625 584 232.416992188 726 434.416992188 726 c 0
 504.416992188 726 561.419921875 709 603.954101562 678 c 1
 645.416992188 726 l 1
 729.416992188 726 l 1
 650.1953125 634 l 1
 684.741571949 587.738149265 702.841890067 525.773357976 702.841890067 450.989783323 c 0
 702.841890067 420.699041338 699.872319911 388.305227115 693.823242188 354 c 0
 653.268554688 124 506.583007812 -16 303.583007812 -16 c 0
 234.583007812 -16 177.404296875 0 133.870117188 31 c 1
 93.5830078125 -16 l 1
 9.5830078125 -16 l 1
134.823242188 354 m 0
 129.717293748 325.042838992 127.183642648 297.868240002 127.183642648 272.722002724 c 0
 127.183642648 224.923108027 136.33818207 184.453050852 154.381835938 153 c 1
 542.2578125 606 l 1
 511.313476562 629 469.60546875 642 419.60546875 642 c 0
 273.60546875 642 166.5625 534 134.823242188 354 c 0
318.39453125 68 m 0
 465.39453125 68 572.084960938 174 603.823242188 354 c 0
 608.996198843 383.336340065 611.548812556 410.647689898 611.548812556 435.851826937 c 0
 611.548812556 483.674919727 602.35878631 523.911537214 584.44140625 556 c 1
 196.7421875 104 l 1
 227.509765625 80 268.39453125 68 318.39453125 68 c 0
EndSplineSet
Validated: 1
EndChar

StartChar: Otilde
Encoding: 213 213 83
Width: 739
GlyphClass: 2
Flags: HMW
HStem: -16 84<296 442.5 296 470.5> 642 84<296 442.5> 790 56<424 444.5 424 456.5> 844 56<294 316>
VStem: 45 90<264 444 264 469> 211 52<783 783> 474 52<910 910> 604 90<264 444>
AnchorPoint: "Anchor-3" 415.374 710 basechar 0
AnchorPoint: "Anchor-1" 353.778 355 basechar 0
AnchorPoint: "Anchor-0" 290.182 0 basechar 0
LayerCount: 2
Fore
SplineSet
488.48046875 790 m 0xeb
 462.48046875 790 442.243164062 800 423.416992188 818 c 0
 403.767578125 837 396.001953125 844 376.001953125 844 c 0
 352.001953125 844 332.709960938 831 322.24609375 783 c 1
 270.24609375 783 l 1
 285.823242188 860 331.875976562 900 385.875976562 900 c 0xdd
 417.875976562 900 436.936523438 889 456.5859375 870 c 0
 474.588867188 853 486.354492188 846 502.354492188 846 c 0
 527.354492188 846 542.823242188 860 555.639648438 910 c 1
 607.639648438 910 l 1
 590.23828125 834 545.48046875 790 488.48046875 790 c 0xeb
287.360351562 -16 m 0
 115.61572614 -16 19.5457291992 85.2025853003 19.5457291992 256.877557697 c 0
 19.5457291992 287.120661857 22.527172364 319.550811124 28.6015625 354 c 0
 69.1572265625 584 216.1953125 726 418.1953125 726 c 0
 590.738678683 726 686.675418516 623.412888536 686.675418516 451.397590852 c 0
 686.675418516 421.034169479 683.686237424 388.507516148 677.6015625 354 c 0
 637.045898438 124 490.360351562 -16 287.360351562 -16 c 0
302.171875 68 m 0
 449.171875 68 555.862304688 174 587.6015625 354 c 0
 592.695599617 382.889354831 595.195791008 409.924054501 595.195791008 434.955266257 c 0
 595.195791008 565.885243056 526.79081595 642 403.383789062 642 c 0
 257.383789062 642 150.340820312 534 118.6015625 354 c 0
 113.518836794 325.174794558 111.027491035 298.247306483 111.027491035 273.348952214 c 0
 111.027491035 142.768665494 179.552319414 68 302.171875 68 c 0
EndSplineSet
Validated: 1
EndChar

StartChar: OE
Encoding: 338 338 84
Width: 1088
GlyphClass: 2
Flags: HMW
HStem: -16 84<290 421> 0 84<693 1031 693 1031> 315 82<693 1011 693 1011> 626 84<693 1023 693 693> 642 84<289.5 421 264.5 447>
VStem: 45 90<269.5 437 269.5 463.5> 604 89<269.5 315 397 436.5> 607 86<84 100 100 100 609 626>
AnchorPoint: "Anchor-3" 604.596 710 basechar 0
AnchorPoint: "Anchor-0" 479.404 0 basechar 0
LayerCount: 2
Fore
SplineSet
302.583007812 -16 m 0xb5
 127.660554546 -16 36.1078369034 92.8763682528 36.1078369034 259.81162648 c 0
 36.1078369034 289.470130533 38.9976754355 320.961248861 44.8232421875 354 c 0
 83.439453125 573 226.416992188 726 433.416992188 726 c 0xae
 539.416992188 726 613.01171875 684 651.787109375 609 c 1
 669.595703125 710 l 1x75
 1085.59570312 710 l 1
 1070.78417969 626 l 1
 740.784179688 626 l 1
 700.405273438 397 l 1
 1018.40527344 397 l 1
 1003.94726562 315 l 1
 685.947265625 315 l 1
 645.215820312 84 l 1x76
 983.215820312 84 l 1
 968.404296875 0 l 1
 544.404296875 0 l 1x75
 562.036132812 100 l 1
 497.165039062 27 408.583007812 -16 302.583007812 -16 c 0xb5
317.39453125 68 m 0
 474.39453125 68 574.024414062 185 603.823242188 354 c 0
 608.700989869 381.662345125 611.178220906 408.144208187 611.178220906 433.063908508 c 0
 611.178220906 556.784915779 550.11667766 642 418.60546875 642 c 0
 261.60546875 642 164.09375 520 134.823242188 354 c 0
 129.73851588 325.16266645 127.16271394 297.839382616 127.16271394 272.353086047 c 0
 127.16271394 148.477996176 188.013608373 68 317.39453125 68 c 0
EndSplineSet
Validated: 1
EndChar

StartChar: P
Encoding: 80 80 85
Width: 650
GlyphClass: 2
Flags: HMW
HStem: 0 21G<92 92 92 178> 276 84<178 347 178 347> 626 84<178 347 178 178>
VStem: 92 86<0 276 360 626> 508 90<450.5 538.5>
AnchorPoint: "Anchor-3" 387.596 710 basechar 0
AnchorPoint: "Anchor-0" 262.404 0 basechar 0
LayerCount: 2
Fore
SplineSet
29.404296875 0 m 1
 154.595703125 710 l 1
 409.595703125 710 l 2
 549.033776642 710 626.861300658 647.692753257 626.861300658 540.261808924 c 0
 626.861300658 525.960655441 625.482134592 510.859873893 622.685546875 495 c 0
 598.529296875 358 491.0703125 276 333.0703125 276 c 2
 164.0703125 276 l 1
 115.404296875 0 l 1
 29.404296875 0 l 1
178.881835938 360 m 1
 347.881835938 360 l 2
 454.881835938 360 516.993164062 406 532.685546875 495 c 0
 534.597904645 505.845256157 535.553284269 516.022307534 535.553284269 525.529216986 c 0
 535.553284269 592.286169847 488.445761195 626 394.784179688 626 c 2
 225.784179688 626 l 1
 178.881835938 360 l 1
EndSplineSet
Validated: 1
EndChar

StartChar: Thorn
Encoding: 222 222 86
Width: 620
GlyphClass: 2
Flags: HMW
HStem: 0 21G<92 92 92 178> 150 84<178 316 178 316> 498 84<178 316 178 316> 690 20G<92 178 178 178>
VStem: 92 86<0 150 0 234 234 498 582 710> 478 90<322 410>
AnchorPoint: "Anchor-3" 372.596 710 basechar 0
AnchorPoint: "Anchor-0" 247.404 0 basechar 0
LayerCount: 2
Fore
SplineSet
29.404296875 0 m 1
 154.595703125 710 l 1
 240.595703125 710 l 1
 218.026367188 582 l 1
 356.026367188 582 l 2
 496.249119696 582 574.168695979 519.779612132 574.168695979 411.800561017 c 0
 574.168695979 397.34107188 572.771448073 382.06104188 569.939453125 366 c 0
 545.958984375 230 438.852539062 150 279.852539062 150 c 2
 141.852539062 150 l 1
 115.404296875 0 l 1
 29.404296875 0 l 1
341.21484375 498 m 2
 203.21484375 498 l 1
 156.6640625 234 l 1
 294.6640625 234 l 2
 402.6640625 234 464.422851562 278 479.939453125 366 c 0
 481.888718126 377.054954232 482.863351595 387.415522026 482.863351595 397.081703382 c 0
 482.863351595 464.360567794 435.64739992 498 341.21484375 498 c 2
EndSplineSet
Validated: 1
EndChar

StartChar: Q
Encoding: 81 81 87
Width: 733
GlyphClass: 2
Flags: HMW
HStem: -16 84<289 380.5 289 389> 642 84<288 444>
VStem: 45 90<276 432.5 276 457.5> 598 90<299 432.5>
AnchorPoint: "Anchor-3" 433.269 710 basechar 0
AnchorPoint: "Anchor-0" 308.076 0 basechar 0
LayerCount: 2
Fore
SplineSet
477.91015625 -69 m 1
 432.310546875 7 l 1
 397.842773438 -7 351.254882812 -16 305.254882812 -16 c 0
 131.186146188 -16 41.5153759084 103.405702409 41.5153759084 266.423659978 c 0
 41.5153759084 294.454732746 44.1666793942 323.775292866 49.49609375 354 c 0
 85.99609375 561 231.08984375 726 436.08984375 726 c 0
 612.85551639 726 700.720486503 606.833787932 700.720486503 443.994748491 c 0
 700.720486503 415.22124406 697.977117542 385.084162325 692.49609375 354 c 0
 669.397460938 223 601.120117188 108 501.482421875 42 c 1
 569.91015625 -69 l 1
 477.91015625 -69 l 1
320.06640625 68 m 0
 349.06640625 68 372.595703125 71 391.006835938 79 c 1
 310.752929688 208 l 1
 402.752929688 208 l 1
 461.120117188 108 l 1
 535.2890625 160 583.100585938 244 602.49609375 354 c 0
 607.142281367 380.349594004 609.5185908 405.966832589 609.5185908 430.355338212 c 0
 609.5185908 551.281989334 551.096558118 642 421.278320312 642 c 0
 265.278320312 642 167.1796875 511 139.49609375 354 c 0
 134.943674865 328.181787113 132.62589856 303.075732471 132.62589856 279.153288718 c 0
 132.62589856 158.53043641 191.553616408 68 320.06640625 68 c 0
EndSplineSet
Validated: 1
EndChar

StartChar: R
Encoding: 82 82 88
Width: 672
GlyphClass: 2
Flags: HMW
HStem: 0 21G<92 92 92 178 523 523 523 610> 286 84<178 372 372 384 178 372> 626 84<178 361 178 178>
VStem: 92 86<0 286 370 626> 513 90<456 538>
AnchorPoint: "Anchor-3" 399.596 710 basechar 0
AnchorPoint: "Anchor-0" 287.404 0 basechar 0
LayerCount: 2
Fore
SplineSet
29.404296875 0 m 1
 154.595703125 710 l 1
 423.595703125 710 l 2
 555.226605587 710 631.730846914 645.222934008 631.730846914 539.110749488 c 0
 631.730846914 525.108924321 630.398785331 510.387388423 627.685546875 495 c 0
 613.2265625 413 545.294921875 351 478.944335938 332 c 1
 534.891380291 321.921192662 565.014055179 289.175247734 565.014055179 226.839204226 c 0
 565.014055179 221.141753728 564.762417201 215.197114274 564.255859375 209 c 2
 547.404296875 0 l 1
 460.404296875 0 l 1
 477.668945312 200 l 2
 478.082072392 204.511022168 478.292684981 208.834977898 478.292684981 212.974101991 c 0
 478.292684981 262.970894847 447.563451578 286 371.833007812 286 c 2
 165.833007812 286 l 1
 115.404296875 0 l 1
 29.404296875 0 l 1
180.64453125 370 m 1
 374.64453125 370 l 2
 460.64453125 370 523.580078125 415 538.038085938 497 c 0
 539.789189564 506.930884056 540.657738429 516.348415043 540.657738429 525.231277074 c 0
 540.657738429 589.694824326 494.915562157 626 408.784179688 626 c 2
 225.784179688 626 l 1
 180.64453125 370 l 1
EndSplineSet
Validated: 1
Substitution2: "'ss04' Style Set 4 in Latin lookup 37 subtable" R.ss04
Substitution2: "'aalt' Access All Alternates in Latin lookup 0 subtable" R.ss04
EndChar

StartChar: Racute
Encoding: 340 340 89
Width: 672
GlyphClass: 2
Flags: HMW
HStem: 0 21G<92 92 92 178 523 523 523 610> 286 84<178 372 372 384 178 372> 626 84<178 361 178 178> 778 128<300 460 366 370>
VStem: 92 86<0 286 370 626> 513 90<456 538>
AnchorPoint: "Anchor-3" 382.316 710 basechar 0
AnchorPoint: "Anchor-0" 270.124 0 basechar 0
LayerCount: 2
Fore
SplineSet
357.306640625 778 m 1
 445.875976562 906 l 1
 539.875976562 906 l 1
 427.306640625 778 l 1
 357.306640625 778 l 1
12.1240234375 0 m 1
 137.31640625 710 l 1
 406.31640625 710 l 2
 537.947155846 710 614.450610194 645.223084462 614.450610194 539.111119179 c 0
 614.450610194 525.10918345 613.118535773 510.387523848 610.405273438 495 c 0
 595.947265625 413 528.014648438 351 461.6640625 332 c 1
 517.611804465 321.921066988 547.734532945 289.174431103 547.734532945 226.836872382 c 0
 547.734532945 221.140131725 547.482969448 215.196268831 546.9765625 209 c 2
 530.124023438 0 l 1
 443.124023438 0 l 1
 460.389648438 200 l 2
 460.802775517 204.511022168 461.013388106 208.834977898 461.013388106 212.974101991 c 0
 461.013388106 262.970894847 430.284154703 286 354.553710938 286 c 2
 148.553710938 286 l 1
 98.1240234375 0 l 1
 12.1240234375 0 l 1
163.365234375 370 m 1
 357.365234375 370 l 2
 443.365234375 370 506.299804688 415 520.758789062 497 c 0
 522.509707708 506.930505698 523.378167484 516.347697444 523.378167484 525.230261785 c 0
 523.378167484 589.694443126 477.636717466 626 391.504882812 626 c 2
 208.504882812 626 l 1
 163.365234375 370 l 1
EndSplineSet
Validated: 1
Substitution2: "'ss04' Style Set 4 in Latin lookup 37 subtable" Racute.ss04
Substitution2: "'aalt' Access All Alternates in Latin lookup 0 subtable" Racute.ss04
EndChar

StartChar: Rcaron
Encoding: 344 344 90
Width: 672
GlyphClass: 2
Flags: HMW
HStem: 0 21G<92 92 92 178 523 523 523 610> 286 84<178 372 372 384 178 372> 626 84<178 361 178 178> 778 133<200 384 200 290>
VStem: 92 86<0 286 370 626> 513 90<456 538>
AnchorPoint: "Anchor-3" 381.875 710 basechar 0
AnchorPoint: "Anchor-0" 269.683 0 basechar 0
LayerCount: 2
Fore
SplineSet
280.317382812 911 m 1
 350.317382812 911 l 1
 401.624023438 822 l 1
 484.317382812 911 l 1
 554.317382812 911 l 1
 440.865234375 778 l 1
 346.865234375 778 l 1
 280.317382812 911 l 1
11.6826171875 0 m 1
 136.875 710 l 1
 405.875 710 l 2
 537.505902462 710 614.010143789 645.222934008 614.010143789 539.110749488 c 0
 614.010143789 525.108924321 612.678082206 510.387388423 609.96484375 495 c 0
 595.505859375 413 527.57421875 351 461.223632812 332 c 1
 517.170677166 321.921192662 547.293352054 289.175247734 547.293352054 226.839204226 c 0
 547.293352054 221.141753728 547.041714076 215.197114274 546.53515625 209 c 2
 529.682617188 0 l 1
 442.682617188 0 l 1
 459.948242188 200 l 2
 460.361369267 204.511022168 460.571981856 208.834977898 460.571981856 212.974101991 c 0
 460.571981856 262.970894847 429.842748453 286 354.112304688 286 c 2
 148.112304688 286 l 1
 97.6826171875 0 l 1
 11.6826171875 0 l 1
162.923828125 370 m 1
 356.923828125 370 l 2
 442.923828125 370 505.858398438 415 520.317382812 497 c 0
 522.068486439 506.930884056 522.937035304 516.348415043 522.937035304 525.231277074 c 0
 522.937035304 589.694824326 477.194859032 626 391.063476562 626 c 2
 208.063476562 626 l 1
 162.923828125 370 l 1
EndSplineSet
Validated: 1
Substitution2: "'ss04' Style Set 4 in Latin lookup 37 subtable" Rcaron.ss04
Substitution2: "'aalt' Access All Alternates in Latin lookup 0 subtable" Rcaron.ss04
EndChar

StartChar: uni0156
Encoding: 342 342 91
Width: 672
GlyphClass: 2
Flags: HMW
HStem: -143 90<300 336 300 400> 0 21G<92 92 92 178 523 523 523 610> 286 84<178 372 372 384 178 372> 626 84<178 361 178 178>
VStem: 92 86<0 286 370 626> 300 100<-135 -53 -135 -53 -135 -53> 513 90<456 538>
AnchorPoint: "Anchor-3" 420.755 710 basechar 0
AnchorPoint: "Anchor-0" 266.245 -240 basechar 0
LayerCount: 2
Fore
SplineSet
50.5634765625 0 m 1
 175.754882812 710 l 1
 444.754882812 710 l 2
 576.385785274 710 652.890026601 645.222934008 652.890026601 539.110749488 c 0
 652.890026601 525.108924321 651.557965019 510.387388423 648.844726562 495 c 0
 634.385742188 413 566.454101562 351 500.103515625 332 c 1
 556.050559978 321.921192662 586.173234867 289.175247734 586.173234867 226.839204226 c 0
 586.173234867 221.141753728 585.921596888 215.197114274 585.415039062 209 c 2
 568.563476562 0 l 1
 481.563476562 0 l 1
 498.828125 200 l 2
 499.241262422 204.511135097 499.451880923 208.835194389 499.451880923 212.974412845 c 0
 499.451880923 262.970990302 468.723450877 286 392.993164062 286 c 2
 186.993164062 286 l 1
 136.563476562 0 l 1
 50.5634765625 0 l 1
201.803710938 370 m 1
 395.803710938 370 l 2
 481.803710938 370 544.739257812 415 559.197265625 497 c 0
 560.948394633 506.931027996 561.816957618 516.348688043 561.816957618 525.231663324 c 0
 561.816957618 589.694969348 516.075546381 626 429.944335938 626 c 2
 246.944335938 626 l 1
 201.803710938 370 l 1
197.245117188 -240 m 1
 269.348632812 -143 l 1
 233.348632812 -143 l 1
 249.217773438 -53 l 1
 349.217773438 -53 l 1
 334.758789062 -135 l 1
 255.245117188 -240 l 1
 197.245117188 -240 l 1
EndSplineSet
Validated: 1
Substitution2: "'ss04' Style Set 4 in Latin lookup 37 subtable" uni0156.ss04
Substitution2: "'aalt' Access All Alternates in Latin lookup 0 subtable" uni0156.ss04
EndChar

StartChar: S
Encoding: 83 83 92
Width: 640
GlyphClass: 2
Flags: HMW
HStem: -16 84<281 387.5 281 408.5> 642 84<260 357>
VStem: 70 90<494.5 562 494.5 583.5> 495 90<143.5 213>
AnchorPoint: "Anchor-3" 368.596 710 basechar 0
AnchorPoint: "Anchor-0" 264.404 0 basechar 0
LayerCount: 2
Fore
SplineSet
270.583007812 -16 m 0
 117.550590925 -16 31.0900908847 70.2014106643 31.0900908847 198.729696916 c 0
 31.0900908847 207.94110905 31.534182667 217.369927023 32.4296875 227 c 1
 123.48828125 233 l 1
 123.302749538 228.807130096 123.209980086 224.687797698 123.209980086 220.642745481 c 0
 123.209980086 122.424778619 177.903844166 68 287.39453125 68 c 0
 386.39453125 68 451.270507812 107 464.142578125 180 c 0
 465.677515334 188.704975774 466.558627778 196.957657773 466.558627778 204.822289457 c 0
 466.558627778 256.586277616 428.387937286 291.539530038 287.239257812 328 c 0
 151.204431816 363.577022386 96.0450779551 405.177718878 96.0450779551 484.817074356 c 0
 96.0450779551 496.956438839 97.3266871055 509.97961885 99.798828125 524 c 0
 120.782226562 643 225.416992188 726 371.416992188 726 c 0
 520.829713234 726 596.00583058 637.936247691 596.00583058 516.281658484 c 0
 596.00583058 510.918174641 595.859708161 505.489399128 595.567382812 500 c 1
 504.509765625 494 l 1
 504.609145045 496.701157162 504.658969528 499.378638013 504.658969528 502.031265115 c 0
 504.658969528 583.833527918 457.276135503 642 354.60546875 642 c 0
 266.60546875 642 202.495117188 596 190.504882812 528 c 0
 189.044615769 519.718796384 188.250165173 512.094502622 188.250165173 505.021377569 c 0
 188.250165173 454.868596756 228.192574539 432.426798003 353.934570312 400 c 0
 502.447959886 361.615923543 558.700888609 304.967334787 558.700888609 223.415347022 c 0
 558.700888609 211.483583376 557.496725495 199.01873185 555.201171875 186 c 0
 533.3359375 62 415.583007812 -16 270.583007812 -16 c 0
EndSplineSet
Validated: 1
EndChar

StartChar: Sacute
Encoding: 346 346 93
Width: 640
GlyphClass: 2
Flags: HMW
HStem: -16 84<281 387.5 281 408.5> 642 84<260 357> 778 128<269 429 335 339>
VStem: 70 90<494.5 562 494.5 583.5> 495 90<143.5 213>
AnchorPoint: "Anchor-3" 352.727 710 basechar 0
AnchorPoint: "Anchor-0" 248.534 0 basechar 0
LayerCount: 2
Fore
SplineSet
327.716796875 778 m 1
 416.287109375 906 l 1
 510.287109375 906 l 1
 397.716796875 778 l 1
 327.716796875 778 l 1
254.712890625 -16 m 0
 101.680574388 -16 15.2209377413 70.2012972738 15.2209377413 198.729443314 c 0
 15.2209377413 207.940935992 15.6650338239 217.369838647 16.560546875 227 c 1
 107.619140625 233 l 1
 107.433534646 228.806324866 107.340728089 224.686215487 107.340728089 220.640414964 c 0
 107.340728089 122.423917691 162.03459298 68 271.524414062 68 c 0
 370.524414062 68 435.401367188 107 448.2734375 180 c 0
 449.808374709 188.704975774 450.689487153 196.957657773 450.689487153 204.822289457 c 0
 450.689487153 256.586277616 412.518796661 291.539530038 271.370117188 328 c 0
 135.335291191 363.577022386 80.1759373301 405.177718878 80.1759373301 484.817074356 c 0
 80.1759373301 496.956438839 81.4575464805 509.97961885 83.9296875 524 c 0
 104.913085938 643 209.547851562 726 355.547851562 726 c 0
 504.961350086 726 580.136576478 637.9353312 580.136576478 516.279759373 c 0
 580.136576478 510.916893156 579.990491802 505.488751231 579.698242188 500 c 1
 488.639648438 494 l 1
 488.739029718 496.701207752 488.78885517 499.378738305 488.78885517 502.031414156 c 0
 488.78885517 583.833598569 441.406932524 642 338.736328125 642 c 0
 250.736328125 642 186.625 596 174.634765625 528 c 0
 173.174704483 519.719279587 172.380367174 512.095392369 172.380367174 505.022615711 c 0
 172.380367174 454.868966107 212.322399172 432.427064846 338.065429688 400 c 0
 486.577949021 361.615928278 542.830773452 304.967348763 542.830773452 223.415377202 c 0
 542.830773452 211.483604394 541.626610243 199.018742826 539.331054688 186 c 0
 517.466796875 62 399.712890625 -16 254.712890625 -16 c 0
EndSplineSet
Validated: 1
EndChar

StartChar: Scaron
Encoding: 352 352 94
Width: 640
GlyphClass: 2
Flags: HMW
HStem: -16 84<281 387.5 281 408.5> 642 84<260 357> 778 133<169 353 169 259>
VStem: 70 90<494.5 562 494.5 583.5> 495 90<143.5 213>
AnchorPoint: "Anchor-3" 352.286 710 basechar 0
AnchorPoint: "Anchor-0" 248.094 0 basechar 0
LayerCount: 2
Fore
SplineSet
250.727539062 911 m 1
 320.727539062 911 l 1
 372.034179688 822 l 1
 454.727539062 911 l 1
 524.727539062 911 l 1
 411.276367188 778 l 1
 317.276367188 778 l 1
 250.727539062 911 l 1
254.272460938 -16 m 0
 101.240746234 -16 14.7803374529 70.200619602 14.7803374529 198.727927677 c 0
 14.7803374529 207.939901718 15.2244897088 217.369310472 16.1201171875 227 c 1
 107.177734375 233 l 1
 106.992202663 228.807130096 106.899433211 224.687797698 106.899433211 220.642745481 c 0
 106.899433211 122.424778619 161.593297291 68 271.083984375 68 c 0
 370.083984375 68 434.9609375 107 447.833007812 180 c 0
 449.367755414 188.704630907 450.248764029 196.957003876 450.248764029 204.821354732 c 0
 450.248764029 256.585856839 412.07908777 291.539310577 270.928710938 328 c 0
 134.894124803 363.576959655 79.7354609074 405.177572175 79.7354609074 484.816653087 c 0
 79.7354609074 496.956137546 81.0170881963 509.979456669 83.4892578125 524 c 0
 104.471679688 643 209.107421875 726 355.107421875 726 c 0
 504.520067738 726 579.695288782 637.936336316 579.695288782 516.28184213 c 0
 579.695288782 510.918298563 579.549164623 505.489461781 579.256835938 500 c 1
 488.19921875 494 l 1
 488.298600031 496.701207752 488.348425483 499.378738305 488.348425483 502.031414156 c 0
 488.348425483 583.833598569 440.966502837 642 338.295898438 642 c 0
 250.295898438 642 186.184570312 596 174.194335938 528 c 0
 172.734250765 519.719143298 171.939896422 512.095141412 171.939896422 505.022266487 c 0
 171.939896422 454.86886193 211.881284775 432.426989582 337.624023438 400 c 0
 486.137413011 361.615923543 542.390341734 304.967334787 542.390341734 223.415347022 c 0
 542.390341734 211.483583376 541.18617862 199.01873185 538.890625 186 c 0
 517.026367188 62 399.272460938 -16 254.272460938 -16 c 0
EndSplineSet
Validated: 1
EndChar

StartChar: Scedilla
Encoding: 350 350 95
Width: 640
GlyphClass: 2
Flags: HMW
HStem: -220 56<298.5 332 298.5 349.5> -80 44<293 333> -80 148<293 325> -13 21G<288 288> 642 84<260 357>
VStem: 70 90<494.5 562 494.5 583.5> 369 60<-136.5 -111.5> 495 90<143.5 213>
AnchorPoint: "Anchor-3" 386.581 710 basechar 0
AnchorPoint: "Anchor-0" 282.39 0 basechar 0
LayerCount: 2
Fore
SplineSet
233.59765625 -220 m 0xcf
 169.59765625 -220 136.592773438 -186 130.350585938 -142 c 1
 184.876953125 -122 l 1
 191.587890625 -152 208.471679688 -164 241.471679688 -164 c 0
 275.471679688 -164 298.116210938 -149 302.524414062 -124 c 0
 303.132614675 -120.55074531 303.492253455 -117.215705255 303.492253455 -114.029022636 c 0
 303.492253455 -94.1188125514 289.453111118 -80 234.283203125 -80 c 1xcf
 211.573242188 -50 l 1
 241.096679688 -13 l 1x9f
 117.900087984 2.74670153141 49.100287551 83.7005113434 49.100287551 198.86678702 c 0
 49.100287551 208.033006158 49.5361174343 217.415952887 50.4150390625 227 c 1
 141.473632812 233 l 1
 141.2881011 228.807130096 141.195331648 224.687797698 141.195331648 220.642745481 c 0
 141.195331648 122.424778619 195.889195728 68 305.379882812 68 c 0xaf
 404.379882812 68 469.255859375 107 482.127929688 180 c 0
 483.662866896 188.704975774 484.54397934 196.957657773 484.54397934 204.822289457 c 0
 484.54397934 256.586277616 446.373288848 291.539530038 305.224609375 328 c 0
 169.189783379 363.577022386 114.030429518 405.177718878 114.030429518 484.817074356 c 0
 114.030429518 496.956438839 115.312038668 509.97961885 117.784179688 524 c 0
 138.767578125 643 243.40234375 726 389.40234375 726 c 0
 538.815064796 726 613.991182142 637.936247691 613.991182142 516.281658484 c 0
 613.991182142 510.918174641 613.845059724 505.489399128 613.552734375 500 c 1
 522.495117188 494 l 1
 522.594496607 496.701157162 522.64432109 499.378638013 522.64432109 502.031265115 c 0
 522.64432109 583.833527918 475.261487066 642 372.590820312 642 c 0
 284.590820312 642 220.48046875 596 208.490234375 528 c 0
 207.029967331 519.718796384 206.235516736 512.094502622 206.235516736 505.021377569 c 0
 206.235516736 454.868596756 246.177926102 432.426798003 371.919921875 400 c 0
 520.433311448 361.615923543 576.686240172 304.967334787 576.686240172 223.415347022 c 0
 576.686240172 211.483583376 575.482077057 199.01873185 573.186523438 186 c 0
 551.850585938 65 440.2734375 -12 300.568359375 -16 c 1
 282.041015625 -36 l 1
 337.913987156 -38.5998844051 364.012891937 -65.2331871924 364.012891937 -106.136766229 c 0
 364.012891937 -112.431722968 363.394754336 -119.064663022 362.171875 -126 c 0
 352.297851562 -182 298.59765625 -220 233.59765625 -220 c 0xcf
EndSplineSet
Validated: 1
Substitution2: "'locl' Localized Forms in Latin lookup 10 subtable" uni0218
Substitution2: "'aalt' Access All Alternates in Latin lookup 0 subtable" uni0218
EndChar

StartChar: Scircumflex
Encoding: 348 348 96
Width: 640
GlyphClass: 2
Flags: HMW
HStem: -16 84<281 387.5 281 408.5> 642 84<260 357> 778 133<169 353 169 353 259 373 259 443>
VStem: 70 90<494.5 562 494.5 583.5> 495 90<143.5 213>
AnchorPoint: "Anchor-3" 352.286 710 basechar 0
AnchorPoint: "Anchor-0" 248.094 0 basechar 0
LayerCount: 2
Fore
SplineSet
227.276367188 778 m 1
 340.727539062 911 l 1
 434.727539062 911 l 1
 501.276367188 778 l 1
 431.276367188 778 l 1
 379.96875 867 l 1
 297.276367188 778 l 1
 227.276367188 778 l 1
254.272460938 -16 m 0
 101.240746234 -16 14.7803374529 70.200619602 14.7803374529 198.727927677 c 0
 14.7803374529 207.939901718 15.2244897088 217.369310472 16.1201171875 227 c 1
 107.177734375 233 l 1
 106.992202663 228.807130096 106.899433211 224.687797698 106.899433211 220.642745481 c 0
 106.899433211 122.424778619 161.593297291 68 271.083984375 68 c 0
 370.083984375 68 434.9609375 107 447.833007812 180 c 0
 449.367755414 188.704630907 450.248764029 196.957003876 450.248764029 204.821354732 c 0
 450.248764029 256.585856839 412.07908777 291.539310577 270.928710938 328 c 0
 134.894124803 363.576959655 79.7354609074 405.177572175 79.7354609074 484.816653087 c 0
 79.7354609074 496.956137546 81.0170881963 509.979456669 83.4892578125 524 c 0
 104.471679688 643 209.107421875 726 355.107421875 726 c 0
 504.520067738 726 579.695288782 637.936336316 579.695288782 516.28184213 c 0
 579.695288782 510.918298563 579.549164623 505.489461781 579.256835938 500 c 1
 488.19921875 494 l 1
 488.298600031 496.701207752 488.348425483 499.378738305 488.348425483 502.031414156 c 0
 488.348425483 583.833598569 440.966502837 642 338.295898438 642 c 0
 250.295898438 642 186.184570312 596 174.194335938 528 c 0
 172.734250765 519.719143298 171.939896422 512.095141412 171.939896422 505.022266487 c 0
 171.939896422 454.86886193 211.881284775 432.426989582 337.624023438 400 c 0
 486.137413011 361.615923543 542.390341734 304.967334787 542.390341734 223.415347022 c 0
 542.390341734 211.483583376 541.18617862 199.01873185 538.890625 186 c 0
 517.026367188 62 399.272460938 -16 254.272460938 -16 c 0
EndSplineSet
Validated: 1
EndChar

StartChar: uni0218
Encoding: 536 536 97
Width: 640
GlyphClass: 2
Flags: HMW
HStem: -143 90<277 313 277 377> -16 84<281 387.5 281 408.5> 642 84<260 357>
VStem: 70 90<494.5 562 494.5 583.5> 277 100<-135 -53 -135 -53 -135 -53> 495 90<143.5 213>
AnchorPoint: "Anchor-3" 388.345 710 basechar 0
AnchorPoint: "Anchor-0" 241.834 -240 basechar 0
LayerCount: 2
Fore
SplineSet
290.331054688 -16 m 0
 137.29873845 -16 50.8391018038 70.2012972738 50.8391018038 198.729443314 c 0
 50.8391018038 207.940935992 51.2831978864 217.369838647 52.1787109375 227 c 1
 143.236328125 233 l 1
 143.050796413 228.807130096 142.958026961 224.687797698 142.958026961 220.642745481 c 0
 142.958026961 122.424778619 197.651891041 68 307.142578125 68 c 0
 406.142578125 68 471.01953125 107 483.891601562 180 c 0
 485.426538771 188.704975774 486.307651215 196.957657773 486.307651215 204.822289457 c 0
 486.307651215 256.586277616 448.136960723 291.539530038 306.98828125 328 c 0
 170.952829441 363.576964436 115.794056917 405.177583356 115.794056917 484.816685195 c 0
 115.794056917 496.95616051 117.075684126 509.97946903 119.547851562 524 c 0
 140.53125 643 245.166015625 726 391.166015625 726 c 0
 540.579514148 726 615.754740541 637.9353312 615.754740541 516.279759373 c 0
 615.754740541 510.916893156 615.608655865 505.488751231 615.31640625 500 c 1
 524.2578125 494 l 1
 524.357193781 496.701207752 524.407019233 499.378738305 524.407019233 502.031414156 c 0
 524.407019233 583.833598569 477.025096587 642 374.354492188 642 c 0
 286.354492188 642 222.243164062 596 210.252929688 528 c 0
 208.792846209 519.719152908 207.998492016 512.095159108 207.998492016 505.022291112 c 0
 207.998492016 454.868869276 247.939978644 432.426994889 373.68359375 400 c 0
 522.196113084 361.615928278 578.448937515 304.967348763 578.448937515 223.415377202 c 0
 578.448937515 211.483604394 577.244774305 199.018742826 574.94921875 186 c 0
 553.084960938 62 435.331054688 -16 290.331054688 -16 c 0
172.833984375 -240 m 1
 244.9375 -143 l 1
 208.9375 -143 l 1
 224.807617188 -53 l 1
 324.807617188 -53 l 1
 310.348632812 -135 l 1
 230.833984375 -240 l 1
 172.833984375 -240 l 1
EndSplineSet
Validated: 1
EndChar

StartChar: uni1E9E
Encoding: 7838 7838 98
Width: 692
GlyphClass: 2
Flags: HMW
HStem: 0 84<92 379 245 379 245 379> 353 75<265 374> 626 84<255.5 583 292 473>
VStem: 92 86<0 501 0 565.5> 540 90<176.5 261>
AnchorPoint: "Anchor-3" 408.596 710 basechar 0
AnchorPoint: "Anchor-0" 283.404 0 basechar 0
LayerCount: 2
Fore
SplineSet
29.404296875 0 m 1
 117.744140625 501 l 2
 140.490234375 630 231.595703125 710 354.595703125 710 c 2
 645.595703125 710 l 1
 629.374023438 618 l 1
 386.872070312 428 l 1
 537.272350223 421.834813304 610.383208301 364.473120859 610.383208301 264.113260746 c 0
 610.383208301 250.523770184 609.042704224 236.145898517 606.372070312 221 c 0
 582.744140625 87 468.404296875 0 316.404296875 0 c 2
 182.404296875 0 l 1
 197.215820312 84 l 1
 331.215820312 84 l 2
 430.215820312 84 501.208007812 135 515.842773438 218 c 0
 517.417247606 226.929320787 518.188319925 235.459762115 518.188319925 243.577891968 c 0
 518.188319925 313.647026754 460.745383233 353 366.647460938 353 c 2
 264.647460938 353 l 1
 278.224609375 430 l 1
 520.784179688 626 l 1
 339.784179688 626 l 2
 266.784179688 626 218.026367188 582 203.744140625 501 c 2
 115.404296875 0 l 1
 29.404296875 0 l 1
EndSplineSet
Validated: 1
EndChar

StartChar: T
Encoding: 84 84 99
Width: 552
GlyphClass: 2
Flags: HMW
HStem: 0 21G<233 233 233 319> 626 84<12 233 12 540 319 319 319 540>
VStem: 233 86<0 626 0 626>
AnchorPoint: "Anchor-3" 338.596 710 basechar 0
AnchorPoint: "Anchor-1" 274.766 348 basechar 0
AnchorPoint: "Anchor-0" 213.404 0 basechar 0
LayerCount: 2
Fore
SplineSet
170.404296875 0 m 1
 280.784179688 626 l 1
 59.7841796875 626 l 1
 74.595703125 710 l 1
 602.595703125 710 l 1
 587.784179688 626 l 1
 366.784179688 626 l 1
 256.404296875 0 l 1
 170.404296875 0 l 1
EndSplineSet
Validated: 1
EndChar

StartChar: Tbar
Encoding: 358 358 100
Width: 552
GlyphClass: 2
Flags: HMW
HStem: 0 21G<233 233 233 319> 309 78<96 233 96 233 319 456> 626 84<12 233 12 540 319 319 319 540>
VStem: 233 86<0 309 0 309 387 626>
AnchorPoint: "Anchor-3" 338.596 710 basechar 0
AnchorPoint: "Anchor-1" 274.766 348 basechar 0
AnchorPoint: "Anchor-0" 213.404 0 basechar 0
LayerCount: 2
Fore
SplineSet
170.404296875 0 m 1
 224.888671875 309 l 1
 87.888671875 309 l 1
 101.642578125 387 l 1
 238.642578125 387 l 1
 280.784179688 626 l 1
 59.7841796875 626 l 1
 74.595703125 710 l 1
 602.595703125 710 l 1
 587.784179688 626 l 1
 366.784179688 626 l 1
 324.642578125 387 l 1
 461.642578125 387 l 1
 447.888671875 309 l 1
 310.888671875 309 l 1
 256.404296875 0 l 1
 170.404296875 0 l 1
EndSplineSet
Validated: 1
EndChar

StartChar: Tcaron
Encoding: 356 356 101
Width: 552
GlyphClass: 2
Flags: HMW
HStem: 0 21G<233 233 233 319> 626 84<12 233 12 540 319 319 319 540> 778 133<139 323 139 229>
VStem: 233 86<0 626 0 626>
AnchorPoint: "Anchor-3" 320.875 710 basechar 0
AnchorPoint: "Anchor-1" 257.045 348 basechar 0
AnchorPoint: "Anchor-0" 195.683 0 basechar 0
LayerCount: 2
Fore
SplineSet
219.317382812 911 m 1
 289.317382812 911 l 1
 340.624023438 822 l 1
 423.317382812 911 l 1
 493.317382812 911 l 1
 379.865234375 778 l 1
 285.865234375 778 l 1
 219.317382812 911 l 1
152.682617188 0 m 1
 263.063476562 626 l 1
 42.0634765625 626 l 1
 56.875 710 l 1
 584.875 710 l 1
 570.063476562 626 l 1
 349.063476562 626 l 1
 238.682617188 0 l 1
 152.682617188 0 l 1
EndSplineSet
Validated: 1
EndChar

StartChar: uni0162
Encoding: 354 354 102
Width: 552
GlyphClass: 2
Flags: HMW
HStem: -220 56<247.5 281 247.5 298.5> -80 44<242 282> 0 21G<233 233 233 246 309 309 309 319> 626 84<12 233 12 540 319 319 319 540>
VStem: 233 86<0 626 0 626> 318 60<-136.5 -111.5>
AnchorPoint: "Anchor-3" 357.992 710 basechar 0
AnchorPoint: "Anchor-1" 294.162 348 basechar 0
AnchorPoint: "Anchor-0" 232.8 0 basechar 0
LayerCount: 2
Fore
SplineSet
189.799804688 0 m 1xf8
 300.180664062 626 l 1
 79.1806640625 626 l 1
 93.9921875 710 l 1
 621.9921875 710 l 1
 607.180664062 626 l 1
 386.180664062 626 l 1
 275.799804688 0 l 1
 265.799804688 0 l 1xf8
 232.452148438 -36 l 1
 288.324466947 -38.5998933997 314.423979588 -65.233371474 314.423979588 -106.137190759 c 0
 314.423979588 -112.432021184 313.805859658 -119.064818928 312.583007812 -126 c 0
 302.708007812 -182 249.0078125 -220 184.0078125 -220 c 0
 120.0078125 -220 87.0029296875 -186 80.76171875 -142 c 1
 135.288085938 -122 l 1
 141.998046875 -152 158.881835938 -164 191.881835938 -164 c 0
 225.881835938 -164 248.52734375 -149 252.935546875 -124 c 0xf4
 253.543720388 -120.550898997 253.90333563 -117.216002452 253.90333563 -114.029448601 c 0
 253.90333563 -94.1190139265 239.863660807 -80 184.693359375 -80 c 1
 161.983398438 -50 l 1
 202.799804688 0 l 1
 189.799804688 0 l 1xf8
EndSplineSet
Validated: 1
Substitution2: "'locl' Localized Forms in Latin lookup 10 subtable" uni021A
Substitution2: "'aalt' Access All Alternates in Latin lookup 0 subtable" uni021A
EndChar

StartChar: uni021A
Encoding: 538 538 103
Width: 552
GlyphClass: 2
Flags: HMW
HStem: -143 90<226 262 226 326> 0 21G<233 233 233 319> 626 84<12 233 12 540 319 319 319 540>
VStem: 226 93<-143 626 -53 626> 233 86<0 626 0 626> 233 93<-135 626>
AnchorPoint: "Anchor-3" 359.755 710 basechar 0
AnchorPoint: "Anchor-1" 295.925 348 basechar 0
AnchorPoint: "Anchor-0" 192.245 -240 basechar 0
LayerCount: 2
Fore
SplineSet
191.563476562 0 m 1xe8
 301.944335938 626 l 1
 80.9443359375 626 l 1
 95.7548828125 710 l 1
 623.754882812 710 l 1
 608.944335938 626 l 1
 387.944335938 626 l 1
 277.563476562 0 l 1
 191.563476562 0 l 1xe8
123.245117188 -240 m 1
 195.348632812 -143 l 1
 159.348632812 -143 l 1
 175.217773438 -53 l 1xf0
 275.217773438 -53 l 1
 260.758789062 -135 l 1xe4
 181.245117188 -240 l 1
 123.245117188 -240 l 1
EndSplineSet
Validated: 1
EndChar

StartChar: U
Encoding: 85 85 104
Width: 689
GlyphClass: 2
Flags: HMW
HStem: -16 84<287 402.5 287 427> 691 20G<77 163 163 163 526 612 612 612>
VStem: 77 86<248 711> 526 86<248 711>
AnchorPoint: "Anchor-3" 408.919 710 basechar 0
AnchorPoint: "Anchor-2" 396.255 3 basechar 0
AnchorPoint: "Anchor-0" 283.727 0 basechar 0
LayerCount: 2
Fore
SplineSet
280.905273438 -16 m 0
 137.054417567 -16 53.9985066973 61.5277506314 53.9985066973 188.75186759 c 0
 53.9985066973 207.456526453 55.7937827546 227.235385764 59.455078125 248 c 2
 141.094726562 711 l 1
 227.094726562 711 l 1
 145.455078125 248 l 2
 142.673148381 232.222690874 141.299427366 217.386491325 141.299427366 203.530135728 c 0
 141.299427366 116.388223439 195.631299994 68 295.716796875 68 c 0
 410.716796875 68 488.177734375 133 508.455078125 248 c 2
 590.094726562 711 l 1
 676.094726562 711 l 1
 594.455078125 248 l 2
 565.890625 86 444.905273438 -16 280.905273438 -16 c 0
EndSplineSet
Validated: 1
EndChar

StartChar: Uacute
Encoding: 218 218 105
Width: 689
GlyphClass: 2
Flags: HMW
HStem: -16 84<287 402.5 287 427> 691 20G<77 163 163 163 526 612 612 612> 778 128<308 468 374 378>
VStem: 77 86<248 711> 526 86<248 711>
AnchorPoint: "Anchor-3" 391.727 710 basechar 0
AnchorPoint: "Anchor-2" 379.063 3 basechar 0
AnchorPoint: "Anchor-0" 266.534 0 basechar 0
LayerCount: 2
Fore
SplineSet
366.716796875 778 m 1
 455.287109375 906 l 1
 549.287109375 906 l 1
 436.716796875 778 l 1
 366.716796875 778 l 1
263.712890625 -16 m 0
 119.862595149 -16 36.8067710021 61.5271465879 36.8067710021 188.750380723 c 0
 36.8067710021 207.455478281 38.6021543144 227.234835558 42.263671875 248 c 2
 123.903320312 711 l 1
 209.903320312 711 l 1
 128.263671875 248 l 2
 125.481710014 232.222508727 124.107971016 217.386148761 124.107971016 203.529655819 c 0
 124.107971016 116.388045782 178.439100912 68 278.524414062 68 c 0
 393.524414062 68 470.986328125 133 491.263671875 248 c 2
 572.903320312 711 l 1
 658.903320312 711 l 1
 577.263671875 248 l 2
 548.698242188 86 427.712890625 -16 263.712890625 -16 c 0
EndSplineSet
Validated: 1
EndChar

StartChar: Ubreve
Encoding: 364 364 106
Width: 689
GlyphClass: 2
Flags: HMW
HStem: -16 84<287 402.5 287 427> 691 20G<77 163 163 163 526 612 612 612> 783 62<322 368 322 386>
VStem: 77 86<248 711> 526 86<248 711>
AnchorPoint: "Anchor-3" 391.286 710 basechar 0
AnchorPoint: "Anchor-2" 378.623 3 basechar 0
AnchorPoint: "Anchor-0" 266.094 0 basechar 0
LayerCount: 2
Fore
SplineSet
404.157226562 783 m 0
 329.546407992 783 285.415753343 824.39481148 285.415753343 890.611991288 c 0
 285.415753343 897.169897563 285.848595368 903.971266445 286.727539062 911 c 1
 344.727539062 911 l 1
 344.649104437 909.291126465 344.610119338 907.618135003 344.610119338 905.980718 c 0
 344.610119338 863.541624608 370.798717285 845 415.08984375 845 c 0
 461.08984375 845 493.616210938 865 507.727539062 911 c 1
 565.727539062 911 l 1
 547.973632812 833 486.157226562 783 404.157226562 783 c 0
263.272460938 -16 m 0
 119.422165462 -16 36.3663413146 61.5271465879 36.3663413146 188.750380723 c 0
 36.3663413146 207.455478281 38.1617246269 227.234835558 41.8232421875 248 c 2
 123.461914062 711 l 1
 209.461914062 711 l 1
 127.823242188 248 l 2
 125.041077471 232.222118129 123.667242109 217.385414165 123.667242109 203.5286267 c 0
 123.667242109 116.387664816 177.999065219 68 278.083984375 68 c 0
 393.083984375 68 470.544921875 133 490.823242188 248 c 2
 572.461914062 711 l 1
 658.461914062 711 l 1
 576.823242188 248 l 2
 548.2578125 86 427.272460938 -16 263.272460938 -16 c 0
EndSplineSet
Validated: 1
EndChar

StartChar: Ucircumflex
Encoding: 219 219 107
Width: 689
GlyphClass: 2
Flags: HMW
HStem: -16 84<287 402.5 287 427> 691 20G<77 163 163 163 526 612 612 612> 778 133<208 392 208 392 298 412 298 482>
VStem: 77 86<248 711> 526 86<248 711>
AnchorPoint: "Anchor-3" 391.286 710 basechar 0
AnchorPoint: "Anchor-2" 378.623 3 basechar 0
AnchorPoint: "Anchor-0" 266.094 0 basechar 0
LayerCount: 2
Fore
SplineSet
266.276367188 778 m 1
 379.727539062 911 l 1
 473.727539062 911 l 1
 540.276367188 778 l 1
 470.276367188 778 l 1
 418.96875 867 l 1
 336.276367188 778 l 1
 266.276367188 778 l 1
263.272460938 -16 m 0
 119.422165462 -16 36.3663413146 61.5271465879 36.3663413146 188.750380723 c 0
 36.3663413146 207.455478281 38.1617246269 227.234835558 41.8232421875 248 c 2
 123.461914062 711 l 1
 209.461914062 711 l 1
 127.823242188 248 l 2
 125.041077471 232.222118129 123.667242109 217.385414165 123.667242109 203.5286267 c 0
 123.667242109 116.387664816 177.999065219 68 278.083984375 68 c 0
 393.083984375 68 470.544921875 133 490.823242188 248 c 2
 572.461914062 711 l 1
 658.461914062 711 l 1
 576.823242188 248 l 2
 548.2578125 86 427.272460938 -16 263.272460938 -16 c 0
EndSplineSet
Validated: 1
EndChar

StartChar: Udieresis
Encoding: 220 220 108
Width: 689
GlyphClass: 2
Flags: HMW
HStem: -16 84<287 402.5 287 427> 691 20G<77 163 163 163 526 612 612 612> 793 98<214 302 214 302 388 476 214 388>
VStem: 77 86<248 711> 214 88<793 891 793 891> 388 88<793 891 793 891> 526 86<248 711>
AnchorPoint: "Anchor-3" 393.049 710 basechar 0
AnchorPoint: "Anchor-2" 380.386 3 basechar 0
AnchorPoint: "Anchor-0" 267.857 0 basechar 0
LayerCount: 2
Fore
SplineSet
276.684570312 793 m 1
 293.963867188 891 l 1
 381.963867188 891 l 1
 364.684570312 793 l 1
 276.684570312 793 l 1
450.684570312 793 m 1
 467.963867188 891 l 1
 555.963867188 891 l 1
 538.684570312 793 l 1
 450.684570312 793 l 1
265.036132812 -16 m 0
 121.185276942 -16 38.1293660723 61.5277506314 38.1293660723 188.75186759 c 0
 38.1293660723 207.456526453 39.9246421296 227.235385764 43.5859375 248 c 2
 125.225585938 711 l 1
 211.225585938 711 l 1
 129.5859375 248 l 2
 126.804007756 232.222690874 125.430286741 217.386491325 125.430286741 203.530135728 c 0
 125.430286741 116.388223439 179.762159369 68 279.84765625 68 c 0
 394.84765625 68 472.30859375 133 492.5859375 248 c 2
 574.225585938 711 l 1
 660.225585938 711 l 1
 578.5859375 248 l 2
 550.021484375 86 429.036132812 -16 265.036132812 -16 c 0
EndSplineSet
Validated: 1
Substitution2: "'ss08' Style Set 8 in Latin lookup 41 subtable" Udieresis.ss08
Substitution2: "'aalt' Access All Alternates in Latin lookup 0 subtable" Udieresis.ss08
EndChar

StartChar: Ugrave
Encoding: 217 217 109
Width: 689
GlyphClass: 2
Flags: HMW
HStem: -16 84<287 402.5 287 427> 691 20G<77 163 163 163 526 612 612 612> 783 128<314 314 314 318 224 384>
VStem: 77 86<248 711> 526 86<248 711>
AnchorPoint: "Anchor-3" 391.286 710 basechar 0
AnchorPoint: "Anchor-2" 378.623 3 basechar 0
AnchorPoint: "Anchor-0" 266.094 0 basechar 0
LayerCount: 2
Fore
SplineSet
373.157226562 783 m 1
 305.727539062 911 l 1
 399.727539062 911 l 1
 443.157226562 783 l 1
 373.157226562 783 l 1
263.272460938 -16 m 0
 119.422165462 -16 36.3663413146 61.5271465879 36.3663413146 188.750380723 c 0
 36.3663413146 207.455478281 38.1617246269 227.234835558 41.8232421875 248 c 2
 123.461914062 711 l 1
 209.461914062 711 l 1
 127.823242188 248 l 2
 125.041077471 232.222118129 123.667242109 217.385414165 123.667242109 203.5286267 c 0
 123.667242109 116.387664816 177.999065219 68 278.083984375 68 c 0
 393.083984375 68 470.544921875 133 490.823242188 248 c 2
 572.461914062 711 l 1
 658.461914062 711 l 1
 576.823242188 248 l 2
 548.2578125 86 427.272460938 -16 263.272460938 -16 c 0
EndSplineSet
Validated: 1
EndChar

StartChar: Uhungarumlaut
Encoding: 368 368 110
Width: 689
GlyphClass: 2
Flags: HMW
HStem: -16 84<287 402.5 287 427> 691 20G<77 163 163 163 526 612 612 612> 778 128<241 401 307 311 372 401 438 442 372 372>
VStem: 77 86<248 711> 526 86<248 711>
AnchorPoint: "Anchor-3" 391.727 710 basechar 0
AnchorPoint: "Anchor-2" 379.063 3 basechar 0
AnchorPoint: "Anchor-0" 266.534 0 basechar 0
LayerCount: 2
Fore
SplineSet
299.716796875 778 m 1
 388.287109375 906 l 1
 482.287109375 906 l 1
 369.716796875 778 l 1
 299.716796875 778 l 1
430.716796875 778 m 1
 519.287109375 906 l 1
 613.287109375 906 l 1
 500.716796875 778 l 1
 430.716796875 778 l 1
263.712890625 -16 m 0
 119.862595149 -16 36.8067710021 61.5271465879 36.8067710021 188.750380723 c 0
 36.8067710021 207.455478281 38.6021543144 227.234835558 42.263671875 248 c 2
 123.903320312 711 l 1
 209.903320312 711 l 1
 128.263671875 248 l 2
 125.481710014 232.222508727 124.107971016 217.386148761 124.107971016 203.529655819 c 0
 124.107971016 116.388045782 178.439100912 68 278.524414062 68 c 0
 393.524414062 68 470.986328125 133 491.263671875 248 c 2
 572.903320312 711 l 1
 658.903320312 711 l 1
 577.263671875 248 l 2
 548.698242188 86 427.712890625 -16 263.712890625 -16 c 0
EndSplineSet
Validated: 1
EndChar

StartChar: Umacron
Encoding: 362 362 111
Width: 689
GlyphClass: 2
Flags: HMW
HStem: -16 84<287 402.5 287 427> 691 20G<77 163 163 163 526 612 612 612> 805 72<211 479 211 479>
VStem: 77 86<248 711> 211 268<805 877 805 877> 526 86<248 711>
AnchorPoint: "Anchor-3" 394.283 710 basechar 0
AnchorPoint: "Anchor-2" 381.62 3 basechar 0
AnchorPoint: "Anchor-0" 269.091 0 basechar 0
LayerCount: 2
Fore
SplineSet
277.034179688 805 m 1
 289.73046875 877 l 1
 557.73046875 877 l 1
 545.034179688 805 l 1
 277.034179688 805 l 1
266.26953125 -16 m 0
 122.419235774 -16 39.3634116271 61.5271465879 39.3634116271 188.750380723 c 0
 39.3634116271 207.455478281 41.1587949394 227.234835558 44.8203125 248 c 2
 126.459960938 711 l 1
 212.459960938 711 l 1
 130.8203125 248 l 2
 128.038350639 232.222508727 126.664611641 217.386148761 126.664611641 203.529655819 c 0
 126.664611641 116.388045782 180.995741537 68 281.081054688 68 c 0
 396.081054688 68 473.54296875 133 493.8203125 248 c 2
 575.459960938 711 l 1
 661.459960938 711 l 1
 579.8203125 248 l 2
 551.254882812 86 430.26953125 -16 266.26953125 -16 c 0
EndSplineSet
Validated: 1
EndChar

StartChar: Uogonek
Encoding: 370 370 112
Width: 689
GlyphClass: 2
Flags: HMW
HStem: -207 68<411.5 423.5> -16 84<287 350> 691 20G<77 163 163 163 526 612 612 612>
VStem: 77 86<248 711> 313 78<-121 -118> 526 86<248 711>
AnchorPoint: "Anchor-3" 425.758 710 basechar 0
AnchorPoint: "Anchor-2" 413.095 3 basechar 0
AnchorPoint: "Anchor-0" 300.565 0 basechar 0
LayerCount: 2
Fore
SplineSet
297.744140625 -16 m 0
 153.893845149 -16 70.8380210021 61.5271465879 70.8380210021 188.750380723 c 0
 70.8380210021 207.455478281 72.6334043144 227.234835558 76.294921875 248 c 2
 157.934570312 711 l 1
 243.934570312 711 l 1
 162.294921875 248 l 2
 159.512757158 232.222118129 158.138921796 217.385414165 158.138921796 203.5286267 c 0
 158.138921796 116.387664816 212.470744906 68 312.555664062 68 c 0
 427.555664062 68 505.016601562 133 525.294921875 248 c 2
 606.934570312 711 l 1
 692.934570312 711 l 1
 611.294921875 248 l 2
 589.958984375 127 516.442382812 39 413.094726562 3 c 1
 369.630859375 -45 l 2
 338.458984375 -80 329.461914062 -97 326.640625 -113 c 0
 326.327456693 -114.776029612 326.175176651 -116.478130759 326.175176651 -118.100832643 c 0
 326.175176651 -131.096822907 335.942695525 -139 351.055664062 -139 c 0
 370.055664062 -139 386.9375 -134 401.524414062 -125 c 1
 415.650390625 -181 l 1
 398.005859375 -196 360.065429688 -207 325.065429688 -207 c 0
 273.974804191 -207 243.155948472 -187.71836001 243.155948472 -150.595300861 c 0
 243.155948472 -146.301478714 243.568252045 -141.768968898 244.409179688 -137 c 0
 251.109375 -99 288.69140625 -56 322.215820312 -19 c 2
 325.920898438 -15 l 1
 316.744140625 -16 307.744140625 -16 297.744140625 -16 c 0
EndSplineSet
Validated: 1
EndChar

StartChar: Uring
Encoding: 366 366 113
Width: 689
GlyphClass: 2
Flags: HMW
HStem: -16 84<287 402.5 287 427> 691 20G<77 163 163 163 526 612 612 612> 756 50<333 357 333 371> 890 50<333 357>
VStem: 77 86<248 711> 253 50<836 860 836 874> 387 50<836 860> 526 86<248 711>
AnchorPoint: "Anchor-3" 388.729 710 basechar 0
AnchorPoint: "Anchor-2" 376.065 3 basechar 0
AnchorPoint: "Anchor-0" 263.537 0 basechar 0
LayerCount: 2
Fore
SplineSet
396.83984375 756 m 0
 350.679903709 756 319.534203784 787.519823441 319.534203784 830.973562397 c 0
 319.534203784 836.471239403 320.032746339 842.159940041 321.0625 848 c 0
 330.231445312 900 377.284179688 940 429.284179688 940 c 0
 475.444247813 940 506.590762031 908.480001637 506.590762031 865.026075877 c 0
 506.590762031 859.528511067 506.092231077 853.839931875 505.0625 848 c 0
 495.893554688 796 448.83984375 756 396.83984375 756 c 0
405.65625 806 m 0
 429.65625 806 450.830078125 824 455.0625 848 c 0
 455.546626346 850.745877933 455.781288297 853.413215808 455.781288297 855.984041839 c 0
 455.781288297 875.883196724 441.721895504 890 420.467773438 890 c 0
 396.467773438 890 375.293945312 872 371.0625 848 c 0
 370.578171517 845.253609413 370.343413375 842.585788214 370.343413375 840.014518256 c 0
 370.343413375 820.116122284 384.402640587 806 405.65625 806 c 0
260.715820312 -16 m 0
 116.864964442 -16 33.8090535723 61.5277506314 33.8090535723 188.75186759 c 0
 33.8090535723 207.456526453 35.6043296296 227.235385764 39.265625 248 c 2
 120.905273438 711 l 1
 206.905273438 711 l 1
 125.265625 248 l 2
 122.483695256 232.222690874 121.109974241 217.386491325 121.109974241 203.530135728 c 0
 121.109974241 116.388223439 175.441846869 68 275.52734375 68 c 0
 390.52734375 68 467.98828125 133 488.265625 248 c 2
 569.905273438 711 l 1
 655.905273438 711 l 1
 574.265625 248 l 2
 545.701171875 86 424.715820312 -16 260.715820312 -16 c 0
EndSplineSet
Validated: 1
EndChar

StartChar: Utilde
Encoding: 360 360 114
Width: 689
GlyphClass: 2
Flags: HMW
HStem: -16 84<287 402.5 287 427> 691 20G<77 163 163 163 526 612 612 612> 790 56<400 420.5 400 432.5> 844 56<270 292>
VStem: 77 86<248 711> 187 52<783 783> 450 52<910 910> 526 86<248 711>
AnchorPoint: "Anchor-3" 391.374 710 basechar 0
AnchorPoint: "Anchor-2" 378.711 3 basechar 0
AnchorPoint: "Anchor-0" 266.182 0 basechar 0
LayerCount: 2
Fore
SplineSet
464.48046875 790 m 0xea
 438.48046875 790 418.243164062 800 399.416992188 818 c 0
 379.767578125 837 372.001953125 844 352.001953125 844 c 0
 328.001953125 844 308.709960938 831 298.24609375 783 c 1
 246.24609375 783 l 1
 261.823242188 860 307.875976562 900 361.875976562 900 c 0xd5
 393.875976562 900 412.936523438 889 432.5859375 870 c 0
 450.588867188 853 462.354492188 846 478.354492188 846 c 0
 503.354492188 846 518.823242188 860 531.639648438 910 c 1
 583.639648438 910 l 1
 566.23828125 834 521.48046875 790 464.48046875 790 c 0xea
263.360351562 -16 m 0
 119.510056087 -16 36.4542319396 61.5271465879 36.4542319396 188.750380723 c 0
 36.4542319396 207.455478281 38.2496152519 227.234835558 41.9111328125 248 c 2
 123.55078125 711 l 1
 209.55078125 711 l 1
 127.911132812 248 l 2xd9
 125.129170951 232.222508727 123.755431953 217.386148761 123.755431953 203.529655819 c 0
 123.755431953 116.388045782 178.086561849 68 278.171875 68 c 0
 393.171875 68 470.633789062 133 490.911132812 248 c 2
 572.55078125 711 l 1
 658.55078125 711 l 1
 576.911132812 248 l 2
 548.345703125 86 427.360351562 -16 263.360351562 -16 c 0
EndSplineSet
Validated: 1
EndChar

StartChar: V
Encoding: 86 86 115
Width: 667
GlyphClass: 2
Flags: HMW
HStem: 0 21G<277 277 277 390> 0 94<277 334 334 334 334 390> 690 20G<20 114 114 114 553 647 647 647>
VStem: 20 627<710 710>
AnchorPoint: "Anchor-3" 396.596 710 basechar 0
AnchorPoint: "Anchor-0" 271.404 0 basechar 0
LayerCount: 2
Fore
SplineSet
214.404296875 0 m 1xb0
 82.595703125 710 l 1
 176.595703125 710 l 1
 287.978515625 94 l 1x70
 615.595703125 710 l 1
 709.595703125 710 l 1
 327.404296875 0 l 1
 214.404296875 0 l 1xb0
EndSplineSet
Validated: 1
EndChar

StartChar: W
Encoding: 87 87 116
Width: 945
GlyphClass: 2
Flags: HMW
HStem: 0 21G<225 225 225 332 612 612 612 720> 0 118<225 278 278 278 278 332> 690 20G<38 132 132 132 423 521 521 521 812 907 907 907>
VStem: 38 869<710 710>
AnchorPoint: "Anchor-3" 534.596 710 basechar 0
AnchorPoint: "Anchor-0" 409.404 0 basechar 0
LayerCount: 2
Fore
SplineSet
162.404296875 0 m 1xb0
 100.595703125 710 l 1
 194.595703125 710 l 1
 236.2109375 118 l 1
 485.595703125 710 l 1
 583.595703125 710 l 1
 625.2109375 118 l 1x70
 874.595703125 710 l 1
 969.595703125 710 l 1
 657.404296875 0 l 1
 549.404296875 0 l 1
 506.383789062 550 l 1
 269.404296875 0 l 1
 162.404296875 0 l 1xb0
EndSplineSet
Validated: 1
EndChar

StartChar: Wacute
Encoding: 7810 7810 117
Width: 945
GlyphClass: 2
Flags: HMW
HStem: 0 21G<225 225 225 332 612 612 612 720> 0 118<225 278 278 278 278 332> 690 20G<38 132 132 132 423 521 521 521 812 907 907 907> 778 128<435 595 501 505>
VStem: 38 869<710 710>
AnchorPoint: "Anchor-3" 517.316 710 basechar 0
AnchorPoint: "Anchor-0" 392.124 0 basechar 0
LayerCount: 2
Fore
SplineSet
492.306640625 778 m 1xb8
 580.875976562 906 l 1
 674.875976562 906 l 1
 562.306640625 778 l 1
 492.306640625 778 l 1xb8
145.124023438 0 m 1
 83.31640625 710 l 1
 177.31640625 710 l 1
 218.930664062 118 l 1
 468.31640625 710 l 1
 566.31640625 710 l 1
 607.930664062 118 l 1x78
 857.31640625 710 l 1
 952.31640625 710 l 1
 640.124023438 0 l 1
 532.124023438 0 l 1
 489.103515625 550 l 1
 252.124023438 0 l 1
 145.124023438 0 l 1
EndSplineSet
Validated: 1
EndChar

StartChar: Wcircumflex
Encoding: 372 372 118
Width: 945
GlyphClass: 2
Flags: HMW
HStem: 0 21G<225 225 225 332 612 612 612 720> 0 118<225 278 278 278 278 332> 690 20G<38 132 132 132 423 521 521 521 812 907 907 907> 778 133<335 519 335 519 425 539 425 609>
VStem: 38 869<710 710>
AnchorPoint: "Anchor-3" 516.875 710 basechar 0
AnchorPoint: "Anchor-0" 391.683 0 basechar 0
LayerCount: 2
Fore
SplineSet
391.865234375 778 m 1xb8
 505.317382812 911 l 1
 599.317382812 911 l 1
 665.865234375 778 l 1
 595.865234375 778 l 1
 544.55859375 867 l 1
 461.865234375 778 l 1
 391.865234375 778 l 1xb8
144.682617188 0 m 1
 82.875 710 l 1
 176.875 710 l 1
 218.489257812 118 l 1
 467.875 710 l 1
 565.875 710 l 1
 607.489257812 118 l 1x78
 856.875 710 l 1
 951.875 710 l 1
 639.682617188 0 l 1
 531.682617188 0 l 1
 488.663085938 550 l 1
 251.682617188 0 l 1
 144.682617188 0 l 1
EndSplineSet
Validated: 1
EndChar

StartChar: Wdieresis
Encoding: 7812 7812 119
Width: 945
GlyphClass: 2
Flags: HMW
HStem: 0 21G<225 225 225 332 612 612 612 720> 0 118<225 278 278 278 278 332> 690 20G<38 132 132 132 423 521 521 521 812 907 907 907> 793 98<341 429 341 429 515 603 341 515>
VStem: 341 88<793 891 793 891> 515 88<793 891 793 891>
AnchorPoint: "Anchor-3" 518.639 710 basechar 0
AnchorPoint: "Anchor-0" 393.446 0 basechar 0
LayerCount: 2
Fore
SplineSet
402.2734375 793 m 1xbc
 419.553710938 891 l 1
 507.553710938 891 l 1
 490.2734375 793 l 1
 402.2734375 793 l 1xbc
576.2734375 793 m 1
 593.553710938 891 l 1
 681.553710938 891 l 1
 664.2734375 793 l 1
 576.2734375 793 l 1
146.446289062 0 m 1
 84.638671875 710 l 1
 178.638671875 710 l 1
 220.252929688 118 l 1
 469.638671875 710 l 1
 567.638671875 710 l 1
 609.252929688 118 l 1x7c
 858.638671875 710 l 1
 953.638671875 710 l 1
 641.446289062 0 l 1
 533.446289062 0 l 1
 490.42578125 550 l 1
 253.446289062 0 l 1
 146.446289062 0 l 1
EndSplineSet
Validated: 1
Substitution2: "'ss08' Style Set 8 in Latin lookup 41 subtable" Wdieresis.ss08
Substitution2: "'aalt' Access All Alternates in Latin lookup 0 subtable" Wdieresis.ss08
EndChar

StartChar: Wgrave
Encoding: 7808 7808 120
Width: 945
GlyphClass: 2
Flags: HMW
HStem: 0 21G<225 225 225 332 612 612 612 720> 0 118<225 278 278 278 278 332> 690 20G<38 132 132 132 423 521 521 521 812 907 907 907> 783 128<441 441 441 445 351 511>
VStem: 38 869<710 710>
AnchorPoint: "Anchor-3" 516.875 710 basechar 0
AnchorPoint: "Anchor-0" 391.683 0 basechar 0
LayerCount: 2
Fore
SplineSet
498.747070312 783 m 1xb8
 431.317382812 911 l 1
 525.317382812 911 l 1
 568.747070312 783 l 1
 498.747070312 783 l 1xb8
144.682617188 0 m 1
 82.875 710 l 1
 176.875 710 l 1
 218.489257812 118 l 1
 467.875 710 l 1
 565.875 710 l 1
 607.489257812 118 l 1x78
 856.875 710 l 1
 951.875 710 l 1
 639.682617188 0 l 1
 531.682617188 0 l 1
 488.663085938 550 l 1
 251.682617188 0 l 1
 144.682617188 0 l 1
EndSplineSet
Validated: 1
EndChar

StartChar: X
Encoding: 88 88 121
Width: 606
GlyphClass: 2
Flags: HMW
HStem: 0 21G<15 15 15 115 489 489 489 591> 690 20G<17 119 119 119 487 587 587 587>
VStem: 15 576<0 0>
AnchorPoint: "Anchor-3" 365.596 710 basechar 0
AnchorPoint: "Anchor-0" 240.404 0 basechar 0
LayerCount: 2
Fore
SplineSet
-47.595703125 0 m 1
 248.176757812 356 l 1
 79.595703125 710 l 1
 181.595703125 710 l 1
 316.166992188 424 l 1
 549.595703125 710 l 1
 649.595703125 710 l 1
 356.529296875 358 l 1
 528.404296875 0 l 1
 426.404296875 0 l 1
 290.5390625 290 l 1
 52.404296875 0 l 1
 -47.595703125 0 l 1
EndSplineSet
Validated: 1
EndChar

StartChar: Y
Encoding: 89 89 122
Width: 576
GlyphClass: 2
Flags: HMW
HStem: 0 21G<245 245 245 331> 690 20G<-6 96 96 96 480 582 582 582>
VStem: 245 86<0 290 0 290>
AnchorPoint: "Anchor-3" 350.596 710 basechar 0
AnchorPoint: "Anchor-0" 225.404 0 basechar 0
LayerCount: 2
Fore
SplineSet
182.404296875 0 m 1
 233.5390625 290 l 1
 56.595703125 710 l 1
 158.595703125 710 l 1
 292.055664062 378 l 1
 542.595703125 710 l 1
 644.595703125 710 l 1
 319.5390625 290 l 1
 268.404296875 0 l 1
 182.404296875 0 l 1
EndSplineSet
Validated: 1
EndChar

StartChar: Yacute
Encoding: 221 221 123
Width: 576
GlyphClass: 2
Flags: HMW
HStem: 0 21G<245 245 245 331> 690 20G<-6 96 96 96 480 582 582 582> 778 128<251 411 317 321>
VStem: 245 86<0 290 0 290>
AnchorPoint: "Anchor-3" 333.316 710 basechar 0
AnchorPoint: "Anchor-0" 208.124 0 basechar 0
LayerCount: 2
Fore
SplineSet
308.306640625 778 m 1
 396.875976562 906 l 1
 490.875976562 906 l 1
 378.306640625 778 l 1
 308.306640625 778 l 1
165.124023438 0 m 1
 216.258789062 290 l 1
 39.31640625 710 l 1
 141.31640625 710 l 1
 274.775390625 378 l 1
 525.31640625 710 l 1
 627.31640625 710 l 1
 302.258789062 290 l 1
 251.124023438 0 l 1
 165.124023438 0 l 1
EndSplineSet
Validated: 1
EndChar

StartChar: Ycircumflex
Encoding: 374 374 124
Width: 576
GlyphClass: 2
Flags: HMW
HStem: 0 21G<245 245 245 331> 690 20G<-6 96 96 96 480 582 582 582> 778 133<151 335 151 335 241 355 241 425>
VStem: 245 86<0 290 0 290>
AnchorPoint: "Anchor-3" 332.875 710 basechar 0
AnchorPoint: "Anchor-0" 207.683 0 basechar 0
LayerCount: 2
Fore
SplineSet
207.865234375 778 m 1
 321.317382812 911 l 1
 415.317382812 911 l 1
 481.865234375 778 l 1
 411.865234375 778 l 1
 360.55859375 867 l 1
 277.865234375 778 l 1
 207.865234375 778 l 1
164.682617188 0 m 1
 215.818359375 290 l 1
 38.875 710 l 1
 140.875 710 l 1
 274.334960938 378 l 1
 524.875 710 l 1
 626.875 710 l 1
 301.818359375 290 l 1
 250.682617188 0 l 1
 164.682617188 0 l 1
EndSplineSet
Validated: 1
EndChar

StartChar: Ydieresis
Encoding: 376 376 125
Width: 576
GlyphClass: 2
Flags: HMW
HStem: 0 21G<245 245 245 331> 690 20G<-6 96 96 96 480 582 582 582> 793 98<157 245 157 245 331 419 157 331>
VStem: 157 88<793 891> 245 86<0 290 0 290 793 891> 331 88<793 891 793 891>
AnchorPoint: "Anchor-3" 334.639 710 basechar 0
AnchorPoint: "Anchor-0" 209.446 0 basechar 0
LayerCount: 2
Fore
SplineSet
218.2734375 793 m 1xf4
 235.553710938 891 l 1
 323.553710938 891 l 1
 306.2734375 793 l 1
 218.2734375 793 l 1xf4
392.2734375 793 m 1
 409.553710938 891 l 1
 497.553710938 891 l 1
 480.2734375 793 l 1
 392.2734375 793 l 1
166.446289062 0 m 1xe8
 217.581054688 290 l 1
 40.638671875 710 l 1
 142.638671875 710 l 1
 276.09765625 378 l 1
 526.638671875 710 l 1
 628.638671875 710 l 1
 303.581054688 290 l 1
 252.446289062 0 l 1
 166.446289062 0 l 1xe8
EndSplineSet
Validated: 1
Substitution2: "'ss08' Style Set 8 in Latin lookup 41 subtable" Ydieresis.ss08
Substitution2: "'aalt' Access All Alternates in Latin lookup 0 subtable" Ydieresis.ss08
EndChar

StartChar: Ygrave
Encoding: 7922 7922 126
Width: 576
GlyphClass: 2
Flags: HMW
HStem: 0 21G<245 245 245 331> 690 20G<-6 96 96 96 480 582 582 582> 783 128<257 257 257 261 167 327>
VStem: 245 86<0 290 0 290>
AnchorPoint: "Anchor-3" 332.875 710 basechar 0
AnchorPoint: "Anchor-0" 207.683 0 basechar 0
LayerCount: 2
Fore
SplineSet
314.747070312 783 m 1
 247.317382812 911 l 1
 341.317382812 911 l 1
 384.747070312 783 l 1
 314.747070312 783 l 1
164.682617188 0 m 1
 215.818359375 290 l 1
 38.875 710 l 1
 140.875 710 l 1
 274.334960938 378 l 1
 524.875 710 l 1
 626.875 710 l 1
 301.818359375 290 l 1
 250.682617188 0 l 1
 164.682617188 0 l 1
EndSplineSet
Validated: 1
EndChar

StartChar: uni1EF8
Encoding: 7928 7928 127
Width: 576
GlyphClass: 2
Flags: HMW
HStem: 0 21G<245 245 245 331> 690 20G<-6 96 96 96 480 582 582 582> 790 56<343 363.5 343 375.5> 844 56<213 235>
VStem: 130 52<783 783> 245 86<0 290 0 290> 393 52<910 910>
AnchorPoint: "Anchor-3" 332.964 710 basechar 0
AnchorPoint: "Anchor-0" 207.771 0 basechar 0
LayerCount: 2
Fore
SplineSet
406.069335938 790 m 0xe6
 380.069335938 790 359.833007812 800 341.006835938 818 c 0
 321.356445312 837 313.590820312 844 293.590820312 844 c 0
 269.590820312 844 250.298828125 831 239.834960938 783 c 1
 187.834960938 783 l 1
 203.412109375 860 249.465820312 900 303.465820312 900 c 0xdc
 335.465820312 900 354.526367188 889 374.17578125 870 c 0
 392.177734375 853 403.944335938 846 419.944335938 846 c 0
 444.944335938 846 460.412109375 860 473.228515625 910 c 1
 525.228515625 910 l 1
 507.828125 834 463.069335938 790 406.069335938 790 c 0xe6
164.771484375 0 m 1
 215.90625 290 l 1
 38.9638671875 710 l 1
 140.963867188 710 l 1
 274.422851562 378 l 1
 524.963867188 710 l 1
 626.963867188 710 l 1
 301.90625 290 l 1
 250.771484375 0 l 1
 164.771484375 0 l 1
EndSplineSet
Validated: 1
EndChar

StartChar: Z
Encoding: 90 90 128
Width: 544
GlyphClass: 2
Flags: HMW
HStem: 0 84<126 516 126 516> 626 84<41 408 41 506>
VStem: 28 488<0 84 0 88 0 88>
AnchorPoint: "Anchor-3" 342.596 710 basechar 0
AnchorPoint: "Anchor-0" 217.404 0 basechar 0
LayerCount: 2
Fore
SplineSet
-34.595703125 0 m 1
 -19.0791015625 88 l 1
 455.784179688 626 l 1
 88.7841796875 626 l 1
 103.595703125 710 l 1
 568.595703125 710 l 1
 553.079101562 622 l 1
 78.2158203125 84 l 1
 468.215820312 84 l 1
 453.404296875 0 l 1
 -34.595703125 0 l 1
EndSplineSet
Validated: 1
EndChar

StartChar: Zacute
Encoding: 377 377 129
Width: 544
GlyphClass: 2
Flags: HMW
HStem: 0 84<126 516 126 516> 626 84<41 408 41 506> 778 128<243 403 309 313>
VStem: 28 488<0 84 0 88 0 88>
AnchorPoint: "Anchor-3" 325.316 710 basechar 0
AnchorPoint: "Anchor-0" 200.124 0 basechar 0
LayerCount: 2
Fore
SplineSet
300.306640625 778 m 1
 388.875976562 906 l 1
 482.875976562 906 l 1
 370.306640625 778 l 1
 300.306640625 778 l 1
-51.8759765625 0 m 1
 -36.359375 88 l 1
 438.504882812 626 l 1
 71.5048828125 626 l 1
 86.31640625 710 l 1
 551.31640625 710 l 1
 535.798828125 622 l 1
 60.935546875 84 l 1
 450.935546875 84 l 1
 436.124023438 0 l 1
 -51.8759765625 0 l 1
EndSplineSet
Validated: 1
EndChar

StartChar: Zcaron
Encoding: 381 381 130
Width: 544
GlyphClass: 2
Flags: HMW
HStem: 0 84<126 516 126 516> 626 84<41 408 41 506> 778 133<143 327 143 233>
VStem: 28 488<0 84 0 88 0 88>
AnchorPoint: "Anchor-3" 324.875 710 basechar 0
AnchorPoint: "Anchor-0" 199.683 0 basechar 0
LayerCount: 2
Fore
SplineSet
223.317382812 911 m 1
 293.317382812 911 l 1
 344.624023438 822 l 1
 427.317382812 911 l 1
 497.317382812 911 l 1
 383.865234375 778 l 1
 289.865234375 778 l 1
 223.317382812 911 l 1
-52.3173828125 0 m 1
 -36.7998046875 88 l 1
 438.063476562 626 l 1
 71.0634765625 626 l 1
 85.875 710 l 1
 550.875 710 l 1
 535.358398438 622 l 1
 60.494140625 84 l 1
 450.494140625 84 l 1
 435.682617188 0 l 1
 -52.3173828125 0 l 1
EndSplineSet
Validated: 1
EndChar

StartChar: Zdotaccent
Encoding: 379 379 131
Width: 544
GlyphClass: 2
Flags: HMW
HStem: 0 84<126 516 126 516> 626 84<41 408 41 506> 793 98<236 324 236 324>
VStem: 236 88<793 891 793 891>
AnchorPoint: "Anchor-3" 326.639 710 basechar 0
AnchorPoint: "Anchor-0" 201.446 0 basechar 0
LayerCount: 2
Fore
SplineSet
297.2734375 793 m 1
 314.553710938 891 l 1
 402.553710938 891 l 1
 385.2734375 793 l 1
 297.2734375 793 l 1
-50.5537109375 0 m 1
 -35.037109375 88 l 1
 439.827148438 626 l 1
 72.8271484375 626 l 1
 87.638671875 710 l 1
 552.638671875 710 l 1
 537.122070312 622 l 1
 62.2578125 84 l 1
 452.2578125 84 l 1
 437.446289062 0 l 1
 -50.5537109375 0 l 1
EndSplineSet
Validated: 1
Substitution2: "'ss08' Style Set 8 in Latin lookup 41 subtable" Zdotaccent.ss08
Substitution2: "'aalt' Access All Alternates in Latin lookup 0 subtable" Zdotaccent.ss08
EndChar

StartChar: uniA78B
Encoding: 42891 42891 132
Width: 176
GlyphClass: 1
Flags: HMW
HStem: 690 20G<45 131 131 131>
VStem: 45 86<590 710 590 710>
LayerCount: 2
Fore
SplineSet
25.2607421875 350 m 1
 55.580078125 590 l 1
 76.7392578125 710 l 1
 162.739257812 710 l 1
 141.580078125 590 l 1
 87.2607421875 350 l 1
 25.2607421875 350 l 1
EndSplineSet
Validated: 1
EndChar

StartChar: uni013B.loclMAH
Encoding: 65538 -1 133
Width: 580
GlyphClass: 2
Flags: HMW
HStem: -143 90<263 299 263 363> 0 84<178 533 178 533> 690 20G<92 178 178 178>
VStem: 92 86<84 710 84 710 84 710> 263 100<-135 -53 -135 -53 -135 -53>
AnchorPoint: "Anchor-4" 432.017 530 basechar 0
AnchorPoint: "Anchor-3" 218.755 710 basechar 0
AnchorPoint: "Anchor-1" 199.567 380 basechar 0
AnchorPoint: "Anchor-0" 229.245 -240 basechar 0
LayerCount: 2
Fore
SplineSet
50.5634765625 0 m 1
 175.754882812 710 l 1
 261.754882812 710 l 1
 151.375 84 l 1
 506.375 84 l 1
 491.563476562 0 l 1
 50.5634765625 0 l 1
160.245117188 -240 m 1
 232.348632812 -143 l 1
 196.348632812 -143 l 1
 212.217773438 -53 l 1
 312.217773438 -53 l 1
 297.758789062 -135 l 1
 218.245117188 -240 l 1
 160.245117188 -240 l 1
EndSplineSet
Validated: 1
EndChar

StartChar: uni0145.loclMAH
Encoding: 65539 -1 134
Width: 743
GlyphClass: 2
Flags: HMW
HStem: -143 90<320 356 320 420> 0 21G<92 92 92 178 523 523 523 651> 0 86<523 565 565 565 565 651> 612 98<178 178> 690 20G<92 214 214 214 565 651 651 651>
VStem: 92 86<0 612 0 710> 320 100<-135 -53 -135 -53 -135 -53> 565 86<86 710 0 710>
AnchorPoint: "Anchor-3" 469.755 710 basechar 0
AnchorPoint: "Anchor-0" 286.245 -240 basechar 0
LayerCount: 2
Fore
SplineSet
50.5634765625 0 m 1xd7
 175.754882812 710 l 1
 297.754882812 710 l 1
 538.727539062 86 l 1xaf
 648.754882812 710 l 1
 734.754882812 710 l 1
 609.563476562 0 l 1
 481.563476562 0 l 1
 244.475585938 612 l 1
 136.563476562 0 l 1
 50.5634765625 0 l 1xd7
217.245117188 -240 m 1
 289.348632812 -143 l 1
 253.348632812 -143 l 1
 269.217773438 -53 l 1
 369.217773438 -53 l 1
 354.758789062 -135 l 1
 275.245117188 -240 l 1
 217.245117188 -240 l 1
EndSplineSet
Validated: 1
EndChar

StartChar: R.ss04
Encoding: 65540 -1 135
Width: 678
GlyphClass: 2
Flags: HMW
HStem: 0 21G<92 92 92 178 521 521 521 616> 286 84<178 347 347 358 178 347> 626 84<178 347 178 178>
VStem: 92 86<0 286 370 626> 508 90<456 538>
AnchorPoint: "Anchor-3" 394.596 710 basechar 0
AnchorPoint: "Anchor-0" 269.404 0 basechar 0
LayerCount: 2
Fore
SplineSet
29.404296875 0 m 1
 154.595703125 710 l 1
 409.595703125 710 l 2
 549.033776642 710 626.861300658 647.692753257 626.861300658 540.261808924 c 0
 626.861300658 525.960655441 625.482134592 510.859873893 622.685546875 495 c 0
 605.229492188 396 538.709960938 325 436.125976562 299 c 1
 553.404296875 0 l 1
 458.404296875 0 l 1
 345.833007812 286 l 1
 165.833007812 286 l 1
 115.404296875 0 l 1
 29.404296875 0 l 1
180.64453125 370 m 1
 349.64453125 370 l 2
 453.64453125 370 518.580078125 415 533.038085938 497 c 0
 534.704785439 506.452210167 535.532096853 515.439362378 535.532096853 523.943076875 c 0
 535.532096853 589.210954037 486.796010695 626 394.784179688 626 c 2
 225.784179688 626 l 1
 180.64453125 370 l 1
EndSplineSet
Validated: 1
EndChar

StartChar: Racute.ss04
Encoding: 65541 -1 136
Width: 678
GlyphClass: 2
Flags: HMW
HStem: 0 21G<92 92 92 178 521 521 521 616> 286 84<178 347 347 358 178 347> 626 84<178 347 178 178> 778 128<295 455 361 365>
VStem: 92 86<0 286 370 626> 508 90<456 538>
AnchorPoint: "Anchor-3" 377.316 710 basechar 0
AnchorPoint: "Anchor-0" 252.124 0 basechar 0
LayerCount: 2
Fore
SplineSet
352.306640625 778 m 1
 440.875976562 906 l 1
 534.875976562 906 l 1
 422.306640625 778 l 1
 352.306640625 778 l 1
12.1240234375 0 m 1
 137.31640625 710 l 1
 392.31640625 710 l 2
 531.754319677 710 609.581064488 647.692896328 609.581064488 540.262178952 c 0
 609.581064488 525.96091592 608.201885274 510.86001068 605.405273438 495 c 0
 587.94921875 396 521.4296875 325 418.845703125 299 c 1
 536.124023438 0 l 1
 441.124023438 0 l 1
 328.553710938 286 l 1
 148.553710938 286 l 1
 98.1240234375 0 l 1
 12.1240234375 0 l 1
163.365234375 370 m 1
 332.365234375 370 l 2
 436.365234375 370 501.299804688 415 515.758789062 497 c 0
 517.425310369 506.451837966 518.252535642 515.438654601 518.252535642 523.942072317 c 0
 518.252535642 589.21057655 469.51718588 626 377.504882812 626 c 2
 208.504882812 626 l 1
 163.365234375 370 l 1
EndSplineSet
Validated: 1
EndChar

StartChar: Rcaron.ss04
Encoding: 65542 -1 137
Width: 678
GlyphClass: 2
Flags: HMW
HStem: 0 21G<92 92 92 178 521 521 521 616> 286 84<178 347 347 358 178 347> 626 84<178 347 178 178> 778 133<195 379 195 285>
VStem: 92 86<0 286 370 626> 508 90<456 538>
AnchorPoint: "Anchor-3" 376.875 710 basechar 0
AnchorPoint: "Anchor-0" 251.683 0 basechar 0
LayerCount: 2
Fore
SplineSet
275.317382812 911 m 1
 345.317382812 911 l 1
 396.624023438 822 l 1
 479.317382812 911 l 1
 549.317382812 911 l 1
 435.865234375 778 l 1
 341.865234375 778 l 1
 275.317382812 911 l 1
11.6826171875 0 m 1
 136.875 710 l 1
 391.875 710 l 2
 531.313073517 710 609.140597533 647.692753257 609.140597533 540.261808924 c 0
 609.140597533 525.960655441 607.761431467 510.859873893 604.96484375 495 c 0
 587.508789062 396 520.989257812 325 418.405273438 299 c 1
 535.682617188 0 l 1
 440.682617188 0 l 1
 328.112304688 286 l 1
 148.112304688 286 l 1
 97.6826171875 0 l 1
 11.6826171875 0 l 1
162.923828125 370 m 1
 331.923828125 370 l 2
 435.923828125 370 500.858398438 415 515.317382812 497 c 0
 516.984082314 506.452210167 517.811393728 515.439362378 517.811393728 523.943076875 c 0
 517.811393728 589.210954037 469.07530757 626 377.063476562 626 c 2
 208.063476562 626 l 1
 162.923828125 370 l 1
EndSplineSet
Validated: 1
EndChar

StartChar: uni0156.ss04
Encoding: 65543 -1 138
Width: 678
GlyphClass: 2
Flags: HMW
HStem: -143 90<282 318 282 382> 0 21G<92 92 92 178 521 521 521 616> 286 84<178 347 347 358 178 347> 626 84<178 347 178 178>
VStem: 92 86<0 286 370 626> 282 100<-135 -53 -135 -53 -135 -53> 508 90<456 538>
AnchorPoint: "Anchor-3" 415.755 710 basechar 0
AnchorPoint: "Anchor-0" 248.245 -240 basechar 0
LayerCount: 2
Fore
SplineSet
50.5634765625 0 m 1
 175.754882812 710 l 1
 430.754882812 710 l 2
 570.19295633 710 648.020480345 647.692753257 648.020480345 540.261808924 c 0
 648.020480345 525.960655441 646.64131428 510.859873893 643.844726562 495 c 0
 626.388671875 396 559.869140625 325 457.28515625 299 c 1
 574.563476562 0 l 1
 479.563476562 0 l 1
 366.993164062 286 l 1
 186.993164062 286 l 1
 136.563476562 0 l 1
 50.5634765625 0 l 1
201.803710938 370 m 1
 370.803710938 370 l 2
 474.803710938 370 539.739257812 415 554.197265625 497 c 0
 555.863988255 506.452341333 556.691312477 515.439611802 556.691312477 523.943430885 c 0
 556.691312477 589.211087065 507.956000589 626 415.944335938 626 c 2
 246.944335938 626 l 1
 201.803710938 370 l 1
179.245117188 -240 m 1
 251.348632812 -143 l 1
 215.348632812 -143 l 1
 231.217773438 -53 l 1
 331.217773438 -53 l 1
 316.758789062 -135 l 1
 237.245117188 -240 l 1
 179.245117188 -240 l 1
EndSplineSet
Validated: 1
EndChar

StartChar: I.ss05
Encoding: 65544 -1 139
Width: 426
GlyphClass: 2
Flags: HMW
HStem: 0 84<45 170 45 170 256 381> 626 84<51 170 51 375 256 256 256 375>
VStem: 170 86<84 626 84 626>
AnchorPoint: "Anchor-3" 275.596 710 basechar 0
AnchorPoint: "Anchor-2" 318.404 0 basechar 0
AnchorPoint: "Anchor-0" 150.404 0 basechar 0
LayerCount: 2
Fore
SplineSet
-17.595703125 0 m 1
 -2.7841796875 84 l 1
 122.215820312 84 l 1
 217.784179688 626 l 1
 98.7841796875 626 l 1
 113.595703125 710 l 1
 437.595703125 710 l 1
 422.784179688 626 l 1
 303.784179688 626 l 1
 208.215820312 84 l 1
 333.215820312 84 l 1
 318.404296875 0 l 1
 -17.595703125 0 l 1
EndSplineSet
Validated: 1
EndChar

StartChar: Iacute.ss05
Encoding: 65545 -1 140
Width: 426
GlyphClass: 2
Flags: HMW
HStem: 0 84<45 170 45 170 256 381> 626 84<51 170 51 375 256 256 256 375> 778 128<176 336 242 246>
VStem: 170 86<84 626 84 626>
AnchorPoint: "Anchor-3" 258.316 710 basechar 0
AnchorPoint: "Anchor-2" 301.124 0 basechar 0
AnchorPoint: "Anchor-0" 133.124 0 basechar 0
LayerCount: 2
Fore
SplineSet
233.306640625 778 m 1
 321.875976562 906 l 1
 415.875976562 906 l 1
 303.306640625 778 l 1
 233.306640625 778 l 1
-34.8759765625 0 m 1
 -20.064453125 84 l 1
 104.935546875 84 l 1
 200.504882812 626 l 1
 81.5048828125 626 l 1
 96.31640625 710 l 1
 420.31640625 710 l 1
 405.504882812 626 l 1
 286.504882812 626 l 1
 190.935546875 84 l 1
 315.935546875 84 l 1
 301.124023438 0 l 1
 -34.8759765625 0 l 1
EndSplineSet
Validated: 1
EndChar

StartChar: Icircumflex.ss05
Encoding: 65546 -1 141
Width: 426
GlyphClass: 2
Flags: HMW
HStem: 0 84<45 170 45 170 256 381> 626 84<51 170 51 375 256 256 256 375> 778 133<76 260 76 260 166 280 166 350>
VStem: 170 86<84 626 84 626>
AnchorPoint: "Anchor-3" 257.875 710 basechar 0
AnchorPoint: "Anchor-2" 300.683 0 basechar 0
AnchorPoint: "Anchor-0" 132.683 0 basechar 0
LayerCount: 2
Fore
SplineSet
132.865234375 778 m 1
 246.317382812 911 l 1
 340.317382812 911 l 1
 406.865234375 778 l 1
 336.865234375 778 l 1
 285.55859375 867 l 1
 202.865234375 778 l 1
 132.865234375 778 l 1
-35.3173828125 0 m 1
 -20.505859375 84 l 1
 104.494140625 84 l 1
 200.063476562 626 l 1
 81.0634765625 626 l 1
 95.875 710 l 1
 419.875 710 l 1
 405.063476562 626 l 1
 286.063476562 626 l 1
 190.494140625 84 l 1
 315.494140625 84 l 1
 300.682617188 0 l 1
 -35.3173828125 0 l 1
EndSplineSet
Validated: 1
EndChar

StartChar: Idieresis.ss05
Encoding: 65547 -1 142
Width: 426
GlyphClass: 2
Flags: HMW
HStem: 0 84<45 170 45 170 256 381> 626 84<51 170 51 375 256 256 256 375> 793 98<82 170 82 170 256 344 82 256>
VStem: 82 88<793 891> 170 86<84 626 84 626 793 891> 256 88<793 891 793 891>
AnchorPoint: "Anchor-3" 259.639 710 basechar 0
AnchorPoint: "Anchor-2" 302.446 0 basechar 0
AnchorPoint: "Anchor-0" 134.446 0 basechar 0
LayerCount: 2
Fore
SplineSet
143.2734375 793 m 1xf4
 160.553710938 891 l 1
 248.553710938 891 l 1
 231.2734375 793 l 1
 143.2734375 793 l 1xf4
317.2734375 793 m 1
 334.553710938 891 l 1
 422.553710938 891 l 1
 405.2734375 793 l 1
 317.2734375 793 l 1
-33.5537109375 0 m 1
 -18.7421875 84 l 1
 106.2578125 84 l 1
 201.827148438 626 l 1
 82.8271484375 626 l 1
 97.638671875 710 l 1
 421.638671875 710 l 1
 406.827148438 626 l 1
 287.827148438 626 l 1
 192.2578125 84 l 1xe8
 317.2578125 84 l 1
 302.446289062 0 l 1
 -33.5537109375 0 l 1
EndSplineSet
Validated: 1
Substitution2: "'ss08' Style Set 8 in Latin lookup 41 subtable" Idieresis.ss05.ss08
Substitution2: "'aalt' Access All Alternates in Latin lookup 0 subtable" Idieresis.ss05.ss08
EndChar

StartChar: Idotaccent.ss05
Encoding: 65548 -1 143
Width: 426
GlyphClass: 2
Flags: HMW
HStem: 0 84<45 170 45 170 256 381> 626 84<51 170 51 375 256 256 256 375> 793 98<169 257 169 257>
VStem: 169 88<793 891 793 891> 170 86<84 626 84 626>
AnchorPoint: "Anchor-3" 259.639 710 basechar 0
AnchorPoint: "Anchor-2" 302.446 0 basechar 0
AnchorPoint: "Anchor-0" 134.446 0 basechar 0
LayerCount: 2
Fore
SplineSet
230.2734375 793 m 1xf0
 247.553710938 891 l 1
 335.553710938 891 l 1
 318.2734375 793 l 1
 230.2734375 793 l 1xf0
-33.5537109375 0 m 1
 -18.7421875 84 l 1
 106.2578125 84 l 1
 201.827148438 626 l 1
 82.8271484375 626 l 1
 97.638671875 710 l 1
 421.638671875 710 l 1
 406.827148438 626 l 1
 287.827148438 626 l 1
 192.2578125 84 l 1xe8
 317.2578125 84 l 1
 302.446289062 0 l 1
 -33.5537109375 0 l 1
EndSplineSet
Validated: 1
Substitution2: "'ss08' Style Set 8 in Latin lookup 41 subtable" Idotaccent.ss05.ss08
Substitution2: "'aalt' Access All Alternates in Latin lookup 0 subtable" Idotaccent.ss05.ss08
EndChar

StartChar: Igrave.ss05
Encoding: 65549 -1 144
Width: 426
GlyphClass: 2
Flags: HMW
HStem: 0 84<45 170 45 170 256 381> 626 84<51 170 51 375 256 256 256 375> 783 128<182 182 182 186 92 252>
VStem: 170 86<84 626 84 626>
AnchorPoint: "Anchor-3" 257.875 710 basechar 0
AnchorPoint: "Anchor-2" 300.683 0 basechar 0
AnchorPoint: "Anchor-0" 132.683 0 basechar 0
LayerCount: 2
Fore
SplineSet
239.747070312 783 m 1
 172.317382812 911 l 1
 266.317382812 911 l 1
 309.747070312 783 l 1
 239.747070312 783 l 1
-35.3173828125 0 m 1
 -20.505859375 84 l 1
 104.494140625 84 l 1
 200.063476562 626 l 1
 81.0634765625 626 l 1
 95.875 710 l 1
 419.875 710 l 1
 405.063476562 626 l 1
 286.063476562 626 l 1
 190.494140625 84 l 1
 315.494140625 84 l 1
 300.682617188 0 l 1
 -35.3173828125 0 l 1
EndSplineSet
Validated: 1
EndChar

StartChar: Imacron.ss05
Encoding: 65550 -1 145
Width: 426
GlyphClass: 2
Flags: HMW
HStem: 0 84<45 170 45 170 256 381> 626 84<51 170 51 375 256 256 256 375> 805 72<79 347 79 347>
VStem: 79 268<805 877 805 877> 170 86<84 626 84 626>
AnchorPoint: "Anchor-3" 260.873 710 basechar 0
AnchorPoint: "Anchor-2" 303.681 0 basechar 0
AnchorPoint: "Anchor-0" 135.681 0 basechar 0
LayerCount: 2
Fore
SplineSet
143.624023438 805 m 1xf0
 156.319335938 877 l 1
 424.319335938 877 l 1
 411.624023438 805 l 1
 143.624023438 805 l 1xf0
-32.3193359375 0 m 1
 -17.5078125 84 l 1
 107.4921875 84 l 1
 203.061523438 626 l 1
 84.0615234375 626 l 1
 98.873046875 710 l 1
 422.873046875 710 l 1
 408.061523438 626 l 1
 289.061523438 626 l 1
 193.4921875 84 l 1xe8
 318.4921875 84 l 1
 303.680664062 0 l 1
 -32.3193359375 0 l 1
EndSplineSet
Validated: 1
EndChar

StartChar: Iogonek.ss05
Encoding: 65551 -1 146
Width: 426
GlyphClass: 2
Flags: HMW
HStem: -210 68<335.5 347.5> 0 84<45 170 45 170 256 311> 626 84<51 170 51 375 256 256 256 375>
VStem: 170 86<84 626 84 626> 237 78<-124 -121>
AnchorPoint: "Anchor-3" 294.11 710 basechar 0
AnchorPoint: "Anchor-2" 336.918 0 basechar 0
AnchorPoint: "Anchor-0" 168.918 0 basechar 0
LayerCount: 2
Fore
SplineSet
0.91796875 0 m 1xe8
 15.7294921875 84 l 1
 140.729492188 84 l 1
 236.298828125 626 l 1
 117.298828125 626 l 1
 132.110351562 710 l 1
 456.110351562 710 l 1
 441.298828125 626 l 1
 322.298828125 626 l 1
 226.729492188 84 l 1x70
 351.729492188 84 l 1
 336.91796875 0 l 1
 293.454101562 -48 l 2
 262.283203125 -83 253.28515625 -100 250.463867188 -116 c 0
 250.150895347 -117.775529996 249.998709241 -119.477173115 249.998709241 -121.099463175 c 0
 249.998709241 -134.0962677 259.766383434 -142 274.879882812 -142 c 0
 293.879882812 -142 310.76171875 -137 325.348632812 -128 c 1
 339.473632812 -184 l 1
 321.829101562 -199 283.889648438 -210 248.889648438 -210 c 0
 197.798888102 -210 166.979219971 -190.718258233 166.979219971 -153.595006934 c 0
 166.979219971 -149.30127187 167.391513421 -144.76886008 168.232421875 -140 c 0
 174.932617188 -102 212.514648438 -59 246.0390625 -22 c 2
 266.91796875 0 l 1
 0.91796875 0 l 1xe8
EndSplineSet
Validated: 1
EndChar

StartChar: Itilde.ss05
Encoding: 65552 -1 147
Width: 426
GlyphClass: 2
Flags: HMW
HStem: 0 84<45 170 45 170 256 381> 626 84<51 170 51 375 256 256 256 375> 790 56<268 288.5 268 300.5> 844 56<138 160>
VStem: 55 52<783 783> 170 86<84 626 84 626> 318 52<910 910>
AnchorPoint: "Anchor-3" 257.964 710 basechar 0
AnchorPoint: "Anchor-2" 300.771 0 basechar 0
AnchorPoint: "Anchor-0" 132.771 0 basechar 0
LayerCount: 2
Fore
SplineSet
331.069335938 790 m 0xe6
 305.069335938 790 284.833007812 800 266.006835938 818 c 0
 246.356445312 837 238.590820312 844 218.590820312 844 c 0
 194.590820312 844 175.298828125 831 164.834960938 783 c 1
 112.834960938 783 l 1
 128.412109375 860 174.465820312 900 228.465820312 900 c 0xdc
 260.465820312 900 279.526367188 889 299.17578125 870 c 0
 317.177734375 853 328.944335938 846 344.944335938 846 c 0
 369.944335938 846 385.412109375 860 398.228515625 910 c 1
 450.228515625 910 l 1
 432.828125 834 388.069335938 790 331.069335938 790 c 0xe6
-35.228515625 0 m 1
 -20.4169921875 84 l 1
 104.583007812 84 l 1
 200.15234375 626 l 1
 81.15234375 626 l 1
 95.9638671875 710 l 1
 419.963867188 710 l 1
 405.15234375 626 l 1
 286.15234375 626 l 1
 190.583007812 84 l 1
 315.583007812 84 l 1
 300.771484375 0 l 1
 -35.228515625 0 l 1
EndSplineSet
Validated: 1
EndChar

StartChar: G.ss06
Encoding: 65553 -1 148
Width: 690
GlyphClass: 2
Flags: HMW
HStem: -16 84<283.5 429 283.5 455> 277 82<366 570 366 650> 642 84<283.5 426.5>
VStem: 45 90<272.5 431 272.5 457.5> 570 80<277 277>
AnchorPoint: "Anchor-3" 427.596 710 basechar 0
AnchorPoint: "Anchor-0" 304.404 0 basechar 0
LayerCount: 2
Fore
SplineSet
296.583007812 -16 m 0
 122.068124157 -16 36.4859177737 101.699427779 36.4859177737 262.92361967 c 0
 36.4859177737 292.010894823 39.2715843899 322.514883655 44.8232421875 354 c 0
 81.3232421875 561 226.416992188 726 431.416992188 726 c 0
 592.416992188 726 668.842773438 632 672.157226562 492 c 1
 581.098632812 486 l 1
 579.615234375 574 537.60546875 642 416.60546875 642 c 0
 251.60546875 642 161.978515625 508 134.823242188 354 c 0
 129.653829058 324.682712641 126.977092422 296.659419544 126.977092422 270.413053427 c 0
 126.977092422 150.733310327 182.632654657 68 311.39453125 68 c 0
 445.39453125 68 531.616210938 160 556.24609375 277 c 1
 352.24609375 277 l 1
 366.705078125 359 l 1
 650.705078125 359 l 1
 642.947265625 315 l 2
 606.270507812 107 482.583007812 -16 296.583007812 -16 c 0
EndSplineSet
Validated: 1
EndChar

StartChar: Gbreve.ss06
Encoding: 65554 -1 149
Width: 690
GlyphClass: 2
Flags: HMW
HStem: -16 84<283.5 429 283.5 455> 277 82<366 570 366 650> 642 84<283.5 426.5> 783 62<342 388 342 406>
VStem: 45 90<272.5 431 272.5 457.5> 570 80<277 277>
AnchorPoint: "Anchor-3" 411.286 710 basechar 0
AnchorPoint: "Anchor-0" 288.094 0 basechar 0
LayerCount: 2
Fore
SplineSet
424.157226562 783 m 0
 349.546407992 783 305.415753343 824.39481148 305.415753343 890.611991288 c 0
 305.415753343 897.169897563 305.848595368 903.971266445 306.727539062 911 c 1
 364.727539062 911 l 1
 364.649104437 909.291126465 364.610119338 907.618135003 364.610119338 905.980718 c 0
 364.610119338 863.541624608 390.798717285 845 435.08984375 845 c 0
 481.08984375 845 513.616210938 865 527.727539062 911 c 1
 585.727539062 911 l 1
 567.973632812 833 506.157226562 783 424.157226562 783 c 0
280.272460938 -16 m 0
 105.757795716 -16 20.1762859962 101.699133139 20.1762859962 262.923014275 c 0
 20.1762859962 292.010471569 22.9619755618 322.514665221 28.513671875 354 c 0
 65.0126953125 561 210.107421875 726 415.107421875 726 c 0
 576.107421875 726 652.532226562 632 655.846679688 492 c 1
 564.7890625 486 l 1
 563.305664062 574 521.295898438 642 400.295898438 642 c 0
 235.295898438 642 145.66796875 508 118.513671875 354 c 0
 113.344208708 324.682428862 110.667438698 296.658877035 110.667438698 270.412291265 c 0
 110.667438698 150.732959077 166.322381115 68 295.083984375 68 c 0
 429.083984375 68 515.305664062 160 539.936523438 277 c 1
 335.936523438 277 l 1
 350.395507812 359 l 1
 634.395507812 359 l 1
 626.63671875 315 l 2
 589.9609375 107 466.272460938 -16 280.272460938 -16 c 0
EndSplineSet
Validated: 1
EndChar

StartChar: Gcircumflex.ss06
Encoding: 65555 -1 150
Width: 690
GlyphClass: 2
Flags: HMW
HStem: -16 84<283.5 429 283.5 455> 277 82<366 570 366 650> 642 84<283.5 426.5> 778 133<228 412 228 412 318 432 318 502>
VStem: 45 90<272.5 431 272.5 457.5> 570 80<277 277>
AnchorPoint: "Anchor-3" 411.286 710 basechar 0
AnchorPoint: "Anchor-0" 288.094 0 basechar 0
LayerCount: 2
Fore
SplineSet
286.276367188 778 m 1
 399.727539062 911 l 1
 493.727539062 911 l 1
 560.276367188 778 l 1
 490.276367188 778 l 1
 438.96875 867 l 1
 356.276367188 778 l 1
 286.276367188 778 l 1
280.272460938 -16 m 0
 105.757795716 -16 20.1762859962 101.699133139 20.1762859962 262.923014275 c 0
 20.1762859962 292.010471569 22.9619755618 322.514665221 28.513671875 354 c 0
 65.0126953125 561 210.107421875 726 415.107421875 726 c 0
 576.107421875 726 652.532226562 632 655.846679688 492 c 1
 564.7890625 486 l 1
 563.305664062 574 521.295898438 642 400.295898438 642 c 0
 235.295898438 642 145.66796875 508 118.513671875 354 c 0
 113.344208708 324.682428862 110.667438698 296.658877035 110.667438698 270.412291265 c 0
 110.667438698 150.732959077 166.322381115 68 295.083984375 68 c 0
 429.083984375 68 515.305664062 160 539.936523438 277 c 1
 335.936523438 277 l 1
 350.395507812 359 l 1
 634.395507812 359 l 1
 626.63671875 315 l 2
 589.9609375 107 466.272460938 -16 280.272460938 -16 c 0
EndSplineSet
Validated: 1
EndChar

StartChar: uni0122.ss06
Encoding: 65556 -1 151
Width: 690
GlyphClass: 2
Flags: HMW
HStem: -143 90<317 353 317 417> -16 84<283.5 429 283.5 455> 277 82<366 570 366 650> 642 84<283.5 426.5>
VStem: 45 90<272.5 431 272.5 457.5> 317 100<-135 -53 -135 -53 -135 -53> 570 80<277 277>
AnchorPoint: "Anchor-3" 447.345 710 basechar 0
AnchorPoint: "Anchor-0" 281.834 -240 basechar 0
LayerCount: 2
Fore
SplineSet
316.331054688 -16 m 0
 141.816389466 -16 56.2348797462 101.699133139 56.2348797462 262.923014275 c 0
 56.2348797462 292.010471569 59.0205693118 322.514665221 64.572265625 354 c 0
 101.072265625 561 246.166015625 726 451.166015625 726 c 0
 612.166015625 726 688.590820312 632 691.905273438 492 c 1
 600.84765625 486 l 1
 599.364257812 574 557.354492188 642 436.354492188 642 c 0
 271.354492188 642 181.7265625 508 154.572265625 354 c 0
 149.402802458 324.682428862 146.726032448 296.658877035 146.726032448 270.412291265 c 0
 146.726032448 150.732959077 202.380974865 68 331.142578125 68 c 0
 465.142578125 68 551.365234375 160 575.995117188 277 c 1
 371.995117188 277 l 1
 386.454101562 359 l 1
 670.454101562 359 l 1
 662.6953125 315 l 2
 626.01953125 107 502.331054688 -16 316.331054688 -16 c 0
212.833984375 -240 m 1
 284.9375 -143 l 1
 248.9375 -143 l 1
 264.807617188 -53 l 1
 364.807617188 -53 l 1
 350.348632812 -135 l 1
 270.833984375 -240 l 1
 212.833984375 -240 l 1
EndSplineSet
Validated: 1
EndChar

StartChar: Gdotaccent.ss06
Encoding: 65557 -1 152
Width: 690
GlyphClass: 2
Flags: HMW
HStem: -16 84<283.5 429 283.5 455> 277 82<366 570 366 650> 642 84<283.5 426.5> 793 98<321 409 321 409>
VStem: 45 90<272.5 431 272.5 457.5> 321 88<793 891 793 891> 570 80<277 277>
AnchorPoint: "Anchor-3" 413.049 710 basechar 0
AnchorPoint: "Anchor-0" 289.857 0 basechar 0
LayerCount: 2
Fore
SplineSet
383.684570312 793 m 1
 400.963867188 891 l 1
 488.963867188 891 l 1
 471.684570312 793 l 1
 383.684570312 793 l 1
282.036132812 -16 m 0
 107.521249157 -16 21.9390427737 101.699427779 21.9390427737 262.92361967 c 0
 21.9390427737 292.010894823 24.7247093899 322.514883655 30.2763671875 354 c 0
 66.7763671875 561 211.870117188 726 416.870117188 726 c 0
 577.870117188 726 654.295898438 632 657.609375 492 c 1
 566.551757812 486 l 1
 565.068359375 574 523.05859375 642 402.05859375 642 c 0
 237.05859375 642 147.430664062 508 120.276367188 354 c 0
 115.106954058 324.682712641 112.430217422 296.659419544 112.430217422 270.413053427 c 0
 112.430217422 150.733310327 168.085779657 68 296.84765625 68 c 0
 430.84765625 68 517.069335938 160 541.69921875 277 c 1
 337.69921875 277 l 1
 352.158203125 359 l 1
 636.158203125 359 l 1
 628.400390625 315 l 2
 591.723632812 107 468.036132812 -16 282.036132812 -16 c 0
EndSplineSet
Validated: 1
Substitution2: "'ss08' Style Set 8 in Latin lookup 41 subtable" Gdotaccent.ss06.ss08
Substitution2: "'aalt' Access All Alternates in Latin lookup 0 subtable" Gdotaccent.ss06.ss08
EndChar

StartChar: uni1E20.ss06
Encoding: 65558 -1 153
Width: 690
GlyphClass: 2
Flags: HMW
HStem: -16 84<283.5 429 283.5 455> 277 82<366 570 366 650> 642 84<283.5 426.5> 805 72<231 499 231 499>
VStem: 45 90<272.5 431 272.5 457.5> 231 268<805 877 805 877> 570 80<277 277>
AnchorPoint: "Anchor-3" 414.283 710 basechar 0
AnchorPoint: "Anchor-0" 291.091 0 basechar 0
LayerCount: 2
Fore
SplineSet
297.034179688 805 m 1
 309.73046875 877 l 1
 577.73046875 877 l 1
 565.034179688 805 l 1
 297.034179688 805 l 1
283.26953125 -16 m 0
 108.754866029 -16 23.1733563087 101.699133139 23.1733563087 262.923014275 c 0
 23.1733563087 292.010471569 25.9590458743 322.514665221 31.5107421875 354 c 0
 68.0107421875 561 213.104492188 726 418.104492188 726 c 0
 579.104492188 726 655.530273438 632 658.84375 492 c 1
 567.786132812 486 l 1
 566.302734375 574 524.29296875 642 403.29296875 642 c 0
 238.29296875 642 148.665039062 508 121.510742188 354 c 0
 116.34127902 324.682428862 113.664509011 296.658877035 113.664509011 270.412291265 c 0
 113.664509011 150.732959077 169.319451428 68 298.081054688 68 c 0
 432.081054688 68 518.303710938 160 542.93359375 277 c 1
 338.93359375 277 l 1
 353.392578125 359 l 1
 637.392578125 359 l 1
 629.633789062 315 l 2
 592.958007812 107 469.26953125 -16 283.26953125 -16 c 0
EndSplineSet
Validated: 1
EndChar

StartChar: Adieresis.ss08
Encoding: 65559 -1 154
Width: 668
GlyphClass: 2
Flags: HMW
HStem: 0 21G<20 20 20 114 554 554 554 648> 202 84<214 454 214 483 185 454> 635 75<334 334> 690 20G<276 392 392 392> 790 100<230 258 410 438>
VStem: 196 96<824.5 854.5> 376 96<824.5 854.5>
AnchorPoint: "Anchor-3" 380.727 710 basechar 0
AnchorPoint: "Anchor-2" 569.534 0 basechar 0
AnchorPoint: "Anchor-0" 255.534 0 basechar 0
LayerCount: 2
Fore
SplineSet
304.833007812 790 m 0xde
 280.404326891 790 264.614674051 804.462306861 264.614674051 828.738301115 c 0
 264.614674051 832.287298366 264.95213992 836.046039591 265.649414062 840 c 0
 270.762695312 869 294.465820312 890 322.465820312 890 c 0
 347.026501183 890 362.582537271 873.842132728 362.582537271 850.300253425 c 0
 362.582537271 847.003600687 362.277492849 843.562151956 361.649414062 840 c 0
 356.182617188 809 332.833007812 790 304.833007812 790 c 0xde
484.833007812 790 m 0
 460.404326891 790 444.614674051 804.462306861 444.614674051 828.738301115 c 0
 444.614674051 832.287298366 444.95213992 836.046039591 445.649414062 840 c 0
 450.762695312 869 474.465820312 890 502.465820312 890 c 0
 527.026501183 890 542.582537271 873.842132728 542.582537271 850.300253425 c 0
 542.582537271 847.003600687 542.277492849 843.562151956 541.649414062 840 c 0
 536.182617188 809 512.833007812 790 484.833007812 790 c 0
-58.4658203125 0 m 1
 322.7265625 710 l 1
 438.7265625 710 l 1
 569.534179688 0 l 1
 475.534179688 0 l 1
 440.15234375 202 l 1
 142.15234375 202 l 1
 35.5341796875 0 l 1
 -58.4658203125 0 l 1
185.963867188 286 m 1
 425.963867188 286 l 1
 367.501953125 635 l 1xee
 185.963867188 286 l 1
EndSplineSet
Validated: 1
EndChar

StartChar: Cdotaccent.ss08
Encoding: 65560 -1 155
Width: 703
GlyphClass: 2
Flags: HMW
HStem: -16 84<296 426 296 449> 642 84<296 423> 790 100<349 377>
VStem: 45 90<264 444 264 469> 315 96<824.5 854.5>
AnchorPoint: "Anchor-3" 410.138 710 basechar 0
AnchorPoint: "Anchor-0" 288.945 0 basechar 0
LayerCount: 2
Fore
SplineSet
425.243164062 790 m 0
 400.814128123 790 385.025114722 804.462727221 385.025114722 828.739359519 c 0
 385.025114722 832.288045667 385.36249003 836.046432647 386.059570312 840 c 0
 391.172851562 869 414.875976562 890 442.875976562 890 c 0
 467.436657433 890 482.992693521 873.842132728 482.992693521 850.300253425 c 0
 482.992693521 847.003600687 482.687649099 843.562151956 482.059570312 840 c 0
 476.59375 809 453.243164062 790 425.243164062 790 c 0
284.124023438 -16 m 0
 121.526054439 -16 21.6805235542 86.5300258491 21.6805235542 260.253284381 c 0
 21.6805235542 289.530219052 24.5162471965 320.829120367 30.365234375 354 c 0
 70.919921875 584 224.958984375 726 414.958984375 726 c 0
 586.958984375 726 661.560546875 633 665.287109375 484 c 1
 573.229492188 478 l 1
 571.038085938 579 518.147460938 642 400.147460938 642 c 0
 264.147460938 642 152.103515625 534 120.365234375 354 c 0
 115.456876815 326.163672949 113.084726415 300.097090394 113.084726415 275.918602334 c 0
 113.084726415 143.750031998 183.967438425 68 298.935546875 68 c 0
 422.935546875 68 501.1015625 137 538.673828125 248 c 1
 628.616210938 242 l 1
 575.461914062 88 454.124023438 -16 284.124023438 -16 c 0
EndSplineSet
Validated: 1
EndChar

StartChar: Edieresis.ss08
Encoding: 65561 -1 156
Width: 603
GlyphClass: 2
Flags: HMW
HStem: 0 84<178 546 178 546> 315 82<178 526 178 526> 626 84<178 538 178 178> 790 100<213 241 393 421>
VStem: 92 86<84 315 397 626> 179 96<824.5 854.5> 359 96<824.5 854.5>
AnchorPoint: "Anchor-3" 363.727 710 basechar 0
AnchorPoint: "Anchor-2" 467.534 0 basechar 0
AnchorPoint: "Anchor-0" 240.534 0 basechar 0
LayerCount: 2
Fore
SplineSet
287.833007812 790 m 0
 263.404326891 790 247.614674051 804.462306861 247.614674051 828.738301115 c 0
 247.614674051 832.287298366 247.95213992 836.046039591 248.649414062 840 c 0
 253.762695312 869 277.465820312 890 305.465820312 890 c 0
 330.026501183 890 345.582537271 873.842132728 345.582537271 850.300253425 c 0
 345.582537271 847.003600687 345.277492849 843.562151956 344.649414062 840 c 0
 339.182617188 809 315.833007812 790 287.833007812 790 c 0
467.833007812 790 m 0
 443.404326891 790 427.614674051 804.462306861 427.614674051 828.738301115 c 0
 427.614674051 832.287298366 427.95213992 836.046039591 428.649414062 840 c 0
 433.762695312 869 457.465820312 890 485.465820312 890 c 0
 510.026501183 890 525.582537271 873.842132728 525.582537271 850.300253425 c 0
 525.582537271 847.003600687 525.277492849 843.562151956 524.649414062 840 c 0
 519.182617188 809 495.833007812 790 467.833007812 790 c 0
13.5341796875 0 m 1xe8
 138.7265625 710 l 1
 584.7265625 710 l 1
 569.915039062 626 l 1
 209.915039062 626 l 1
 169.536132812 397 l 1
 517.536132812 397 l 1
 503.077148438 315 l 1
 155.077148438 315 l 1
 114.345703125 84 l 1
 482.345703125 84 l 1
 467.534179688 0 l 1
 13.5341796875 0 l 1xe8
EndSplineSet
Validated: 1
EndChar

StartChar: Edotaccent.ss08
Encoding: 65562 -1 157
Width: 603
GlyphClass: 2
Flags: HMW
HStem: 0 84<178 546 178 546> 315 82<178 526 178 526> 626 84<178 538 178 178> 790 100<304 332>
VStem: 92 86<84 315 397 626> 270 96<824.5 854.5>
AnchorPoint: "Anchor-3" 363.727 710 basechar 0
AnchorPoint: "Anchor-2" 467.534 0 basechar 0
AnchorPoint: "Anchor-0" 240.534 0 basechar 0
LayerCount: 2
Fore
SplineSet
378.833007812 790 m 0
 354.404326891 790 338.614674051 804.462306861 338.614674051 828.738301115 c 0
 338.614674051 832.287298366 338.95213992 836.046039591 339.649414062 840 c 0
 344.762695312 869 368.465820312 890 396.465820312 890 c 0
 421.026501183 890 436.582537271 873.842132728 436.582537271 850.300253425 c 0
 436.582537271 847.003600687 436.277492849 843.562151956 435.649414062 840 c 0
 430.182617188 809 406.833007812 790 378.833007812 790 c 0
13.5341796875 0 m 1
 138.7265625 710 l 1
 584.7265625 710 l 1
 569.915039062 626 l 1
 209.915039062 626 l 1
 169.536132812 397 l 1
 517.536132812 397 l 1
 503.077148438 315 l 1
 155.077148438 315 l 1
 114.345703125 84 l 1
 482.345703125 84 l 1
 467.534179688 0 l 1
 13.5341796875 0 l 1
EndSplineSet
Validated: 1
EndChar

StartChar: Gdotaccent.ss08
Encoding: 65563 -1 158
Width: 700
GlyphClass: 2
Flags: HMW
HStem: -16 84<284.5 410.5> 0 21G<586 650 586 586> 277 82<366 570 366 650> 642 84<283 424.5> 790 100<351 379>
VStem: 45 90<273 431 273 460.5> 317 96<824.5 854.5> 570 80<277 277> 584 66
AnchorPoint: "Anchor-3" 412.138 710 basechar 0
AnchorPoint: "Anchor-0" 288.945 0 basechar 0
LayerCount: 2
Fore
SplineSet
427.243164062 790 m 0xbe80
 402.814128123 790 387.025114722 804.462727221 387.025114722 828.739359519 c 0
 387.025114722 832.288045667 387.36249003 836.046432647 388.059570312 840 c 0
 393.172851562 869 416.875976562 890 444.875976562 890 c 0
 469.436657433 890 484.992693521 873.842132728 484.992693521 850.300253425 c 0
 484.992693521 847.003600687 484.687649099 843.562151956 484.059570312 840 c 0
 478.59375 809 455.243164062 790 427.243164062 790 c 0xbe80
282.124023438 -16 m 0
 112.077783647 -16 21.9161721384 96.7713223007 21.9161721384 262.080593418 c 0
 21.9161721384 291.19993339 24.713802273 321.949476576 30.365234375 354 c 0
 67.9228515625 567 214.958984375 726 414.958984375 726 c 0
 584.958984375 726 654.973632812 624 657.698242188 492 c 1
 566.639648438 486 l 1
 564.862304688 578 521.147460938 642 400.147460938 642 c 0
 238.147460938 642 147.51953125 508 120.365234375 354 c 0
 115.249989034 324.990468049 112.594280997 297.199462689 112.594280997 271.120811765 c 0
 112.594280997 151.566590816 168.407865272 68 298.935546875 68 c 0
 424.935546875 68 519.862304688 164 541.788085938 277 c 1xb5
 337.788085938 277 l 1
 352.24609375 359 l 1
 636.24609375 359 l 1
 572.9453125 0 l 1
 508.9453125 0 l 1x7480
 525.927734375 119 l 1
 476.822265625 39 379.124023438 -16 282.124023438 -16 c 0
EndSplineSet
Validated: 1
EndChar

StartChar: Idieresis.ss08
Encoding: 65564 -1 159
Width: 270
GlyphClass: 2
Flags: HMW
HStem: 0 21G<92 92 92 178> 690 20G<92 178 178 178> 790 100<31 59 211 239>
VStem: -3 96<824.5 854.5> 92 86<0 710 0 710> 177 96<824.5 854.5>
AnchorPoint: "Anchor-3" 181.727 710 basechar 0
AnchorPoint: "Anchor-2" 99.5342 0 basechar 0
AnchorPoint: "Anchor-0" 56.5342 0 basechar 0
LayerCount: 2
Fore
SplineSet
105.833007812 790 m 0xf4
 81.4043268914 790 65.6146740512 804.462306861 65.6146740512 828.738301115 c 0
 65.6146740512 832.287298366 65.9521399204 836.046039591 66.6494140625 840 c 0
 71.7626953125 869 95.4658203125 890 123.465820312 890 c 0
 148.026501183 890 163.582537271 873.842132728 163.582537271 850.300253425 c 0
 163.582537271 847.003600687 163.277492849 843.562151956 162.649414062 840 c 0
 157.182617188 809 133.833007812 790 105.833007812 790 c 0xf4
285.833007812 790 m 0
 261.404326891 790 245.614674051 804.462306861 245.614674051 828.738301115 c 0
 245.614674051 832.287298366 245.95213992 836.046039591 246.649414062 840 c 0
 251.762695312 869 275.465820312 890 303.465820312 890 c 0
 328.026501183 890 343.582537271 873.842132728 343.582537271 850.300253425 c 0
 343.582537271 847.003600687 343.277492849 843.562151956 342.649414062 840 c 0
 337.182617188 809 313.833007812 790 285.833007812 790 c 0
13.5341796875 0 m 1xe8
 138.7265625 710 l 1
 224.7265625 710 l 1
 99.5341796875 0 l 1
 13.5341796875 0 l 1xe8
EndSplineSet
Validated: 1
EndChar

StartChar: Idotaccent.ss08
Encoding: 65565 -1 160
Width: 270
GlyphClass: 2
Flags: HMW
HStem: 0 21G<92 92 92 178> 690 20G<92 178 178 178> 790 100<122 150>
VStem: 88 96<824.5 854.5> 92 86<0 710 0 710>
AnchorPoint: "Anchor-3" 181.727 710 basechar 0
AnchorPoint: "Anchor-2" 99.5342 0 basechar 0
AnchorPoint: "Anchor-0" 56.5342 0 basechar 0
LayerCount: 2
Fore
SplineSet
196.833007812 790 m 0xf0
 172.404326891 790 156.614674051 804.462306861 156.614674051 828.738301115 c 0
 156.614674051 832.287298366 156.95213992 836.046039591 157.649414062 840 c 0
 162.762695312 869 186.465820312 890 214.465820312 890 c 0
 239.026501183 890 254.582537271 873.842132728 254.582537271 850.300253425 c 0
 254.582537271 847.003600687 254.277492849 843.562151956 253.649414062 840 c 0
 248.182617188 809 224.833007812 790 196.833007812 790 c 0xf0
13.5341796875 0 m 1xe8
 138.7265625 710 l 1
 224.7265625 710 l 1
 99.5341796875 0 l 1
 13.5341796875 0 l 1xe8
EndSplineSet
Validated: 1
EndChar

StartChar: Odieresis.ss08
Encoding: 65566 -1 161
Width: 739
GlyphClass: 2
Flags: HMW
HStem: -16 84<296 442.5 296 470.5> 642 84<296 442.5> 790 100<265 293 445 473>
VStem: 45 90<264 444 264 469> 231 96<824.5 854.5> 411 96<824.5 854.5> 604 90<264 444>
AnchorPoint: "Anchor-3" 417.138 710 basechar 0
AnchorPoint: "Anchor-1" 355.541 355 basechar 0
AnchorPoint: "Anchor-0" 291.945 0 basechar 0
LayerCount: 2
Fore
SplineSet
341.243164062 790 m 0
 316.814128123 790 301.025114722 804.462727221 301.025114722 828.739359519 c 0
 301.025114722 832.288045667 301.36249003 836.046432647 302.059570312 840 c 0
 307.172851562 869 330.875976562 890 358.875976562 890 c 0
 383.436657433 890 398.992693521 873.842132728 398.992693521 850.300253425 c 0
 398.992693521 847.003600687 398.687649099 843.562151956 398.059570312 840 c 0
 392.59375 809 369.243164062 790 341.243164062 790 c 0
521.243164062 790 m 0
 496.814128123 790 481.025114722 804.462727221 481.025114722 828.739359519 c 0
 481.025114722 832.288045667 481.36249003 836.046432647 482.059570312 840 c 0
 487.172851562 869 510.875976562 890 538.875976562 890 c 0
 563.436657433 890 578.992693521 873.842132728 578.992693521 850.300253425 c 0
 578.992693521 847.003600687 578.687649099 843.562151956 578.059570312 840 c 0
 572.59375 809 549.243164062 790 521.243164062 790 c 0
289.124023438 -16 m 0
 117.379398015 -16 21.3094010742 85.2025853003 21.3094010742 256.877557697 c 0
 21.3094010742 287.120661857 24.290844239 319.550811124 30.365234375 354 c 0
 70.919921875 584 217.958984375 726 419.958984375 726 c 0
 592.502699439 726 688.438772843 623.412473674 688.438772843 451.39654741 c 0
 688.438772843 421.033424291 685.449693084 388.507120863 679.365234375 354 c 0
 638.809570312 124 492.124023438 -16 289.124023438 -16 c 0
303.935546875 68 m 0
 450.935546875 68 557.625976562 174 589.365234375 354 c 0
 594.459045255 382.888960658 596.9591315 409.923316766 596.9591315 434.954241661 c 0
 596.9591315 565.884845964 528.554809733 642 405.147460938 642 c 0
 259.147460938 642 152.103515625 534 120.365234375 354 c 0
 115.282508669 325.174794558 112.79116291 298.247306483 112.79116291 273.348952214 c 0
 112.79116291 142.768665494 181.315991289 68 303.935546875 68 c 0
EndSplineSet
Validated: 1
EndChar

StartChar: Udieresis.ss08
Encoding: 65567 -1 162
Width: 689
GlyphClass: 2
Flags: HMW
HStem: -16 84<287 402.5 287 427> 691 20G<77 163 163 163 526 612 612 612> 790 100<241 269 421 449>
VStem: 77 86<248 711> 207 96<824.5 854.5> 387 96<824.5 854.5> 526 86<248 711>
AnchorPoint: "Anchor-3" 393.138 710 basechar 0
AnchorPoint: "Anchor-2" 380.474 3 basechar 0
AnchorPoint: "Anchor-0" 267.945 0 basechar 0
LayerCount: 2
Fore
SplineSet
317.243164062 790 m 0
 292.814128123 790 277.025114722 804.462727221 277.025114722 828.739359519 c 0
 277.025114722 832.288045667 277.36249003 836.046432647 278.059570312 840 c 0
 283.172851562 869 306.875976562 890 334.875976562 890 c 0
 359.436657433 890 374.992693521 873.842132728 374.992693521 850.300253425 c 0
 374.992693521 847.003600687 374.687649099 843.562151956 374.059570312 840 c 0
 368.59375 809 345.243164062 790 317.243164062 790 c 0
497.243164062 790 m 0
 472.814128123 790 457.025114722 804.462727221 457.025114722 828.739359519 c 0
 457.025114722 832.288045667 457.36249003 836.046432647 458.059570312 840 c 0
 463.172851562 869 486.875976562 890 514.875976562 890 c 0
 539.436657433 890 554.992693521 873.842132728 554.992693521 850.300253425 c 0
 554.992693521 847.003600687 554.687649099 843.562151956 554.059570312 840 c 0
 548.59375 809 525.243164062 790 497.243164062 790 c 0
265.124023438 -16 m 0
 121.273167567 -16 38.2172566973 61.5277506314 38.2172566973 188.75186759 c 0
 38.2172566973 207.456526453 40.0125327546 227.235385764 43.673828125 248 c 2
 125.313476562 711 l 1
 211.313476562 711 l 1
 129.673828125 248 l 2
 126.891898381 232.222690874 125.518177366 217.386491325 125.518177366 203.530135728 c 0
 125.518177366 116.388223439 179.850049994 68 279.935546875 68 c 0
 394.935546875 68 472.396484375 133 492.673828125 248 c 2
 574.313476562 711 l 1
 660.313476562 711 l 1
 578.673828125 248 l 2
 550.109375 86 429.124023438 -16 265.124023438 -16 c 0
EndSplineSet
Validated: 1
EndChar

StartChar: Wdieresis.ss08
Encoding: 65568 -1 163
Width: 945
GlyphClass: 2
Flags: HMW
HStem: 0 21G<225 225 225 332 612 612 612 720> 0 118<225 278 278 278 278 332> 690 20G<38 132 132 132 423 521 521 521 812 907 907 907> 790 100<368 396 548 576>
VStem: 334 96<824.5 854.5> 514 96<824.5 854.5>
AnchorPoint: "Anchor-3" 518.727 710 basechar 0
AnchorPoint: "Anchor-0" 393.534 0 basechar 0
LayerCount: 2
Fore
SplineSet
442.833007812 790 m 0xbc
 418.404326891 790 402.614674051 804.462306861 402.614674051 828.738301115 c 0
 402.614674051 832.287298366 402.95213992 836.046039591 403.649414062 840 c 0
 408.762695312 869 432.465820312 890 460.465820312 890 c 0
 485.026501183 890 500.582537271 873.842132728 500.582537271 850.300253425 c 0
 500.582537271 847.003600687 500.277492849 843.562151956 499.649414062 840 c 0
 494.182617188 809 470.833007812 790 442.833007812 790 c 0xbc
622.833007812 790 m 0
 598.404326891 790 582.614674051 804.462306861 582.614674051 828.738301115 c 0
 582.614674051 832.287298366 582.95213992 836.046039591 583.649414062 840 c 0
 588.762695312 869 612.465820312 890 640.465820312 890 c 0
 665.026501183 890 680.582537271 873.842132728 680.582537271 850.300253425 c 0
 680.582537271 847.003600687 680.277492849 843.562151956 679.649414062 840 c 0
 674.182617188 809 650.833007812 790 622.833007812 790 c 0
146.534179688 0 m 1
 84.7265625 710 l 1
 178.7265625 710 l 1
 220.340820312 118 l 1
 469.7265625 710 l 1
 567.7265625 710 l 1
 609.340820312 118 l 1x7c
 858.7265625 710 l 1
 953.7265625 710 l 1
 641.534179688 0 l 1
 533.534179688 0 l 1
 490.514648438 550 l 1
 253.534179688 0 l 1
 146.534179688 0 l 1
EndSplineSet
Validated: 1
EndChar

StartChar: Ydieresis.ss08
Encoding: 65569 -1 164
Width: 576
GlyphClass: 2
Flags: HMW
HStem: 0 21G<245 245 245 331> 690 20G<-6 96 96 96 480 582 582 582> 790 100<184 212 364 392>
VStem: 150 96<824.5 854.5> 245 86<0 290 0 290> 330 96<824.5 854.5>
AnchorPoint: "Anchor-3" 334.727 710 basechar 0
AnchorPoint: "Anchor-0" 209.534 0 basechar 0
LayerCount: 2
Fore
SplineSet
258.833007812 790 m 0xf4
 234.404326891 790 218.614674051 804.462306861 218.614674051 828.738301115 c 0
 218.614674051 832.287298366 218.95213992 836.046039591 219.649414062 840 c 0
 224.762695312 869 248.465820312 890 276.465820312 890 c 0
 301.026501183 890 316.582537271 873.842132728 316.582537271 850.300253425 c 0
 316.582537271 847.003600687 316.277492849 843.562151956 315.649414062 840 c 0
 310.182617188 809 286.833007812 790 258.833007812 790 c 0xf4
438.833007812 790 m 0
 414.404326891 790 398.614674051 804.462306861 398.614674051 828.738301115 c 0
 398.614674051 832.287298366 398.95213992 836.046039591 399.649414062 840 c 0
 404.762695312 869 428.465820312 890 456.465820312 890 c 0
 481.026501183 890 496.582537271 873.842132728 496.582537271 850.300253425 c 0
 496.582537271 847.003600687 496.277492849 843.562151956 495.649414062 840 c 0
 490.182617188 809 466.833007812 790 438.833007812 790 c 0
166.534179688 0 m 1xe8
 217.668945312 290 l 1
 40.7265625 710 l 1
 142.7265625 710 l 1
 276.186523438 378 l 1
 526.7265625 710 l 1
 628.7265625 710 l 1
 303.668945312 290 l 1
 252.534179688 0 l 1
 166.534179688 0 l 1xe8
EndSplineSet
Validated: 1
EndChar

StartChar: Zdotaccent.ss08
Encoding: 65570 -1 165
Width: 544
GlyphClass: 2
Flags: HMW
HStem: 0 84<126 516 126 516> 626 84<41 408 41 506> 790 100<267 295>
VStem: 233 96<824.5 854.5>
AnchorPoint: "Anchor-3" 326.727 710 basechar 0
AnchorPoint: "Anchor-0" 201.534 0 basechar 0
LayerCount: 2
Fore
SplineSet
341.833007812 790 m 0
 317.404326891 790 301.614674051 804.462306861 301.614674051 828.738301115 c 0
 301.614674051 832.287298366 301.95213992 836.046039591 302.649414062 840 c 0
 307.762695312 869 331.465820312 890 359.465820312 890 c 0
 384.026501183 890 399.582537271 873.842132728 399.582537271 850.300253425 c 0
 399.582537271 847.003600687 399.277492849 843.562151956 398.649414062 840 c 0
 393.182617188 809 369.833007812 790 341.833007812 790 c 0
-50.4658203125 0 m 1
 -34.94921875 88 l 1
 439.915039062 626 l 1
 72.9150390625 626 l 1
 87.7265625 710 l 1
 552.7265625 710 l 1
 537.209960938 622 l 1
 62.345703125 84 l 1
 452.345703125 84 l 1
 437.534179688 0 l 1
 -50.4658203125 0 l 1
EndSplineSet
Validated: 1
EndChar

StartChar: Idieresis.ss05.ss08
Encoding: 65571 -1 166
Width: 426
GlyphClass: 2
Flags: HMW
HStem: 0 84<45 170 45 170 256 381> 626 84<51 170 51 375 256 256 256 375> 790 100<109 137 289 317>
VStem: 75 96<824.5 854.5> 170 86<84 626 84 626> 255 96<824.5 854.5>
AnchorPoint: "Anchor-3" 259.727 710 basechar 0
AnchorPoint: "Anchor-2" 302.534 0 basechar 0
AnchorPoint: "Anchor-0" 134.534 0 basechar 0
LayerCount: 2
Fore
SplineSet
183.833007812 790 m 0xf4
 159.404326891 790 143.614674051 804.462306861 143.614674051 828.738301115 c 0
 143.614674051 832.287298366 143.95213992 836.046039591 144.649414062 840 c 0
 149.762695312 869 173.465820312 890 201.465820312 890 c 0
 226.026501183 890 241.582537271 873.842132728 241.582537271 850.300253425 c 0
 241.582537271 847.003600687 241.277492849 843.562151956 240.649414062 840 c 0
 235.182617188 809 211.833007812 790 183.833007812 790 c 0xf4
363.833007812 790 m 0
 339.404326891 790 323.614674051 804.462306861 323.614674051 828.738301115 c 0
 323.614674051 832.287298366 323.95213992 836.046039591 324.649414062 840 c 0
 329.762695312 869 353.465820312 890 381.465820312 890 c 0
 406.026501183 890 421.582537271 873.842132728 421.582537271 850.300253425 c 0
 421.582537271 847.003600687 421.277492849 843.562151956 420.649414062 840 c 0
 415.182617188 809 391.833007812 790 363.833007812 790 c 0
-33.4658203125 0 m 1
 -18.654296875 84 l 1
 106.345703125 84 l 1
 201.915039062 626 l 1
 82.9150390625 626 l 1
 97.7265625 710 l 1
 421.7265625 710 l 1
 406.915039062 626 l 1
 287.915039062 626 l 1
 192.345703125 84 l 1xc8
 317.345703125 84 l 1
 302.534179688 0 l 1
 -33.4658203125 0 l 1
EndSplineSet
Validated: 1
EndChar

StartChar: Idotaccent.ss05.ss08
Encoding: 65572 -1 167
Width: 426
GlyphClass: 2
Flags: HMW
HStem: 0 84<45 170 45 170 256 381> 626 84<51 170 51 375 256 256 256 375> 790 100<200 228>
VStem: 166 96<824.5 854.5> 170 86<84 626 84 626>
AnchorPoint: "Anchor-3" 259.727 710 basechar 0
AnchorPoint: "Anchor-2" 302.534 0 basechar 0
AnchorPoint: "Anchor-0" 134.534 0 basechar 0
LayerCount: 2
Fore
SplineSet
274.833007812 790 m 0xf0
 250.404326891 790 234.614674051 804.462306861 234.614674051 828.738301115 c 0
 234.614674051 832.287298366 234.95213992 836.046039591 235.649414062 840 c 0
 240.762695312 869 264.465820312 890 292.465820312 890 c 0
 317.026501183 890 332.582537271 873.842132728 332.582537271 850.300253425 c 0
 332.582537271 847.003600687 332.277492849 843.562151956 331.649414062 840 c 0
 326.182617188 809 302.833007812 790 274.833007812 790 c 0xf0
-33.4658203125 0 m 1
 -18.654296875 84 l 1
 106.345703125 84 l 1
 201.915039062 626 l 1
 82.9150390625 626 l 1
 97.7265625 710 l 1
 421.7265625 710 l 1
 406.915039062 626 l 1
 287.915039062 626 l 1
 192.345703125 84 l 1xc8
 317.345703125 84 l 1
 302.534179688 0 l 1
 -33.4658203125 0 l 1
EndSplineSet
Validated: 1
EndChar

